<svg xmlns="http://www.w3.org/2000/svg" width="1440" height="1024" fill="none" viewBox="0 0 1440 1024">
  <g clip-path="url(#a)">
    <path fill="#fff" d="M0 0h1440v1024H0z"/>
    <g filter="url(#b)">
      <path fill="#fff" d="M0 0h1440v1024H0z"/>
    </g>
    <path fill="#000" d="M531.373 187h-4.227c-.25-1.216-.688-2.284-1.313-3.205a8.757 8.757 0 0 0-2.25-2.318 9.57 9.57 0 0 0-2.915-1.432 11.642 11.642 0 0 0-3.341-.477c-2.113 0-4.028.534-5.744 1.602-1.704 1.069-3.062 2.642-4.074 4.722-1 2.08-1.5 4.631-1.5 7.653 0 3.023.5 5.574 1.5 7.654 1.012 2.079 2.37 3.653 4.074 4.721 1.716 1.069 3.631 1.603 5.744 1.603 1.16 0 2.273-.159 3.341-.478a9.762 9.762 0 0 0 2.915-1.414 8.998 8.998 0 0 0 2.25-2.336c.625-.931 1.063-2 1.313-3.204h4.227c-.318 1.784-.898 3.381-1.739 4.79a13.082 13.082 0 0 1-3.136 3.596 13.72 13.72 0 0 1-4.21 2.233c-1.546.512-3.199.767-4.961.767-2.977 0-5.625-.727-7.943-2.182-2.318-1.454-4.142-3.522-5.471-6.204-1.33-2.682-1.995-5.864-1.995-9.546 0-3.681.665-6.863 1.995-9.545 1.329-2.682 3.153-4.75 5.471-6.205 2.318-1.454 4.966-2.181 7.943-2.181 1.762 0 3.415.255 4.961.767a13.53 13.53 0 0 1 4.21 2.25c1.25.977 2.295 2.17 3.136 3.579.841 1.398 1.421 2.995 1.739 4.79Zm16.922 24.545c-2.364 0-4.438-.562-6.222-1.687-1.773-1.125-3.159-2.699-4.159-4.722-.989-2.022-1.483-4.386-1.483-7.091 0-2.727.494-5.108 1.483-7.142 1-2.034 2.386-3.613 4.159-4.738 1.784-1.125 3.858-1.688 6.222-1.688 2.363 0 4.432.563 6.204 1.688 1.784 1.125 3.171 2.704 4.159 4.738 1 2.034 1.5 4.415 1.5 7.142 0 2.705-.5 5.069-1.5 7.091-.988 2.023-2.375 3.597-4.159 4.722-1.772 1.125-3.841 1.687-6.204 1.687Zm0-3.613c1.795 0 3.272-.46 4.432-1.381 1.159-.92 2.017-2.131 2.573-3.631.557-1.5.836-3.125.836-4.875s-.279-3.38-.836-4.892c-.556-1.511-1.414-2.733-2.573-3.664-1.16-.932-2.637-1.398-4.432-1.398-1.796 0-3.273.466-4.432 1.398-1.159.931-2.017 2.153-2.574 3.664-.557 1.512-.835 3.142-.835 4.892 0 1.75.278 3.375.835 4.875.557 1.5 1.415 2.711 2.574 3.631 1.159.921 2.636 1.381 4.432 1.381Zm18.004 12.886v-36h3.886v4.159h.478c.295-.454.704-1.034 1.227-1.738.534-.716 1.295-1.353 2.284-1.909 1-.569 2.352-.853 4.057-.853 2.204 0 4.148.551 5.829 1.654 1.682 1.102 2.995 2.664 3.938 4.687.943 2.023 1.415 4.409 1.415 7.159 0 2.773-.472 5.176-1.415 7.211-.943 2.022-2.25 3.59-3.921 4.704-1.67 1.102-3.596 1.653-5.778 1.653-1.682 0-3.028-.278-4.04-.835-1.011-.568-1.79-1.21-2.335-1.926a25.538 25.538 0 0 1-1.261-1.807h-.341v13.841h-4.023Zm3.955-22.909c0 1.977.289 3.722.869 5.233.579 1.5 1.426 2.676 2.54 3.528 1.113.841 2.477 1.262 4.091 1.262 1.681 0 3.085-.443 4.21-1.33 1.136-.897 1.988-2.102 2.557-3.613.579-1.523.869-3.216.869-5.08 0-1.841-.284-3.5-.852-4.977-.557-1.489-1.404-2.665-2.54-3.529-1.125-.875-2.54-1.312-4.244-1.312-1.637 0-3.012.415-4.125 1.244-1.114.818-1.955 1.966-2.523 3.443-.568 1.466-.852 3.177-.852 5.131Zm36.272 13.636c-2.522 0-4.699-.556-6.528-1.67-1.818-1.125-3.222-2.693-4.21-4.705-.978-2.022-1.466-4.375-1.466-7.056 0-2.682.488-5.046 1.466-7.091.988-2.057 2.363-3.659 4.125-4.807 1.772-1.159 3.841-1.739 6.204-1.739 1.364 0 2.71.228 4.04.682 1.33.455 2.54 1.193 3.631 2.216 1.091 1.011 1.96 2.352 2.608 4.023.647 1.67.971 3.727.971 6.17v1.705h-20.182v-3.478h16.091c0-1.477-.295-2.795-.886-3.954a6.677 6.677 0 0 0-2.489-2.744c-1.068-.671-2.329-1.006-3.784-1.006-1.602 0-2.988.398-4.159 1.193a7.85 7.85 0 0 0-2.676 3.068 9.017 9.017 0 0 0-.938 4.057v2.318c0 1.978.341 3.654 1.023 5.029.693 1.363 1.654 2.403 2.881 3.119 1.227.705 2.653 1.057 4.278 1.057 1.057 0 2.012-.148 2.864-.443a6.134 6.134 0 0 0 2.233-1.364c.625-.614 1.108-1.375 1.449-2.284l3.886 1.091a8.614 8.614 0 0 1-2.062 3.477c-.966.989-2.159 1.761-3.58 2.318-1.42.546-3.017.818-4.79.818Zm16.961-.545v-26.182h10.704c2.818 0 5.057.637 6.716 1.909 1.659 1.273 2.489 2.955 2.489 5.046 0 1.591-.472 2.824-1.415 3.699-.943.863-2.154 1.448-3.631 1.755.966.137 1.904.478 2.813 1.023.92.545 1.681 1.295 2.284 2.25.602.943.903 2.102.903 3.477 0 1.341-.341 2.54-1.023 3.597-.681 1.057-1.659 1.892-2.931 2.506-1.273.613-2.796.92-4.569.92h-12.34Zm3.818-3.682h8.522c1.387 0 2.472-.329 3.256-.988.784-.66 1.176-1.557 1.176-2.694 0-1.352-.392-2.414-1.176-3.187-.784-.784-1.869-1.176-3.256-1.176h-8.522v8.045Zm0-11.523h6.886c1.08 0 2.006-.147 2.778-.443.773-.307 1.364-.738 1.773-1.295.421-.568.631-1.239.631-2.012 0-1.102-.46-1.965-1.381-2.59-.92-.637-2.187-.955-3.801-.955h-6.886v7.295Zm40.657.273v3.75h-14.454v-3.75h14.454Zm-13.5-11.25V211h-4.022v-26.182h4.022Zm16.569 0V211h-4.023v-26.182h4.023Zm17.982 26.727c-2.363 0-4.437-.562-6.221-1.687-1.773-1.125-3.159-2.699-4.159-4.722-.989-2.022-1.483-4.386-1.483-7.091 0-2.727.494-5.108 1.483-7.142 1-2.034 2.386-3.613 4.159-4.738 1.784-1.125 3.858-1.688 6.221-1.688 2.364 0 4.432.563 6.205 1.688 1.784 1.125 3.17 2.704 4.159 4.738 1 2.034 1.5 4.415 1.5 7.142 0 2.705-.5 5.069-1.5 7.091-.989 2.023-2.375 3.597-4.159 4.722-1.773 1.125-3.841 1.687-6.205 1.687Zm0-3.613c1.796 0 3.273-.46 4.432-1.381 1.159-.92 2.017-2.131 2.574-3.631.557-1.5.835-3.125.835-4.875s-.278-3.38-.835-4.892c-.557-1.511-1.415-2.733-2.574-3.664-1.159-.932-2.636-1.398-4.432-1.398-1.795 0-3.272.466-4.431 1.398-1.159.931-2.017 2.153-2.574 3.664-.557 1.512-.835 3.142-.835 4.892 0 1.75.278 3.375.835 4.875.557 1.5 1.415 2.711 2.574 3.631 1.159.921 2.636 1.381 4.431 1.381ZM707.018 211v-26.182h10.704c2.818 0 5.057.637 6.716 1.909 1.659 1.273 2.489 2.955 2.489 5.046 0 1.591-.472 2.824-1.415 3.699-.943.863-2.153 1.448-3.631 1.755.966.137 1.904.478 2.813 1.023a6.745 6.745 0 0 1 2.284 2.25c.602.943.903 2.102.903 3.477 0 1.341-.341 2.54-1.022 3.597-.682 1.057-1.659 1.892-2.932 2.506-1.273.613-2.796.92-4.568.92h-12.341Zm3.818-3.682h8.523c1.386 0 2.471-.329 3.255-.988.784-.66 1.176-1.557 1.176-2.694 0-1.352-.392-2.414-1.176-3.187-.784-.784-1.869-1.176-3.255-1.176h-8.523v8.045Zm0-11.523h6.886c1.08 0 2.006-.147 2.779-.443.772-.307 1.363-.738 1.772-1.295.421-.568.631-1.239.631-2.012 0-1.102-.46-1.965-1.381-2.59-.92-.637-2.187-.955-3.801-.955h-6.886v7.295Zm30.839 15.819c-1.659 0-3.164-.313-4.517-.938-1.352-.636-2.426-1.551-3.221-2.744-.796-1.205-1.193-2.659-1.193-4.364 0-1.5.295-2.716.886-3.648a6.26 6.26 0 0 1 2.369-2.215c.989-.535 2.08-.932 3.273-1.194a40.084 40.084 0 0 1 3.631-.647c1.591-.205 2.88-.358 3.869-.461 1-.113 1.727-.301 2.182-.562.466-.261.699-.716.699-1.364v-.136c0-1.682-.461-2.989-1.381-3.921-.909-.931-2.29-1.397-4.142-1.397-1.92 0-3.426.42-4.517 1.261-1.091.841-1.858 1.739-2.301 2.693l-3.818-1.363c.681-1.591 1.591-2.83 2.727-3.716a10.217 10.217 0 0 1 3.75-1.875 15.554 15.554 0 0 1 4.023-.546c.841 0 1.806.103 2.897.307a9.282 9.282 0 0 1 3.188 1.21c1.034.614 1.892 1.54 2.574 2.779.682 1.238 1.022 2.897 1.022 4.977V211h-4.022v-3.545h-.205c-.273.568-.727 1.176-1.363 1.823-.637.648-1.483 1.199-2.54 1.654-1.057.454-2.347.682-3.87.682Zm.614-3.614c1.591 0 2.932-.312 4.023-.938 1.102-.624 1.932-1.431 2.488-2.42.569-.989.853-2.028.853-3.119v-3.682c-.171.204-.546.392-1.125.562a18.99 18.99 0 0 1-1.978.427 93.52 93.52 0 0 1-2.164.306c-.694.08-1.256.148-1.688.205a15.334 15.334 0 0 0-2.932.665c-.897.295-1.625.744-2.181 1.346-.546.591-.819 1.398-.819 2.421 0 1.397.517 2.454 1.551 3.17 1.046.705 2.37 1.057 3.972 1.057Zm36.251-11.932v3.75h-14.454v-3.75h14.454Zm-13.5-11.25V211h-4.022v-26.182h4.022Zm16.569 0V211h-4.023v-26.182h4.023Zm11.369 20.25 12.614-20.25h4.636V211h-4.023v-20.25L793.66 211h-4.705v-26.182h4.023v20.25ZM833.346 211v-22.5h-6.955c-1.568 0-2.801.364-3.699 1.091-.897.727-1.346 1.727-1.346 3 0 1.25.403 2.233 1.21 2.949.818.716 1.938 1.074 3.358 1.074h8.455v3.75h-8.455c-1.773 0-3.301-.313-4.585-.938-1.284-.625-2.273-1.517-2.966-2.676-.693-1.17-1.04-2.557-1.04-4.159 0-1.614.364-3 1.091-4.159.727-1.159 1.767-2.051 3.119-2.676 1.364-.625 2.983-.938 4.858-.938h10.773V211h-3.818Zm-17.455 0 7.432-13.023h4.364L820.255 211h-4.364Zm42.158 0v-26.182h20.591V211h-4.023v-22.432h-12.545V211h-4.023Zm38.574.545c-2.364 0-4.438-.562-6.222-1.687-1.772-1.125-3.159-2.699-4.159-4.722-.988-2.022-1.483-4.386-1.483-7.091 0-2.727.495-5.108 1.483-7.142 1-2.034 2.387-3.613 4.159-4.738 1.784-1.125 3.858-1.688 6.222-1.688 2.364 0 4.432.563 6.204 1.688 1.785 1.125 3.171 2.704 4.16 4.738 1 2.034 1.5 4.415 1.5 7.142 0 2.705-.5 5.069-1.5 7.091-.989 2.023-2.375 3.597-4.16 4.722-1.772 1.125-3.84 1.687-6.204 1.687Zm0-3.613c1.795 0 3.273-.46 4.432-1.381 1.159-.92 2.017-2.131 2.574-3.631.556-1.5.835-3.125.835-4.875s-.279-3.38-.835-4.892c-.557-1.511-1.415-2.733-2.574-3.664-1.159-.932-2.637-1.398-4.432-1.398-1.796 0-3.273.466-4.432 1.398-1.159.931-2.017 2.153-2.574 3.664-.557 1.512-.835 3.142-.835 4.892 0 1.75.278 3.375.835 4.875.557 1.5 1.415 2.711 2.574 3.631 1.159.921 2.636 1.381 4.432 1.381ZM529.879 233l2.046 2.455a6.575 6.575 0 0 1-2.762 1.619c-1.045.307-2.227.494-3.545.562-1.318.069-2.784.137-4.398.205-1.818.068-3.324.511-4.517 1.329-1.193.819-2.114 2-2.761 3.546-.648 1.545-1.063 3.443-1.245 5.693h.341c.887-1.636 2.114-2.841 3.682-3.614a11.271 11.271 0 0 1 5.046-1.159c2.045 0 3.886.478 5.522 1.432 1.637.955 2.932 2.37 3.887 4.244.954 1.876 1.432 4.188 1.432 6.938 0 2.739-.489 5.102-1.466 7.091-.966 1.989-2.324 3.523-4.074 4.602-1.739 1.068-3.779 1.602-6.12 1.602-2.34 0-4.392-.551-6.153-1.653-1.761-1.114-3.131-2.761-4.108-4.943-.977-2.193-1.466-4.904-1.466-8.131v-2.795c0-5.83.989-10.25 2.966-13.262 1.989-3.011 4.977-4.568 8.966-4.67a71.174 71.174 0 0 1 3.767-.034c1.102.023 2.063-.029 2.881-.154.818-.125 1.511-.426 2.079-.903Zm-8.932 32.932c1.58 0 2.938-.398 4.074-1.193 1.148-.796 2.029-1.915 2.642-3.358.614-1.455.921-3.165.921-5.131 0-1.909-.313-3.534-.938-4.875-.613-1.341-1.494-2.364-2.642-3.068-1.147-.705-2.522-1.057-4.125-1.057-1.17 0-2.221.199-3.153.597a6.403 6.403 0 0 0-2.387 1.755c-.659.773-1.17 1.716-1.534 2.83-.352 1.113-.539 2.386-.562 3.818 0 2.932.687 5.278 2.062 7.04 1.375 1.761 3.256 2.642 5.642 2.642Zm21.29-13.637h7.5c3.068 0 5.415.779 7.04 2.336 1.625 1.556 2.437 3.528 2.437 5.914 0 1.569-.363 2.995-1.09 4.279-.728 1.273-1.796 2.29-3.205 3.051-1.409.75-3.136 1.125-5.182 1.125H538.76v-26.182h4.023v22.432h6.954c1.591 0 2.898-.42 3.921-1.261 1.022-.841 1.534-1.921 1.534-3.239 0-1.386-.512-2.517-1.534-3.392-1.023-.875-2.33-1.313-3.921-1.313h-7.5v-3.75ZM563.374 269v-26.182h4.022V269h-4.022Zm22.022.545c-2.454 0-4.568-.579-6.341-1.738-1.772-1.159-3.136-2.756-4.091-4.79-.954-2.034-1.431-4.358-1.431-6.972 0-2.659.488-5.005 1.466-7.039.988-2.046 2.363-3.642 4.125-4.79 1.772-1.159 3.84-1.739 6.204-1.739 1.841 0 3.5.341 4.977 1.023 1.478.682 2.688 1.636 3.631 2.864.943 1.227 1.528 2.659 1.756 4.295h-4.023c-.307-1.193-.989-2.25-2.045-3.17-1.046-.932-2.455-1.398-4.228-1.398-1.568 0-2.943.409-4.125 1.227-1.17.807-2.085 1.949-2.744 3.426-.648 1.466-.972 3.188-.972 5.165 0 2.023.319 3.784.955 5.284.648 1.5 1.557 2.665 2.727 3.495 1.182.829 2.568 1.244 4.159 1.244 1.046 0 1.995-.182 2.847-.546a5.866 5.866 0 0 0 2.165-1.568c.591-.682 1.011-1.5 1.261-2.454h4.023a9.328 9.328 0 0 1-1.688 4.176c-.886 1.227-2.062 2.204-3.528 2.932-1.455.716-3.148 1.073-5.08 1.073Zm14.114-22.977v-3.75h21.273v3.75h-8.591V269h-4.023v-22.432h-8.659Zm27.141 32.25v-36h3.886v4.159h.477c.296-.454.705-1.034 1.227-1.738.535-.716 1.296-1.353 2.285-1.909 1-.569 2.352-.853 4.056-.853 2.205 0 4.148.551 5.83 1.654 1.682 1.102 2.994 2.664 3.937 4.687.944 2.023 1.415 4.409 1.415 7.159 0 2.773-.471 5.176-1.415 7.211-.943 2.022-2.25 3.59-3.92 4.704-1.67 1.102-3.597 1.653-5.778 1.653-1.682 0-3.029-.278-4.04-.835-1.012-.568-1.79-1.21-2.335-1.926a25.604 25.604 0 0 1-1.262-1.807h-.341v13.841h-4.022Zm3.954-22.909c0 1.977.29 3.722.869 5.233.58 1.5 1.427 2.676 2.54 3.528 1.114.841 2.477 1.262 4.091 1.262 1.682 0 3.085-.443 4.21-1.33 1.137-.897 1.989-2.102 2.557-3.613.58-1.523.869-3.216.869-5.08 0-1.841-.284-3.5-.852-4.977-.557-1.489-1.403-2.665-2.54-3.529-1.125-.875-2.539-1.312-4.244-1.312-1.636 0-3.011.415-4.125 1.244-1.114.818-1.954 1.966-2.523 3.443-.568 1.466-.852 3.177-.852 5.131Zm35.932 13.636c-2.364 0-4.438-.562-6.222-1.687-1.772-1.125-3.159-2.699-4.159-4.722-.988-2.022-1.483-4.386-1.483-7.091 0-2.727.495-5.108 1.483-7.142 1-2.034 2.387-3.613 4.159-4.738 1.784-1.125 3.858-1.688 6.222-1.688 2.364 0 4.432.563 6.204 1.688 1.785 1.125 3.171 2.704 4.16 4.738 1 2.034 1.5 4.415 1.5 7.142 0 2.705-.5 5.069-1.5 7.091-.989 2.023-2.375 3.597-4.16 4.722-1.772 1.125-3.84 1.687-6.204 1.687Zm0-3.613c1.795 0 3.273-.46 4.432-1.381 1.159-.92 2.017-2.131 2.574-3.631.556-1.5.835-3.125.835-4.875s-.279-3.38-.835-4.892c-.557-1.511-1.415-2.733-2.574-3.664-1.159-.932-2.637-1.398-4.432-1.398-1.796 0-3.273.466-4.432 1.398-1.159.931-2.017 2.153-2.574 3.664-.557 1.512-.835 3.142-.835 4.892 0 1.75.278 3.375.835 4.875.557 1.5 1.415 2.711 2.574 3.631 1.159.921 2.636 1.381 4.432 1.381Zm32.322-2.387 9.137-20.727h3.818L700.496 269h-3.273l-11.114-26.182h3.75l9 20.727Zm-10.295-20.727V269h-4.023v-26.182h4.023ZM709.155 269v-26.182h4.023V269h-4.023Zm13.04 9.818c-.682 0-1.29-.057-1.824-.17-.534-.103-.904-.205-1.108-.307l1.023-3.546c.977.25 1.84.341 2.59.273.75-.068 1.415-.403 1.995-1.006.591-.59 1.13-1.551 1.619-2.88l.75-2.046-9.682-26.318h4.364l7.227 20.864h.273l7.227-20.864h4.364l-11.114 30c-.5 1.352-1.119 2.472-1.858 3.358-.738.898-1.596 1.563-2.574 1.994-.966.432-2.056.648-3.272.648Zm48.264-9.273c-2.455 0-4.568-.579-6.341-1.738-1.773-1.159-3.136-2.756-4.091-4.79-.955-2.034-1.432-4.358-1.432-6.972 0-2.659.489-5.005 1.466-7.039.989-2.046 2.364-3.642 4.125-4.79 1.773-1.159 3.841-1.739 6.205-1.739 1.841 0 3.5.341 4.977 1.023 1.477.682 2.687 1.636 3.631 2.864.943 1.227 1.528 2.659 1.755 4.295h-4.022c-.307-1.193-.989-2.25-2.046-3.17-1.045-.932-2.454-1.398-4.227-1.398-1.568 0-2.943.409-4.125 1.227-1.171.807-2.085 1.949-2.745 3.426-.647 1.466-.971 3.188-.971 5.165 0 2.023.318 3.784.954 5.284.648 1.5 1.557 2.665 2.728 3.495 1.182.829 2.568 1.244 4.159 1.244 1.045 0 1.994-.182 2.846-.546a5.858 5.858 0 0 0 2.165-1.568c.591-.682 1.012-1.5 1.262-2.454h4.022a9.327 9.327 0 0 1-1.687 4.176c-.887 1.227-2.063 2.204-3.529 2.932-1.454.716-3.147 1.073-5.079 1.073Zm36.358-26.727V269h-4.023v-26.182h4.023Zm-1.568 12.477v3.75c-.91.341-1.813.643-2.711.904-.897.25-1.841.449-2.829.596a23.82 23.82 0 0 1-3.256.205c-2.966 0-5.346-.801-7.142-2.403-1.784-1.603-2.676-4.006-2.676-7.211v-8.386h4.023v8.386c0 1.341.255 2.444.767 3.307a4.779 4.779 0 0 0 2.079 1.926c.875.421 1.858.631 2.949.631 1.705 0 3.244-.153 4.619-.46a34.676 34.676 0 0 0 4.177-1.245Zm19.926 14.25c-2.523 0-4.699-.556-6.529-1.67-1.818-1.125-3.221-2.693-4.21-4.705-.977-2.022-1.466-4.375-1.466-7.056 0-2.682.489-5.046 1.466-7.091.989-2.057 2.364-3.659 4.125-4.807 1.773-1.159 3.841-1.739 6.205-1.739 1.363 0 2.71.228 4.039.682 1.33.455 2.54 1.193 3.631 2.216 1.091 1.011 1.96 2.352 2.608 4.023.648 1.67.972 3.727.972 6.17v1.705h-20.182v-3.478h16.091c0-1.477-.296-2.795-.887-3.954a6.675 6.675 0 0 0-2.488-2.744c-1.068-.671-2.33-1.006-3.784-1.006-1.603 0-2.989.398-4.159 1.193a7.845 7.845 0 0 0-2.677 3.068 9.016 9.016 0 0 0-.937 4.057v2.318c0 1.978.341 3.654 1.023 5.029.693 1.363 1.653 2.403 2.88 3.119 1.228.705 2.654 1.057 4.279 1.057 1.057 0 2.011-.148 2.863-.443a6.134 6.134 0 0 0 2.233-1.364c.625-.614 1.108-1.375 1.449-2.284l3.887 1.091a8.628 8.628 0 0 1-2.063 3.477c-.966.989-2.159 1.761-3.58 2.318-1.42.546-3.017.818-4.789.818Zm-5.523-31.09c-.716 0-1.352-.273-1.909-.819-.546-.556-.818-1.193-.818-1.909 0-.784.272-1.432.818-1.943.557-.523 1.193-.784 1.909-.784.784 0 1.432.261 1.943.784.523.511.784 1.159.784 1.943 0 .716-.261 1.353-.784 1.909-.511.546-1.159.819-1.943.819Zm9.818 0c-.716 0-1.352-.273-1.909-.819-.545-.556-.818-1.193-.818-1.909 0-.784.273-1.432.818-1.943.557-.523 1.193-.784 1.909-.784.784 0 1.432.261 1.943.784.523.511.784 1.159.784 1.943 0 .716-.261 1.353-.784 1.909-.511.546-1.159.819-1.943.819Zm10.227 8.113v-3.75h21.273v3.75h-8.591V269h-4.022v-22.432h-8.66Zm29.732 32.25c-.682 0-1.29-.057-1.824-.17-.534-.103-.903-.205-1.108-.307l1.023-3.546c.977.25 1.841.341 2.591.273.75-.068 1.415-.403 1.994-1.006.591-.59 1.131-1.551 1.619-2.88l.75-2.046-9.681-26.318h4.363l7.228 20.864h.272l7.228-20.864h4.363l-11.113 30c-.5 1.352-1.12 2.472-1.858 3.358-.739.898-1.597 1.563-2.574 1.994-.966.432-2.057.648-3.273.648Zm29.446-44.727-.341 25.091h-3.954l-.341-25.091h4.636Zm-2.318 35.182a2.95 2.95 0 0 1-2.165-.904 2.953 2.953 0 0 1-.903-2.164c0-.841.301-1.563.903-2.165a2.95 2.95 0 0 1 2.165-.904c.841 0 1.562.301 2.165.904.602.602.903 1.324.903 2.165 0 .556-.142 1.068-.426 1.534a3.183 3.183 0 0 1-1.108 1.125 2.932 2.932 0 0 1-1.534.409Z"/>
    <rect width="1440" height="151" y="-50" fill="#D9D9D9" rx="38"/>
    <path fill="#000" d="M1058.63 56V38.545h13.72V56h-2.68V41.045h-8.36V56h-2.68Zm18.62 6.545v-24h2.59v2.773h.32c.2-.303.47-.69.82-1.159.35-.477.86-.901 1.52-1.273.67-.378 1.57-.568 2.71-.568 1.47 0 2.76.368 3.88 1.102 1.12.735 2 1.777 2.63 3.125.63 1.349.94 2.94.94 4.773 0 1.849-.31 3.45-.94 4.807-.63 1.349-1.5 2.394-2.62 3.136-1.11.735-2.39 1.103-3.85 1.103-1.12 0-2.02-.186-2.69-.557-.68-.379-1.19-.807-1.56-1.284-.36-.485-.64-.887-.84-1.205h-.23v9.227h-2.68Zm2.64-15.272c0 1.318.19 2.48.58 3.488.38 1 .95 1.784 1.69 2.353.74.56 1.65.84 2.73.84 1.12 0 2.05-.295 2.8-.886.76-.598 1.33-1.401 1.71-2.409.39-1.015.58-2.144.58-3.386 0-1.228-.19-2.334-.57-3.319-.37-.992-.94-1.776-1.69-2.352-.75-.583-1.7-.875-2.83-.875-1.09 0-2.01.277-2.75.83-.74.545-1.31 1.31-1.68 2.295-.38.978-.57 2.118-.57 3.42Zm19.54 4.772 8.41-13.5h3.09V56h-2.68V42.5l-8.36 13.5h-3.14V38.545h2.68v13.5ZM1115.85 56V38.545h7.13c1.88 0 3.37.425 4.48 1.273 1.1.849 1.66 1.97 1.66 3.364 0 1.06-.32 1.882-.95 2.466-.62.575-1.43.966-2.42 1.17.65.091 1.27.318 1.88.682a4.52 4.52 0 0 1 1.52 1.5c.4.629.6 1.401.6 2.318 0 .894-.22 1.693-.68 2.398-.45.704-1.1 1.261-1.95 1.67-.85.41-1.87.614-3.05.614h-8.22Zm2.54-2.455h5.68c.93 0 1.65-.22 2.17-.659.53-.439.79-1.038.79-1.795 0-.902-.26-1.61-.79-2.125-.52-.523-1.24-.784-2.17-.784h-5.68v5.363Zm0-7.681h4.59c.72 0 1.34-.099 1.85-.296.52-.204.91-.492 1.19-.863.28-.38.42-.826.42-1.341 0-.735-.31-1.311-.92-1.728-.62-.424-1.46-.636-2.54-.636h-4.59v4.864Zm22.74 10.5c-1.68 0-3.13-.372-4.35-1.114-1.21-.75-2.15-1.795-2.81-3.136-.65-1.349-.97-2.917-.97-4.705 0-1.788.32-3.364.97-4.727.66-1.371 1.58-2.44 2.75-3.205 1.18-.772 2.56-1.159 4.14-1.159.91 0 1.81.152 2.69.455.89.303 1.7.795 2.42 1.477.73.674 1.31 1.568 1.74 2.682.43 1.113.65 2.485.65 4.113v1.137h-13.46v-2.318h10.73c0-.985-.19-1.864-.59-2.637a4.478 4.478 0 0 0-1.66-1.83c-.71-.446-1.55-.67-2.52-.67-1.07 0-1.99.265-2.77.796a5.216 5.216 0 0 0-1.79 2.045 6.096 6.096 0 0 0-.62 2.705v1.545c0 1.318.22 2.436.68 3.352.46.91 1.1 1.603 1.92 2.08.82.47 1.77.705 2.85.705.71 0 1.34-.099 1.91-.296a4.085 4.085 0 0 0 1.49-.909c.42-.41.74-.917.97-1.523l2.59.728a5.769 5.769 0 0 1-1.38 2.318c-.64.659-1.44 1.174-2.38 1.545-.95.364-2.02.546-3.2.546Zm9.68-15.319v-2.5H1165v2.5h-5.73V56h-2.68V41.045h-5.78ZM1178.27 56V32.727h2.82v10.364h12.41V32.727h2.82V56h-2.82V45.59h-12.41V56h-2.82Zm25.05 6.545c-.45 0-.86-.037-1.21-.113-.36-.068-.61-.137-.74-.205l.68-2.363c.65.166 1.23.227 1.73.181.5-.045.94-.269 1.33-.67.39-.394.75-1.034 1.08-1.92l.5-1.364-6.46-17.546h2.91l4.82 13.91h.18l4.82-13.91h2.91l-7.41 20c-.33.902-.75 1.648-1.24 2.24a4.583 4.583 0 0 1-1.72 1.329c-.64.288-1.37.431-2.18.431Zm16.09 0v-24h2.59v2.773h.32c.19-.303.47-.69.81-1.159.36-.477.87-.901 1.53-1.273.66-.378 1.57-.568 2.7-.568 1.47 0 2.77.368 3.89 1.102 1.12.735 1.99 1.777 2.62 3.125.63 1.349.95 2.94.95 4.773 0 1.849-.32 3.45-.95 4.807-.63 1.349-1.5 2.394-2.61 3.136-1.11.735-2.4 1.103-3.85 1.103-1.12 0-2.02-.186-2.7-.557-.67-.379-1.19-.807-1.55-1.284-.37-.485-.65-.887-.84-1.205h-.23v9.227h-2.68Zm2.63-15.272c0 1.318.2 2.48.58 3.488.39 1 .95 1.784 1.7 2.353.74.56 1.65.84 2.72.84 1.13 0 2.06-.295 2.81-.886.76-.598 1.33-1.401 1.71-2.409.38-1.015.57-2.144.57-3.386 0-1.228-.18-2.334-.56-3.319-.37-.992-.94-1.776-1.7-2.352-.75-.583-1.69-.875-2.83-.875-1.09 0-2 .277-2.75.83-.74.545-1.3 1.31-1.68 2.295-.38.978-.57 2.118-.57 3.42Zm19.55-1.773V56h-2.68V38.545h2.59v2.728h.23c.4-.887 1.03-1.599 1.86-2.137.83-.545 1.91-.818 3.23-.818 1.18 0 2.21.243 3.1.727.89.478 1.57 1.205 2.07 2.182.49.97.74 2.197.74 3.682V56h-2.69V45.09c0-1.37-.35-2.439-1.06-3.204-.72-.772-1.69-1.159-2.94-1.159-.85 0-1.62.186-2.29.557-.67.371-1.19.913-1.58 1.625-.39.712-.58 1.576-.58 2.591Zm23.13 10.864c-1.58 0-2.96-.375-4.15-1.125-1.18-.75-2.11-1.8-2.77-3.148-.66-1.349-.99-2.924-.99-4.727 0-1.819.33-3.406.99-4.762.66-1.356 1.59-2.409 2.77-3.159 1.19-.75 2.57-1.125 4.15-1.125 1.57 0 2.95.375 4.13 1.125 1.19.75 2.12 1.803 2.78 3.16.66 1.355 1 2.942 1 4.76 0 1.804-.34 3.38-1 4.728-.66 1.348-1.59 2.398-2.78 3.148-1.18.75-2.56 1.125-4.13 1.125Zm0-2.41c1.19 0 2.18-.306 2.95-.92.77-.614 1.35-1.42 1.72-2.42.37-1 .55-2.084.55-3.25 0-1.167-.18-2.254-.55-3.262-.37-1.007-.95-1.822-1.72-2.443s-1.76-.932-2.95-.932c-1.2 0-2.18.31-2.96.932-.77.621-1.34 1.436-1.71 2.443a9.39 9.39 0 0 0-.56 3.262c0 1.166.19 2.25.56 3.25.37 1 .94 1.806 1.71 2.42.78.614 1.76.92 2.96.92Zm18.59 2.41c-1.45 0-2.74-.368-3.85-1.103-1.11-.742-1.99-1.788-2.61-3.136-.63-1.356-.95-2.958-.95-4.807 0-1.833.32-3.424.95-4.773.62-1.348 1.5-2.39 2.62-3.125 1.12-.734 2.42-1.102 3.89-1.102 1.13 0 2.03.19 2.69.568.67.372 1.17.796 1.52 1.273.36.47.64.856.83 1.16h.23v-8.592h2.68V56h-2.59v-2.682h-.32c-.19.318-.48.72-.84 1.205-.36.477-.88.905-1.56 1.284-.67.371-1.57.557-2.69.557Zm.36-2.41c1.08 0 1.99-.28 2.73-.84.74-.569 1.31-1.353 1.7-2.353.38-1.007.57-2.17.57-3.488 0-1.303-.18-2.444-.56-3.42-.38-.986-.94-1.75-1.69-2.296-.74-.553-1.65-.83-2.75-.83-1.13 0-2.08.292-2.84.875-.75.576-1.31 1.36-1.69 2.353-.37.984-.56 2.09-.56 3.318 0 1.242.19 2.37.57 3.386.39 1.008.96 1.81 1.71 2.41.75.59 1.69.886 2.81.886Zm18.06 2.455c-1.1 0-2.11-.208-3.01-.625-.9-.424-1.62-1.034-2.15-1.83-.53-.803-.79-1.772-.79-2.909 0-1 .19-1.81.59-2.431a4.13 4.13 0 0 1 1.58-1.478 8.242 8.242 0 0 1 2.18-.795c.8-.182 1.61-.326 2.42-.432 1.06-.136 1.92-.239 2.58-.307.67-.075 1.15-.2 1.45-.375.31-.174.47-.477.47-.909v-.09c0-1.122-.31-1.993-.92-2.614-.61-.622-1.53-.932-2.76-.932-1.28 0-2.29.28-3.01.84-.73.561-1.24 1.16-1.54 1.796l-2.54-.909c.45-1.06 1.06-1.886 1.82-2.477a6.711 6.711 0 0 1 2.5-1.25c.9-.243 1.8-.364 2.68-.364.56 0 1.2.068 1.93.205.73.128 1.44.397 2.12.806.69.41 1.27 1.027 1.72 1.853.45.826.68 1.932.68 3.318V56h-2.68v-2.364h-.14c-.18.38-.48.784-.91 1.216-.42.432-.98.8-1.69 1.103-.7.303-1.56.454-2.58.454Zm.41-2.409c1.06 0 1.96-.208 2.68-.625.74-.417 1.29-.955 1.66-1.614.38-.659.57-1.352.57-2.08v-2.454c-.11.137-.36.262-.75.375-.38.106-.82.201-1.32.284-.49.076-.97.144-1.44.205-.46.053-.84.098-1.13.136-.69.091-1.35.239-1.95.444-.6.196-1.08.496-1.46.897-.36.394-.54.932-.54 1.614 0 .932.34 1.636 1.03 2.113.7.47 1.58.705 2.65.705Zm15.17-8.5V56h-2.68V38.545h2.59v2.728h.22a4.962 4.962 0 0 1 1.87-2.137c.83-.545 1.91-.818 3.23-.818 1.18 0 2.21.243 3.1.727.88.478 1.57 1.205 2.07 2.182.49.97.73 2.197.73 3.682V56h-2.68V45.09c0-1.37-.35-2.439-1.07-3.204-.71-.772-1.68-1.159-2.93-1.159-.85 0-1.62.186-2.29.557-.67.371-1.2.913-1.58 1.625-.39.712-.58 1.576-.58 2.591Zm23.13 10.864c-1.64 0-3.05-.387-4.23-1.16-1.18-.772-2.09-1.837-2.73-3.193-.63-1.356-.95-2.905-.95-4.647 0-1.773.32-3.337.97-4.694.66-1.363 1.58-2.428 2.75-3.193 1.19-.772 2.56-1.159 4.14-1.159 1.23 0 2.33.227 3.32.682.98.455 1.79 1.09 2.42 1.91.63.817 1.02 1.772 1.17 2.863h-2.68c-.21-.796-.66-1.5-1.37-2.114-.69-.621-1.63-.932-2.81-.932-1.05 0-1.97.273-2.75.819-.78.537-1.39 1.299-1.83 2.284-.44.977-.65 2.125-.65 3.443 0 1.348.21 2.522.64 3.522.43 1 1.03 1.777 1.81 2.33.79.553 1.72.83 2.78.83.69 0 1.33-.122 1.89-.364a3.965 3.965 0 0 0 1.45-1.046c.39-.454.67-1 .84-1.636h2.68a6.186 6.186 0 0 1-1.13 2.784c-.59.818-1.37 1.47-2.35 1.955-.97.477-2.1.716-3.38.716Zm18.1 0c-1.68 0-3.13-.372-4.35-1.114-1.22-.75-2.15-1.795-2.81-3.136-.65-1.349-.98-2.917-.98-4.705 0-1.788.33-3.364.98-4.727.66-1.371 1.58-2.44 2.75-3.205 1.18-.772 2.56-1.159 4.14-1.159.9 0 1.8.152 2.69.455.89.303 1.69.795 2.42 1.477.73.674 1.31 1.568 1.74 2.682.43 1.113.65 2.485.65 4.113v1.137h-13.46v-2.318h10.73c0-.985-.2-1.864-.59-2.637a4.478 4.478 0 0 0-1.66-1.83c-.71-.446-1.55-.67-2.52-.67-1.07 0-2 .265-2.78.796a5.272 5.272 0 0 0-1.78 2.045 5.97 5.97 0 0 0-.63 2.705v1.545c0 1.318.23 2.436.69 3.352.46.91 1.1 1.603 1.92 2.08.81.47 1.77.705 2.85.705.7 0 1.34-.099 1.91-.296a4.17 4.17 0 0 0 1.49-.909c.41-.41.73-.917.96-1.523l2.59.728a5.747 5.747 0 0 1-1.37 2.318c-.65.659-1.44 1.174-2.39 1.545-.95.364-2.01.546-3.19.546Zm18.71-.046c-1.56 0-2.94-.276-4.13-.83-1.19-.56-2.12-1.329-2.79-2.306-.66-.985-.99-2.106-.98-3.364-.01-.985.18-1.894.57-2.727.4-.841.94-1.542 1.62-2.102a4.951 4.951 0 0 1 2.31-1.08v-.136c-1.12-.288-2-.913-2.66-1.875-.66-.97-.99-2.072-.98-3.307-.01-1.182.29-2.239.9-3.17.6-.932 1.44-1.667 2.5-2.205s2.28-.807 3.64-.807c1.35 0 2.56.269 3.62.807s1.89 1.273 2.5 2.204c.61.932.92 1.99.93 3.17-.01 1.236-.34 2.338-1.01 3.308-.66.962-1.54 1.587-2.63 1.875v.136c.84.152 1.6.511 2.28 1.08.67.56 1.21 1.261 1.61 2.102.4.833.61 1.742.61 2.727 0 1.258-.35 2.379-1.02 3.364-.67.977-1.59 1.746-2.78 2.307-1.19.553-2.55.83-4.11.83Zm0-2.5c1.06 0 1.97-.17 2.73-.511.77-.341 1.36-.822 1.77-1.443.42-.622.63-1.349.64-2.182-.01-.879-.23-1.656-.68-2.33a4.666 4.666 0 0 0-1.83-1.59c-.77-.387-1.64-.58-2.63-.58s-1.87.193-2.65.58c-.78.386-1.39.916-1.83 1.59-.44.675-.66 1.451-.65 2.33-.01.833.19 1.56.6 2.182.42.62 1.01 1.102 1.78 1.443.78.34 1.69.511 2.75.511Zm0-11.045c.84 0 1.58-.167 2.22-.5.65-.334 1.16-.8 1.53-1.398.38-.599.56-1.3.57-2.102-.01-.788-.19-1.474-.55-2.057a3.637 3.637 0 0 0-1.52-1.364c-.64-.325-1.39-.488-2.25-.488-.87 0-1.63.163-2.28.488-.65.319-1.16.773-1.51 1.364-.36.583-.53 1.269-.52 2.057-.01.803.17 1.503.53 2.102.37.599.88 1.064 1.53 1.398.66.333 1.41.5 2.25.5Zm19.72 13.545c-1.56 0-2.94-.276-4.13-.83-1.19-.56-2.12-1.329-2.79-2.306-.66-.985-.99-2.106-.99-3.364 0-.985.19-1.894.58-2.727.4-.841.94-1.542 1.62-2.102a4.963 4.963 0 0 1 2.3-1.08v-.136c-1.11-.288-2-.913-2.66-1.875-.65-.97-.98-2.072-.97-3.307-.01-1.182.29-2.239.9-3.17.6-.932 1.43-1.667 2.5-2.205 1.06-.538 2.28-.807 3.64-.807 1.35 0 2.56.269 3.62.807s1.89 1.273 2.5 2.204c.61.932.92 1.99.93 3.17-.01 1.236-.35 2.338-1.01 3.308-.66.962-1.54 1.587-2.63 1.875v.136c.84.152 1.6.511 2.27 1.08.68.56 1.22 1.261 1.62 2.102.4.833.6 1.742.61 2.727-.01 1.258-.35 2.379-1.02 3.364-.67.977-1.6 1.746-2.78 2.307-1.19.553-2.55.83-4.11.83Zm0-2.5c1.06 0 1.97-.17 2.73-.511.77-.341 1.36-.822 1.77-1.443.42-.622.63-1.349.64-2.182-.01-.879-.24-1.656-.68-2.33a4.666 4.666 0 0 0-1.83-1.59c-.77-.387-1.64-.58-2.63-.58s-1.88.193-2.66.58c-.77.386-1.38.916-1.83 1.59-.44.675-.65 1.451-.64 2.33-.01.833.19 1.56.6 2.182.42.62 1.01 1.102 1.78 1.443.78.34 1.69.511 2.75.511Zm0-11.045c.84 0 1.57-.167 2.22-.5.65-.334 1.16-.8 1.53-1.398.37-.599.56-1.3.57-2.102-.01-.788-.19-1.474-.56-2.057a3.552 3.552 0 0 0-1.51-1.364c-.64-.325-1.39-.488-2.25-.488-.87 0-1.63.163-2.28.488-.65.319-1.16.773-1.51 1.364-.36.583-.53 1.269-.53 2.057 0 .803.18 1.503.54 2.102.37.599.88 1.064 1.53 1.398.65.333 1.4.5 2.25.5Z"/>
    <rect width="770" height="121" x="335" y="340" fill="#D9D9D9" rx="38"/>
    <path fill="#000" d="M536.904 388h-4.227c-.25-1.216-.688-2.284-1.313-3.205a8.727 8.727 0 0 0-2.25-2.318 9.576 9.576 0 0 0-2.914-1.432 11.652 11.652 0 0 0-3.341-.477c-2.114 0-4.029.534-5.745 1.602-1.704 1.069-3.062 2.642-4.074 4.722-1 2.08-1.5 4.631-1.5 7.653 0 3.023.5 5.574 1.5 7.654 1.012 2.079 2.37 3.653 4.074 4.721 1.716 1.069 3.631 1.603 5.745 1.603 1.159 0 2.272-.159 3.341-.478a9.768 9.768 0 0 0 2.914-1.414 8.965 8.965 0 0 0 2.25-2.336c.625-.931 1.063-2 1.313-3.204h4.227c-.318 1.784-.898 3.381-1.739 4.79a13.065 13.065 0 0 1-3.136 3.596 13.709 13.709 0 0 1-4.21 2.233c-1.546.512-3.199.767-4.96.767-2.978 0-5.625-.727-7.944-2.182-2.318-1.454-4.142-3.522-5.471-6.204-1.33-2.682-1.994-5.864-1.994-9.546 0-3.681.664-6.863 1.994-9.545 1.329-2.682 3.153-4.75 5.471-6.205 2.319-1.454 4.966-2.181 7.944-2.181 1.761 0 3.414.255 4.96.767a13.519 13.519 0 0 1 4.21 2.25c1.25.977 2.296 2.17 3.136 3.579.841 1.398 1.421 2.995 1.739 4.79Zm16.922 24.545c-2.364 0-4.438-.562-6.222-1.687-1.772-1.125-3.159-2.699-4.159-4.722-.988-2.022-1.483-4.386-1.483-7.091 0-2.727.495-5.108 1.483-7.142 1-2.034 2.387-3.613 4.159-4.738 1.784-1.125 3.858-1.688 6.222-1.688 2.364 0 4.432.563 6.205 1.688 1.784 1.125 3.17 2.704 4.159 4.738 1 2.034 1.5 4.415 1.5 7.142 0 2.705-.5 5.069-1.5 7.091-.989 2.023-2.375 3.597-4.159 4.722-1.773 1.125-3.841 1.687-6.205 1.687Zm0-3.613c1.795 0 3.273-.46 4.432-1.381 1.159-.92 2.017-2.131 2.574-3.631.556-1.5.835-3.125.835-4.875s-.279-3.38-.835-4.892c-.557-1.511-1.415-2.733-2.574-3.664-1.159-.932-2.637-1.398-4.432-1.398-1.795 0-3.273.466-4.432 1.398-1.159.931-2.017 2.153-2.574 3.664-.557 1.512-.835 3.142-.835 4.892 0 1.75.278 3.375.835 4.875.557 1.5 1.415 2.711 2.574 3.631 1.159.921 2.637 1.381 4.432 1.381Zm18.004 12.886v-36h3.887v4.159h.477c.295-.454.704-1.034 1.227-1.738.534-.716 1.296-1.353 2.284-1.909 1-.569 2.353-.853 4.057-.853 2.205 0 4.148.551 5.83 1.654 1.681 1.102 2.994 2.664 3.937 4.687.943 2.023 1.415 4.409 1.415 7.159 0 2.773-.472 5.176-1.415 7.211-.943 2.022-2.25 3.59-3.92 4.704-1.671 1.102-3.597 1.653-5.779 1.653-1.682 0-3.028-.278-4.04-.835-1.011-.568-1.789-1.21-2.335-1.926a25.538 25.538 0 0 1-1.261-1.807h-.341v13.841h-4.023Zm3.955-22.909c0 1.977.29 3.722.869 5.233.58 1.5 1.426 2.676 2.54 3.528 1.114.841 2.477 1.262 4.091 1.262 1.682 0 3.085-.443 4.21-1.33 1.136-.897 1.989-2.102 2.557-3.613.579-1.523.869-3.216.869-5.08 0-1.841-.284-3.5-.852-4.977-.557-1.489-1.404-2.665-2.54-3.529-1.125-.875-2.54-1.312-4.244-1.312-1.637 0-3.012.415-4.125 1.244-1.114.818-1.955 1.966-2.523 3.443-.568 1.466-.852 3.177-.852 5.131Zm36.273 13.636c-2.523 0-4.699-.556-6.529-1.67-1.818-1.125-3.221-2.693-4.21-4.705-.977-2.022-1.466-4.375-1.466-7.056 0-2.682.489-5.046 1.466-7.091.989-2.057 2.364-3.659 4.125-4.807 1.773-1.159 3.841-1.739 6.204-1.739 1.364 0 2.711.228 4.04.682 1.33.455 2.54 1.193 3.631 2.216 1.091 1.011 1.96 2.352 2.608 4.023.648 1.67.971 3.727.971 6.17v1.705h-20.181v-3.478h16.091c0-1.477-.296-2.795-.887-3.954a6.675 6.675 0 0 0-2.488-2.744c-1.069-.671-2.33-1.006-3.785-1.006-1.602 0-2.988.398-4.159 1.193a7.85 7.85 0 0 0-2.676 3.068 9.016 9.016 0 0 0-.937 4.057v2.318c0 1.978.341 3.654 1.022 5.029.694 1.363 1.654 2.403 2.881 3.119 1.227.705 2.654 1.057 4.279 1.057 1.056 0 2.011-.148 2.863-.443a6.134 6.134 0 0 0 2.233-1.364c.625-.614 1.108-1.375 1.449-2.284l3.886 1.091a8.614 8.614 0 0 1-2.062 3.477c-.966.989-2.159 1.761-3.58 2.318-1.42.546-3.017.818-4.789.818Zm16.96-.545v-26.182h10.704c2.818 0 5.057.637 6.716 1.909 1.659 1.273 2.489 2.955 2.489 5.046 0 1.591-.472 2.824-1.415 3.699-.943.863-2.153 1.448-3.631 1.755.966.137 1.904.478 2.813 1.023a6.745 6.745 0 0 1 2.284 2.25c.602.943.903 2.102.903 3.477 0 1.341-.341 2.54-1.022 3.597-.682 1.057-1.659 1.892-2.932 2.506-1.273.613-2.796.92-4.568.92h-12.341Zm3.818-3.682h8.523c1.386 0 2.471-.329 3.255-.988.784-.66 1.176-1.557 1.176-2.694 0-1.352-.392-2.414-1.176-3.187-.784-.784-1.869-1.176-3.255-1.176h-8.523v8.045Zm0-11.523h6.886c1.08 0 2.006-.147 2.779-.443.772-.307 1.363-.738 1.772-1.295.421-.568.631-1.239.631-2.012 0-1.102-.46-1.965-1.381-2.59-.92-.637-2.187-.955-3.801-.955h-6.886v7.295Zm40.658.273v3.75h-14.455v-3.75h14.455Zm-13.5-11.25V412h-4.023v-26.182h4.023Zm16.568 0V412h-4.023v-26.182h4.023Zm17.983 26.727c-2.364 0-4.438-.562-6.222-1.687-1.773-1.125-3.159-2.699-4.159-4.722-.989-2.022-1.483-4.386-1.483-7.091 0-2.727.494-5.108 1.483-7.142 1-2.034 2.386-3.613 4.159-4.738 1.784-1.125 3.858-1.688 6.222-1.688 2.363 0 4.432.563 6.204 1.688 1.784 1.125 3.171 2.704 4.159 4.738 1 2.034 1.5 4.415 1.5 7.142 0 2.705-.5 5.069-1.5 7.091-.988 2.023-2.375 3.597-4.159 4.722-1.772 1.125-3.841 1.687-6.204 1.687Zm0-3.613c1.795 0 3.272-.46 4.432-1.381 1.159-.92 2.017-2.131 2.573-3.631.557-1.5.836-3.125.836-4.875s-.279-3.38-.836-4.892c-.556-1.511-1.414-2.733-2.573-3.664-1.16-.932-2.637-1.398-4.432-1.398-1.796 0-3.273.466-4.432 1.398-1.159.931-2.017 2.153-2.574 3.664-.557 1.512-.835 3.142-.835 4.892 0 1.75.278 3.375.835 4.875.557 1.5 1.415 2.711 2.574 3.631 1.159.921 2.636 1.381 4.432 1.381ZM712.549 412v-26.182h10.705c2.818 0 5.056.637 6.715 1.909 1.66 1.273 2.489 2.955 2.489 5.046 0 1.591-.471 2.824-1.415 3.699-.943.863-2.153 1.448-3.63 1.755.966.137 1.903.478 2.812 1.023.921.545 1.682 1.295 2.284 2.25.603.943.904 2.102.904 3.477 0 1.341-.341 2.54-1.023 3.597-.682 1.057-1.659 1.892-2.932 2.506-1.273.613-2.795.92-4.568.92h-12.341Zm3.818-3.682h8.523c1.386 0 2.472-.329 3.256-.988.784-.66 1.176-1.557 1.176-2.694 0-1.352-.392-2.414-1.176-3.187-.784-.784-1.87-1.176-3.256-1.176h-8.523v8.045Zm0-11.523h6.887c1.079 0 2.005-.147 2.778-.443.773-.307 1.364-.738 1.773-1.295.42-.568.63-1.239.63-2.012 0-1.102-.46-1.965-1.38-2.59-.921-.637-2.188-.955-3.801-.955h-6.887v7.295Zm30.84 15.819c-1.659 0-3.165-.313-4.517-.938-1.353-.636-2.427-1.551-3.222-2.744-.795-1.205-1.193-2.659-1.193-4.364 0-1.5.295-2.716.886-3.648a6.255 6.255 0 0 1 2.37-2.215 12.432 12.432 0 0 1 3.272-1.194 40.084 40.084 0 0 1 3.631-.647c1.591-.205 2.881-.358 3.869-.461 1-.113 1.728-.301 2.182-.562.466-.261.699-.716.699-1.364v-.136c0-1.682-.46-2.989-1.381-3.921-.909-.931-2.29-1.397-4.142-1.397-1.92 0-3.426.42-4.517 1.261-1.091.841-1.858 1.739-2.301 2.693l-3.818-1.363c.682-1.591 1.591-2.83 2.727-3.716a10.217 10.217 0 0 1 3.75-1.875 15.56 15.56 0 0 1 4.023-.546c.841 0 1.807.103 2.898.307a9.284 9.284 0 0 1 3.187 1.21c1.034.614 1.892 1.54 2.574 2.779.682 1.238 1.023 2.897 1.023 4.977V412h-4.023v-3.545h-.205c-.272.568-.727 1.176-1.363 1.823-.637.648-1.483 1.199-2.54 1.654-1.057.454-2.347.682-3.869.682Zm.613-3.614c1.591 0 2.932-.312 4.023-.938 1.102-.624 1.932-1.431 2.489-2.42.568-.989.852-2.028.852-3.119v-3.682c-.171.204-.546.392-1.125.562-.568.159-1.227.302-1.977.427-.739.113-1.461.215-2.165.306-.693.08-1.256.148-1.688.205a15.324 15.324 0 0 0-2.931.665c-.898.295-1.625.744-2.182 1.346-.546.591-.818 1.398-.818 2.421 0 1.397.517 2.454 1.551 3.17 1.045.705 2.369 1.057 3.971 1.057Zm36.252-11.932v3.75h-14.455v-3.75h14.455Zm-13.5-11.25V412h-4.023v-26.182h4.023Zm16.568 0V412h-4.023v-26.182h4.023Zm11.369 20.25 12.614-20.25h4.636V412h-4.022v-20.25L799.191 412h-4.704v-26.182h4.022v20.25Zm35.595 6.477c-2.522 0-4.698-.556-6.528-1.67-1.818-1.125-3.222-2.693-4.21-4.705-.978-2.022-1.466-4.375-1.466-7.056 0-2.682.488-5.046 1.466-7.091.988-2.057 2.363-3.659 4.125-4.807 1.772-1.159 3.841-1.739 6.204-1.739 1.364 0 2.711.228 4.04.682 1.33.455 2.54 1.193 3.631 2.216 1.091 1.011 1.96 2.352 2.608 4.023.647 1.67.971 3.727.971 6.17v1.705h-20.182v-3.478h16.091c0-1.477-.295-2.795-.886-3.954a6.677 6.677 0 0 0-2.489-2.744c-1.068-.671-2.329-1.006-3.784-1.006-1.602 0-2.988.398-4.159 1.193a7.85 7.85 0 0 0-2.676 3.068 9.016 9.016 0 0 0-.937 4.057v2.318c0 1.978.34 3.654 1.022 5.029.693 1.363 1.654 2.403 2.881 3.119 1.227.705 2.653 1.057 4.278 1.057 1.057 0 2.012-.148 2.864-.443a6.134 6.134 0 0 0 2.233-1.364c.625-.614 1.108-1.375 1.449-2.284l3.886 1.091a8.614 8.614 0 0 1-2.062 3.477c-.966.989-2.159 1.761-3.58 2.318-1.42.546-3.017.818-4.79.818ZM865.11 412v-34.909h4.091l15.682 26.795h.341v-26.795h4.159V412h-4.091l-15.614-26.591h-.341V412h-4.227Zm28.568-10.568v-3.477h14.864v3.477h-14.864Zm7.432-6.477c-1.682 0-3.136-.336-4.364-1.006a7.097 7.097 0 0 1-2.829-2.813c-.659-1.204-.989-2.613-.989-4.227v-2.318c0-1.614.33-3.023.989-4.227a6.98 6.98 0 0 1 2.812-2.813c1.216-.67 2.654-1.006 4.313-1.006 1.682 0 3.125.336 4.329 1.006a6.875 6.875 0 0 1 2.796 2.813c.659 1.204.989 2.613.989 4.227v2.318c0 1.614-.324 3.023-.972 4.227a6.904 6.904 0 0 1-2.778 2.813c-1.205.67-2.637 1.006-4.296 1.006Zm0-3.41c1.33 0 2.318-.42 2.966-1.261.659-.852.989-1.977.989-3.375v-2.318c0-1.364-.33-2.466-.989-3.307-.659-.841-1.67-1.261-3.034-1.261-1.364 0-2.375.42-3.034 1.261-.659.841-.989 1.943-.989 3.307v2.318c0 1.398.33 2.523.989 3.375.67.841 1.704 1.261 3.102 1.261Zm27.878-14.454V412h-4.227v-30.477h-.205l-8.523 5.659v-4.296l8.728-5.795h4.227Z"/>
    <rect width="770" height="121" x="335" y="511" fill="#D9D9D9" rx="38"/>
    <path fill="#000" d="M533.529 559h-4.227c-.25-1.216-.688-2.284-1.313-3.205a8.727 8.727 0 0 0-2.25-2.318 9.576 9.576 0 0 0-2.914-1.432 11.652 11.652 0 0 0-3.341-.477c-2.114 0-4.029.534-5.745 1.602-1.704 1.069-3.062 2.642-4.074 4.722-1 2.08-1.5 4.631-1.5 7.653 0 3.023.5 5.574 1.5 7.654 1.012 2.079 2.37 3.653 4.074 4.721 1.716 1.069 3.631 1.603 5.745 1.603 1.159 0 2.272-.159 3.341-.478a9.768 9.768 0 0 0 2.914-1.414 8.965 8.965 0 0 0 2.25-2.336c.625-.931 1.063-2 1.313-3.204h4.227c-.318 1.784-.898 3.381-1.739 4.79a13.065 13.065 0 0 1-3.136 3.596 13.709 13.709 0 0 1-4.21 2.233c-1.546.512-3.199.767-4.96.767-2.978 0-5.625-.727-7.944-2.182-2.318-1.454-4.142-3.522-5.471-6.204-1.33-2.682-1.994-5.864-1.994-9.546 0-3.681.664-6.863 1.994-9.545 1.329-2.682 3.153-4.75 5.471-6.205 2.319-1.454 4.966-2.181 7.944-2.181 1.761 0 3.414.255 4.96.767a13.519 13.519 0 0 1 4.21 2.25c1.25.977 2.296 2.17 3.136 3.579.841 1.398 1.421 2.995 1.739 4.79Zm16.922 24.545c-2.364 0-4.438-.562-6.222-1.687-1.772-1.125-3.159-2.699-4.159-4.722-.988-2.022-1.483-4.386-1.483-7.091 0-2.727.495-5.108 1.483-7.142 1-2.034 2.387-3.613 4.159-4.738 1.784-1.125 3.858-1.688 6.222-1.688 2.364 0 4.432.563 6.205 1.688 1.784 1.125 3.17 2.704 4.159 4.738 1 2.034 1.5 4.415 1.5 7.142 0 2.705-.5 5.069-1.5 7.091-.989 2.023-2.375 3.597-4.159 4.722-1.773 1.125-3.841 1.687-6.205 1.687Zm0-3.613c1.795 0 3.273-.46 4.432-1.381 1.159-.92 2.017-2.131 2.574-3.631.556-1.5.835-3.125.835-4.875s-.279-3.38-.835-4.892c-.557-1.511-1.415-2.733-2.574-3.664-1.159-.932-2.637-1.398-4.432-1.398-1.795 0-3.273.466-4.432 1.398-1.159.931-2.017 2.153-2.574 3.664-.557 1.512-.835 3.142-.835 4.892 0 1.75.278 3.375.835 4.875.557 1.5 1.415 2.711 2.574 3.631 1.159.921 2.637 1.381 4.432 1.381Zm18.004 12.886v-36h3.887v4.159h.477c.295-.454.704-1.034 1.227-1.738.534-.716 1.296-1.353 2.284-1.909 1-.569 2.353-.853 4.057-.853 2.205 0 4.148.551 5.83 1.654 1.681 1.102 2.994 2.664 3.937 4.687.943 2.023 1.415 4.409 1.415 7.159 0 2.773-.472 5.176-1.415 7.211-.943 2.022-2.25 3.59-3.92 4.704-1.671 1.102-3.597 1.653-5.779 1.653-1.682 0-3.028-.278-4.04-.835-1.011-.568-1.789-1.21-2.335-1.926a25.538 25.538 0 0 1-1.261-1.807h-.341v13.841h-4.023Zm3.955-22.909c0 1.977.29 3.722.869 5.233.58 1.5 1.426 2.676 2.54 3.528 1.114.841 2.477 1.262 4.091 1.262 1.682 0 3.085-.443 4.21-1.33 1.136-.897 1.989-2.102 2.557-3.613.579-1.523.869-3.216.869-5.08 0-1.841-.284-3.5-.852-4.977-.557-1.489-1.404-2.665-2.54-3.529-1.125-.875-2.54-1.312-4.244-1.312-1.637 0-3.012.415-4.125 1.244-1.114.818-1.955 1.966-2.523 3.443-.568 1.466-.852 3.177-.852 5.131Zm36.273 13.636c-2.523 0-4.699-.556-6.529-1.67-1.818-1.125-3.221-2.693-4.21-4.705-.977-2.022-1.466-4.375-1.466-7.056 0-2.682.489-5.046 1.466-7.091.989-2.057 2.364-3.659 4.125-4.807 1.773-1.159 3.841-1.739 6.204-1.739 1.364 0 2.711.228 4.04.682 1.33.455 2.54 1.193 3.631 2.216 1.091 1.011 1.96 2.352 2.608 4.023.648 1.67.971 3.727.971 6.17v1.705h-20.181v-3.478h16.091c0-1.477-.296-2.795-.887-3.954a6.675 6.675 0 0 0-2.488-2.744c-1.069-.671-2.33-1.006-3.785-1.006-1.602 0-2.988.398-4.159 1.193a7.85 7.85 0 0 0-2.676 3.068 9.016 9.016 0 0 0-.937 4.057v2.318c0 1.978.341 3.654 1.022 5.029.694 1.363 1.654 2.403 2.881 3.119 1.227.705 2.654 1.057 4.279 1.057 1.056 0 2.011-.148 2.863-.443a6.134 6.134 0 0 0 2.233-1.364c.625-.614 1.108-1.375 1.449-2.284l3.886 1.091a8.614 8.614 0 0 1-2.062 3.477c-.966.989-2.159 1.761-3.58 2.318-1.42.546-3.017.818-4.789.818Zm16.96-.545v-26.182h10.704c2.818 0 5.057.637 6.716 1.909 1.659 1.273 2.489 2.955 2.489 5.046 0 1.591-.472 2.824-1.415 3.699-.943.863-2.153 1.448-3.631 1.755.966.137 1.904.478 2.813 1.023a6.745 6.745 0 0 1 2.284 2.25c.602.943.903 2.102.903 3.477 0 1.341-.341 2.54-1.022 3.597-.682 1.057-1.659 1.892-2.932 2.506-1.273.613-2.796.92-4.568.92h-12.341Zm3.818-3.682h8.523c1.386 0 2.471-.329 3.255-.988.784-.66 1.176-1.557 1.176-2.694 0-1.352-.392-2.414-1.176-3.187-.784-.784-1.869-1.176-3.255-1.176h-8.523v8.045Zm0-11.523h6.886c1.08 0 2.006-.147 2.779-.443.772-.307 1.363-.738 1.772-1.295.421-.568.631-1.239.631-2.012 0-1.102-.46-1.965-1.381-2.59-.92-.637-2.187-.955-3.801-.955h-6.886v7.295Zm40.658.273v3.75h-14.455v-3.75h14.455Zm-13.5-11.25V583h-4.023v-26.182h4.023Zm16.568 0V583h-4.023v-26.182h4.023Zm17.983 26.727c-2.364 0-4.438-.562-6.222-1.687-1.773-1.125-3.159-2.699-4.159-4.722-.989-2.022-1.483-4.386-1.483-7.091 0-2.727.494-5.108 1.483-7.142 1-2.034 2.386-3.613 4.159-4.738 1.784-1.125 3.858-1.688 6.222-1.688 2.363 0 4.432.563 6.204 1.688 1.784 1.125 3.171 2.704 4.159 4.738 1 2.034 1.5 4.415 1.5 7.142 0 2.705-.5 5.069-1.5 7.091-.988 2.023-2.375 3.597-4.159 4.722-1.772 1.125-3.841 1.687-6.204 1.687Zm0-3.613c1.795 0 3.272-.46 4.432-1.381 1.159-.92 2.017-2.131 2.573-3.631.557-1.5.836-3.125.836-4.875s-.279-3.38-.836-4.892c-.556-1.511-1.414-2.733-2.573-3.664-1.16-.932-2.637-1.398-4.432-1.398-1.796 0-3.273.466-4.432 1.398-1.159.931-2.017 2.153-2.574 3.664-.557 1.512-.835 3.142-.835 4.892 0 1.75.278 3.375.835 4.875.557 1.5 1.415 2.711 2.574 3.631 1.159.921 2.636 1.381 4.432 1.381ZM709.174 583v-26.182h10.705c2.818 0 5.056.637 6.715 1.909 1.66 1.273 2.489 2.955 2.489 5.046 0 1.591-.471 2.824-1.415 3.699-.943.863-2.153 1.448-3.63 1.755.966.137 1.903.478 2.812 1.023.921.545 1.682 1.295 2.284 2.25.603.943.904 2.102.904 3.477 0 1.341-.341 2.54-1.023 3.597-.682 1.057-1.659 1.892-2.932 2.506-1.273.613-2.795.92-4.568.92h-12.341Zm3.818-3.682h8.523c1.386 0 2.472-.329 3.256-.988.784-.66 1.176-1.557 1.176-2.694 0-1.352-.392-2.414-1.176-3.187-.784-.784-1.87-1.176-3.256-1.176h-8.523v8.045Zm0-11.523h6.887c1.079 0 2.005-.147 2.778-.443.773-.307 1.364-.738 1.773-1.295.42-.568.63-1.239.63-2.012 0-1.102-.46-1.965-1.38-2.59-.921-.637-2.188-.955-3.801-.955h-6.887v7.295Zm30.84 15.819c-1.659 0-3.165-.313-4.517-.938-1.353-.636-2.427-1.551-3.222-2.744-.795-1.205-1.193-2.659-1.193-4.364 0-1.5.295-2.716.886-3.648a6.255 6.255 0 0 1 2.37-2.215 12.432 12.432 0 0 1 3.272-1.194 40.084 40.084 0 0 1 3.631-.647c1.591-.205 2.881-.358 3.869-.461 1-.113 1.728-.301 2.182-.562.466-.261.699-.716.699-1.364v-.136c0-1.682-.46-2.989-1.381-3.921-.909-.931-2.29-1.397-4.142-1.397-1.92 0-3.426.42-4.517 1.261-1.091.841-1.858 1.739-2.301 2.693l-3.818-1.363c.682-1.591 1.591-2.83 2.727-3.716a10.217 10.217 0 0 1 3.75-1.875 15.56 15.56 0 0 1 4.023-.546c.841 0 1.807.103 2.898.307a9.284 9.284 0 0 1 3.187 1.21c1.034.614 1.892 1.54 2.574 2.779.682 1.238 1.023 2.897 1.023 4.977V583h-4.023v-3.545h-.205c-.272.568-.727 1.176-1.363 1.823-.637.648-1.483 1.199-2.54 1.654-1.057.454-2.347.682-3.869.682Zm.613-3.614c1.591 0 2.932-.312 4.023-.938 1.102-.624 1.932-1.431 2.489-2.42.568-.989.852-2.028.852-3.119v-3.682c-.171.204-.546.392-1.125.562-.568.159-1.227.302-1.977.427-.739.113-1.461.215-2.165.306-.693.08-1.256.148-1.688.205a15.324 15.324 0 0 0-2.931.665c-.898.295-1.625.744-2.182 1.346-.546.591-.818 1.398-.818 2.421 0 1.397.517 2.454 1.551 3.17 1.045.705 2.369 1.057 3.971 1.057Zm36.252-11.932v3.75h-14.455v-3.75h14.455Zm-13.5-11.25V583h-4.023v-26.182h4.023Zm16.568 0V583h-4.023v-26.182h4.023Zm11.369 20.25 12.614-20.25h4.636V583h-4.022v-20.25L795.816 583h-4.704v-26.182h4.022v20.25Zm35.595 6.477c-2.522 0-4.698-.556-6.528-1.67-1.818-1.125-3.222-2.693-4.21-4.705-.978-2.022-1.466-4.375-1.466-7.056 0-2.682.488-5.046 1.466-7.091.988-2.057 2.363-3.659 4.125-4.807 1.772-1.159 3.841-1.739 6.204-1.739 1.364 0 2.711.228 4.04.682 1.33.455 2.54 1.193 3.631 2.216 1.091 1.011 1.96 2.352 2.608 4.023.647 1.67.971 3.727.971 6.17v1.705h-20.182v-3.478h16.091c0-1.477-.295-2.795-.886-3.954a6.677 6.677 0 0 0-2.489-2.744c-1.068-.671-2.329-1.006-3.784-1.006-1.602 0-2.988.398-4.159 1.193a7.85 7.85 0 0 0-2.676 3.068 9.016 9.016 0 0 0-.937 4.057v2.318c0 1.978.34 3.654 1.022 5.029.693 1.363 1.654 2.403 2.881 3.119 1.227.705 2.653 1.057 4.278 1.057 1.057 0 2.012-.148 2.864-.443a6.134 6.134 0 0 0 2.233-1.364c.625-.614 1.108-1.375 1.449-2.284l3.886 1.091a8.614 8.614 0 0 1-2.062 3.477c-.966.989-2.159 1.761-3.58 2.318-1.42.546-3.017.818-4.79.818Zm31.006-.545v-34.909h4.091l15.682 26.795h.341v-26.795h4.159V583h-4.091l-15.614-26.591h-.341V583h-4.227Zm28.568-10.568v-3.477h14.864v3.477h-14.864Zm7.432-6.477c-1.682 0-3.136-.336-4.364-1.006a7.097 7.097 0 0 1-2.829-2.813c-.659-1.204-.989-2.613-.989-4.227v-2.318c0-1.614.33-3.023.989-4.227a6.98 6.98 0 0 1 2.812-2.813c1.216-.67 2.654-1.006 4.313-1.006 1.682 0 3.125.336 4.329 1.006a6.875 6.875 0 0 1 2.796 2.813c.659 1.204.989 2.613.989 4.227v2.318c0 1.614-.324 3.023-.972 4.227a6.904 6.904 0 0 1-2.778 2.813c-1.205.67-2.637 1.006-4.296 1.006Zm0-3.41c1.33 0 2.318-.42 2.966-1.261.659-.852.989-1.977.989-3.375v-2.318c0-1.364-.33-2.466-.989-3.307-.659-.841-1.67-1.261-3.034-1.261-1.364 0-2.375.42-3.034 1.261-.659.841-.989 1.943-.989 3.307v2.318c0 1.398.33 2.523.989 3.375.67.841 1.704 1.261 3.102 1.261ZM913.34 583v-3.068l11.523-12.614c1.352-1.477 2.466-2.761 3.341-3.852.875-1.102 1.523-2.136 1.943-3.102.432-.978.648-2 .648-3.069 0-1.227-.296-2.289-.887-3.187-.579-.898-1.375-1.591-2.386-2.08-1.011-.488-2.148-.733-3.409-.733-1.341 0-2.511.279-3.511.836a5.748 5.748 0 0 0-2.302 2.301c-.534.988-.801 2.148-.801 3.477h-4.022c0-2.045.471-3.841 1.414-5.386a9.837 9.837 0 0 1 3.853-3.614c1.636-.864 3.471-1.295 5.505-1.295 2.046 0 3.858.431 5.438 1.295 1.579.864 2.818 2.028 3.716 3.494.897 1.466 1.346 3.097 1.346 4.892 0 1.285-.233 2.54-.699 3.767-.454 1.216-1.25 2.574-2.386 4.074-1.125 1.489-2.687 3.307-4.687 5.455l-7.841 8.386v.273h16.227V583H913.34Z"/>
    <rect width="770" height="121" x="335" y="696" fill="#D9D9D9" rx="38"/>
    <path fill="#000" d="M532.779 744h-4.227c-.25-1.216-.688-2.284-1.313-3.205a8.727 8.727 0 0 0-2.25-2.318 9.576 9.576 0 0 0-2.914-1.432 11.652 11.652 0 0 0-3.341-.477c-2.114 0-4.029.534-5.745 1.602-1.704 1.069-3.062 2.642-4.074 4.722-1 2.08-1.5 4.631-1.5 7.653 0 3.023.5 5.574 1.5 7.654 1.012 2.079 2.37 3.653 4.074 4.721 1.716 1.069 3.631 1.603 5.745 1.603 1.159 0 2.272-.159 3.341-.478a9.768 9.768 0 0 0 2.914-1.414 8.965 8.965 0 0 0 2.25-2.336c.625-.931 1.063-2 1.313-3.204h4.227c-.318 1.784-.898 3.381-1.739 4.79a13.065 13.065 0 0 1-3.136 3.596 13.709 13.709 0 0 1-4.21 2.233c-1.546.512-3.199.767-4.96.767-2.978 0-5.625-.727-7.944-2.182-2.318-1.454-4.142-3.522-5.471-6.204-1.33-2.682-1.994-5.864-1.994-9.546 0-3.681.664-6.863 1.994-9.545 1.329-2.682 3.153-4.75 5.471-6.205 2.319-1.454 4.966-2.181 7.944-2.181 1.761 0 3.414.255 4.96.767a13.519 13.519 0 0 1 4.21 2.25c1.25.977 2.296 2.17 3.136 3.579.841 1.398 1.421 2.995 1.739 4.79Zm16.922 24.545c-2.364 0-4.438-.562-6.222-1.687-1.772-1.125-3.159-2.699-4.159-4.722-.988-2.022-1.483-4.386-1.483-7.091 0-2.727.495-5.108 1.483-7.142 1-2.034 2.387-3.613 4.159-4.738 1.784-1.125 3.858-1.688 6.222-1.688 2.364 0 4.432.563 6.205 1.688 1.784 1.125 3.17 2.704 4.159 4.738 1 2.034 1.5 4.415 1.5 7.142 0 2.705-.5 5.069-1.5 7.091-.989 2.023-2.375 3.597-4.159 4.722-1.773 1.125-3.841 1.687-6.205 1.687Zm0-3.613c1.795 0 3.273-.46 4.432-1.381 1.159-.92 2.017-2.131 2.574-3.631.556-1.5.835-3.125.835-4.875s-.279-3.38-.835-4.892c-.557-1.511-1.415-2.733-2.574-3.664-1.159-.932-2.637-1.398-4.432-1.398-1.795 0-3.273.466-4.432 1.398-1.159.931-2.017 2.153-2.574 3.664-.557 1.512-.835 3.142-.835 4.892 0 1.75.278 3.375.835 4.875.557 1.5 1.415 2.711 2.574 3.631 1.159.921 2.637 1.381 4.432 1.381Zm18.004 12.886v-36h3.887v4.159h.477c.295-.454.704-1.034 1.227-1.738.534-.716 1.296-1.353 2.284-1.909 1-.569 2.353-.853 4.057-.853 2.205 0 4.148.551 5.83 1.654 1.681 1.102 2.994 2.664 3.937 4.687.943 2.023 1.415 4.409 1.415 7.159 0 2.773-.472 5.176-1.415 7.211-.943 2.022-2.25 3.59-3.92 4.704-1.671 1.102-3.597 1.653-5.779 1.653-1.682 0-3.028-.278-4.04-.835-1.011-.568-1.789-1.21-2.335-1.926a25.538 25.538 0 0 1-1.261-1.807h-.341v13.841h-4.023Zm3.955-22.909c0 1.977.29 3.722.869 5.233.58 1.5 1.426 2.676 2.54 3.528 1.114.841 2.477 1.262 4.091 1.262 1.682 0 3.085-.443 4.21-1.33 1.136-.897 1.989-2.102 2.557-3.613.579-1.523.869-3.216.869-5.08 0-1.841-.284-3.5-.852-4.977-.557-1.489-1.404-2.665-2.54-3.529-1.125-.875-2.54-1.312-4.244-1.312-1.637 0-3.012.415-4.125 1.244-1.114.818-1.955 1.966-2.523 3.443-.568 1.466-.852 3.177-.852 5.131Zm36.273 13.636c-2.523 0-4.699-.556-6.529-1.67-1.818-1.125-3.221-2.693-4.21-4.705-.977-2.022-1.466-4.375-1.466-7.056 0-2.682.489-5.046 1.466-7.091.989-2.057 2.364-3.659 4.125-4.807 1.773-1.159 3.841-1.739 6.204-1.739 1.364 0 2.711.228 4.04.682 1.33.455 2.54 1.193 3.631 2.216 1.091 1.011 1.96 2.352 2.608 4.023.648 1.67.971 3.727.971 6.17v1.705h-20.181v-3.478h16.091c0-1.477-.296-2.795-.887-3.954a6.675 6.675 0 0 0-2.488-2.744c-1.069-.671-2.33-1.006-3.785-1.006-1.602 0-2.988.398-4.159 1.193a7.85 7.85 0 0 0-2.676 3.068 9.016 9.016 0 0 0-.937 4.057v2.318c0 1.978.341 3.654 1.022 5.029.694 1.363 1.654 2.403 2.881 3.119 1.227.705 2.654 1.057 4.279 1.057 1.056 0 2.011-.148 2.863-.443a6.134 6.134 0 0 0 2.233-1.364c.625-.614 1.108-1.375 1.449-2.284l3.886 1.091a8.614 8.614 0 0 1-2.062 3.477c-.966.989-2.159 1.761-3.58 2.318-1.42.546-3.017.818-4.789.818Zm16.96-.545v-26.182h10.704c2.818 0 5.057.637 6.716 1.909 1.659 1.273 2.489 2.955 2.489 5.046 0 1.591-.472 2.824-1.415 3.699-.943.863-2.153 1.448-3.631 1.755.966.137 1.904.478 2.813 1.023a6.745 6.745 0 0 1 2.284 2.25c.602.943.903 2.102.903 3.477 0 1.341-.341 2.54-1.022 3.597-.682 1.057-1.659 1.892-2.932 2.506-1.273.613-2.796.92-4.568.92h-12.341Zm3.818-3.682h8.523c1.386 0 2.471-.329 3.255-.988.784-.66 1.176-1.557 1.176-2.694 0-1.352-.392-2.414-1.176-3.187-.784-.784-1.869-1.176-3.255-1.176h-8.523v8.045Zm0-11.523h6.886c1.08 0 2.006-.147 2.779-.443.772-.307 1.363-.738 1.772-1.295.421-.568.631-1.239.631-2.012 0-1.102-.46-1.965-1.381-2.59-.92-.637-2.187-.955-3.801-.955h-6.886v7.295Zm40.658.273v3.75h-14.455v-3.75h14.455Zm-13.5-11.25V768h-4.023v-26.182h4.023Zm16.568 0V768h-4.023v-26.182h4.023Zm17.983 26.727c-2.364 0-4.438-.562-6.222-1.687-1.773-1.125-3.159-2.699-4.159-4.722-.989-2.022-1.483-4.386-1.483-7.091 0-2.727.494-5.108 1.483-7.142 1-2.034 2.386-3.613 4.159-4.738 1.784-1.125 3.858-1.688 6.222-1.688 2.363 0 4.432.563 6.204 1.688 1.784 1.125 3.171 2.704 4.159 4.738 1 2.034 1.5 4.415 1.5 7.142 0 2.705-.5 5.069-1.5 7.091-.988 2.023-2.375 3.597-4.159 4.722-1.772 1.125-3.841 1.687-6.204 1.687Zm0-3.613c1.795 0 3.272-.46 4.432-1.381 1.159-.92 2.017-2.131 2.573-3.631.557-1.5.836-3.125.836-4.875s-.279-3.38-.836-4.892c-.556-1.511-1.414-2.733-2.573-3.664-1.16-.932-2.637-1.398-4.432-1.398-1.796 0-3.273.466-4.432 1.398-1.159.931-2.017 2.153-2.574 3.664-.557 1.512-.835 3.142-.835 4.892 0 1.75.278 3.375.835 4.875.557 1.5 1.415 2.711 2.574 3.631 1.159.921 2.636 1.381 4.432 1.381ZM708.424 768v-26.182h10.705c2.818 0 5.056.637 6.715 1.909 1.66 1.273 2.489 2.955 2.489 5.046 0 1.591-.471 2.824-1.415 3.699-.943.863-2.153 1.448-3.63 1.755.966.137 1.903.478 2.812 1.023.921.545 1.682 1.295 2.284 2.25.603.943.904 2.102.904 3.477 0 1.341-.341 2.54-1.023 3.597-.682 1.057-1.659 1.892-2.932 2.506-1.273.613-2.795.92-4.568.92h-12.341Zm3.818-3.682h8.523c1.386 0 2.472-.329 3.256-.988.784-.66 1.176-1.557 1.176-2.694 0-1.352-.392-2.414-1.176-3.187-.784-.784-1.87-1.176-3.256-1.176h-8.523v8.045Zm0-11.523h6.887c1.079 0 2.005-.147 2.778-.443.773-.307 1.364-.738 1.773-1.295.42-.568.63-1.239.63-2.012 0-1.102-.46-1.965-1.38-2.59-.921-.637-2.188-.955-3.801-.955h-6.887v7.295Zm30.84 15.819c-1.659 0-3.165-.313-4.517-.938-1.353-.636-2.427-1.551-3.222-2.744-.795-1.205-1.193-2.659-1.193-4.364 0-1.5.295-2.716.886-3.648a6.255 6.255 0 0 1 2.37-2.215 12.432 12.432 0 0 1 3.272-1.194 40.084 40.084 0 0 1 3.631-.647c1.591-.205 2.881-.358 3.869-.461 1-.113 1.728-.301 2.182-.562.466-.261.699-.716.699-1.364v-.136c0-1.682-.46-2.989-1.381-3.921-.909-.931-2.29-1.397-4.142-1.397-1.92 0-3.426.42-4.517 1.261-1.091.841-1.858 1.739-2.301 2.693l-3.818-1.363c.682-1.591 1.591-2.83 2.727-3.716a10.217 10.217 0 0 1 3.75-1.875 15.56 15.56 0 0 1 4.023-.546c.841 0 1.807.103 2.898.307a9.284 9.284 0 0 1 3.187 1.21c1.034.614 1.892 1.54 2.574 2.779.682 1.238 1.023 2.897 1.023 4.977V768h-4.023v-3.545h-.205c-.272.568-.727 1.176-1.363 1.823-.637.648-1.483 1.199-2.54 1.654-1.057.454-2.347.682-3.869.682Zm.613-3.614c1.591 0 2.932-.312 4.023-.938 1.102-.624 1.932-1.431 2.489-2.42.568-.989.852-2.028.852-3.119v-3.682c-.171.204-.546.392-1.125.562-.568.159-1.227.302-1.977.427-.739.113-1.461.215-2.165.306-.693.08-1.256.148-1.688.205a15.324 15.324 0 0 0-2.931.665c-.898.295-1.625.744-2.182 1.346-.546.591-.818 1.398-.818 2.421 0 1.397.517 2.454 1.551 3.17 1.045.705 2.369 1.057 3.971 1.057Zm36.252-11.932v3.75h-14.455v-3.75h14.455Zm-13.5-11.25V768h-4.023v-26.182h4.023Zm16.568 0V768h-4.023v-26.182h4.023Zm11.369 20.25 12.614-20.25h4.636V768h-4.022v-20.25L795.066 768h-4.704v-26.182h4.022v20.25Zm35.595 6.477c-2.522 0-4.698-.556-6.528-1.67-1.818-1.125-3.222-2.693-4.21-4.705-.978-2.022-1.466-4.375-1.466-7.056 0-2.682.488-5.046 1.466-7.091.988-2.057 2.363-3.659 4.125-4.807 1.772-1.159 3.841-1.739 6.204-1.739 1.364 0 2.711.228 4.04.682 1.33.455 2.54 1.193 3.631 2.216 1.091 1.011 1.96 2.352 2.608 4.023.647 1.67.971 3.727.971 6.17v1.705h-20.182v-3.478h16.091c0-1.477-.295-2.795-.886-3.954a6.677 6.677 0 0 0-2.489-2.744c-1.068-.671-2.329-1.006-3.784-1.006-1.602 0-2.988.398-4.159 1.193a7.85 7.85 0 0 0-2.676 3.068 9.016 9.016 0 0 0-.937 4.057v2.318c0 1.978.34 3.654 1.022 5.029.693 1.363 1.654 2.403 2.881 3.119 1.227.705 2.653 1.057 4.278 1.057 1.057 0 2.012-.148 2.864-.443a6.134 6.134 0 0 0 2.233-1.364c.625-.614 1.108-1.375 1.449-2.284l3.886 1.091a8.614 8.614 0 0 1-2.062 3.477c-.966.989-2.159 1.761-3.58 2.318-1.42.546-3.017.818-4.79.818Zm31.006-.545v-34.909h4.091l15.682 26.795h.341v-26.795h4.159V768h-4.091l-15.614-26.591h-.341V768h-4.227Zm28.568-10.568v-3.477h14.864v3.477h-14.864Zm7.432-6.477c-1.682 0-3.136-.336-4.364-1.006a7.097 7.097 0 0 1-2.829-2.813c-.659-1.204-.989-2.613-.989-4.227v-2.318c0-1.614.33-3.023.989-4.227a6.98 6.98 0 0 1 2.812-2.813c1.216-.67 2.654-1.006 4.313-1.006 1.682 0 3.125.336 4.329 1.006a6.875 6.875 0 0 1 2.796 2.813c.659 1.204.989 2.613.989 4.227v2.318c0 1.614-.324 3.023-.972 4.227a6.904 6.904 0 0 1-2.778 2.813c-1.205.67-2.637 1.006-4.296 1.006Zm0-3.41c1.33 0 2.318-.42 2.966-1.261.659-.852.989-1.977.989-3.375v-2.318c0-1.364-.33-2.466-.989-3.307-.659-.841-1.67-1.261-3.034-1.261-1.364 0-2.375.42-3.034 1.261-.659.841-.989 1.943-.989 3.307v2.318c0 1.398.33 2.523.989 3.375.67.841 1.704 1.261 3.102 1.261Zm27.401 20.932c-2.25 0-4.256-.386-6.017-1.159-1.75-.773-3.142-1.846-4.177-3.221-1.022-1.387-1.579-2.995-1.67-4.824h4.295c.091 1.125.478 2.096 1.16 2.915.681.806 1.573 1.431 2.676 1.874 1.102.444 2.324.665 3.664.665 1.5 0 2.83-.261 3.989-.784 1.159-.523 2.068-1.25 2.727-2.182.659-.931.989-2.011.989-3.238 0-1.284-.318-2.415-.955-3.392-.636-.989-1.568-1.762-2.795-2.319-1.227-.556-2.727-.835-4.5-.835h-2.795v-3.75h2.795c1.386 0 2.602-.25 3.648-.75 1.057-.5 1.88-1.204 2.471-2.113.603-.909.904-1.978.904-3.205 0-1.182-.262-2.21-.784-3.085-.523-.875-1.262-1.557-2.216-2.046-.943-.488-2.057-.733-3.341-.733a8.808 8.808 0 0 0-3.409.665c-1.057.432-1.921 1.063-2.591 1.892-.671.818-1.034 1.807-1.091 2.966h-4.091c.068-1.829.619-3.432 1.653-4.807 1.035-1.386 2.387-2.466 4.057-3.238 1.682-.773 3.529-1.159 5.54-1.159 2.159 0 4.011.437 5.557 1.312 1.545.864 2.733 2.006 3.562 3.426a8.97 8.97 0 0 1 1.245 4.603c0 1.965-.517 3.642-1.551 5.028-1.023 1.386-2.415 2.347-4.177 2.881v.272c2.205.364 3.927 1.301 5.165 2.813 1.239 1.5 1.858 3.358 1.858 5.574 0 1.897-.517 3.602-1.551 5.113-1.023 1.5-2.42 2.682-4.193 3.546-1.773.863-3.79 1.295-6.051 1.295Z"/>
  </g>
  <defs>
    <clipPath id="a">
      <path fill="#fff" d="M0 0h1440v1024H0z"/>
    </clipPath>
    <filter id="b" width="1448" height="1032" x="-4" y="0" color-interpolation-filters="sRGB" filterUnits="userSpaceOnUse">
      <feFlood flood-opacity="0" result="BackgroundImageFix"/>
      <feColorMatrix in="SourceAlpha" result="hardAlpha" values="0 0 0 0 0 0 0 0 0 0 0 0 0 0 0 0 0 0 127 0"/>
      <feOffset dy="4"/>
      <feGaussianBlur stdDeviation="2"/>
      <feComposite in2="hardAlpha" operator="out"/>
      <feColorMatrix values="0 0 0 0 0 0 0 0 0 0 0 0 0 0 0 0 0 0 0.25 0"/>
      <feBlend in2="BackgroundImageFix" result="effect1_dropShadow_7_12"/>
      <feBlend in="SourceGraphic" in2="effect1_dropShadow_7_12" result="shape"/>
    </filter>
  </defs>
</svg>
