<svg xmlns="http://www.w3.org/2000/svg" width="1440" height="1024" fill="none" viewBox="0 0 1440 1024">
  <g clip-path="url(#a)">
    <path fill="#fff" d="M0 0h1440v1024H0z"/>
    <path fill="#000" d="M537.318 169h-4.227c-.25-1.216-.688-2.284-1.313-3.205a8.727 8.727 0 0 0-2.25-2.318 9.576 9.576 0 0 0-2.914-1.432 11.652 11.652 0 0 0-3.341-.477c-2.114 0-4.029.534-5.745 1.602-1.704 1.069-3.062 2.642-4.073 4.722-1 2.08-1.5 4.631-1.5 7.653 0 3.023.5 5.574 1.5 7.654 1.011 2.079 2.369 3.653 4.073 4.721 1.716 1.069 3.631 1.603 5.745 1.603 1.159 0 2.272-.159 3.341-.478a9.768 9.768 0 0 0 2.914-1.414 8.965 8.965 0 0 0 2.25-2.336c.625-.931 1.063-2 1.313-3.204h4.227c-.318 1.784-.898 3.381-1.738 4.79a13.085 13.085 0 0 1-3.137 3.596 13.709 13.709 0 0 1-4.21 2.233c-1.545.512-3.199.767-4.96.767-2.978 0-5.625-.727-7.943-2.182-2.319-1.454-4.142-3.522-5.472-6.204s-1.994-5.864-1.994-9.546c0-3.681.664-6.863 1.994-9.545 1.33-2.682 3.153-4.75 5.472-6.205 2.318-1.454 4.965-2.181 7.943-2.181 1.761 0 3.415.255 4.96.767a13.519 13.519 0 0 1 4.21 2.25c1.25.977 2.296 2.17 3.137 3.579.84 1.398 1.42 2.995 1.738 4.79Zm16.922 24.545c-2.364 0-4.437-.562-6.222-1.687-1.772-1.125-3.159-2.699-4.159-4.722-.988-2.022-1.483-4.386-1.483-7.091 0-2.727.495-5.108 1.483-7.142 1-2.034 2.387-3.613 4.159-4.738 1.785-1.125 3.858-1.688 6.222-1.688 2.364 0 4.432.563 6.205 1.688 1.784 1.125 3.17 2.704 4.159 4.738 1 2.034 1.5 4.415 1.5 7.142 0 2.705-.5 5.069-1.5 7.091-.989 2.023-2.375 3.597-4.159 4.722-1.773 1.125-3.841 1.687-6.205 1.687Zm0-3.613c1.796 0 3.273-.46 4.432-1.381 1.159-.92 2.017-2.131 2.574-3.631.557-1.5.835-3.125.835-4.875s-.278-3.38-.835-4.892c-.557-1.511-1.415-2.733-2.574-3.664-1.159-.932-2.636-1.398-4.432-1.398-1.795 0-3.273.466-4.432 1.398-1.159.931-2.017 2.153-2.574 3.664-.556 1.512-.835 3.142-.835 4.892 0 1.75.279 3.375.835 4.875.557 1.5 1.415 2.711 2.574 3.631 1.159.921 2.637 1.381 4.432 1.381Zm18.004 12.886v-36h3.887v4.159h.477c.295-.454.705-1.034 1.227-1.738.534-.716 1.296-1.353 2.284-1.909 1-.569 2.353-.853 4.057-.853 2.205 0 4.148.551 5.83 1.654 1.682 1.102 2.994 2.664 3.937 4.687.943 2.023 1.415 4.409 1.415 7.159 0 2.773-.472 5.176-1.415 7.211-.943 2.022-2.25 3.59-3.92 4.704-1.671 1.102-3.597 1.653-5.779 1.653-1.681 0-3.028-.278-4.039-.835-1.012-.568-1.79-1.21-2.336-1.926a25.538 25.538 0 0 1-1.261-1.807h-.341v13.841h-4.023Zm3.955-22.909c0 1.977.29 3.722.869 5.233.58 1.5 1.426 2.676 2.54 3.528 1.114.841 2.477 1.262 4.091 1.262 1.682 0 3.085-.443 4.21-1.33 1.136-.897 1.989-2.102 2.557-3.613.579-1.523.869-3.216.869-5.08 0-1.841-.284-3.5-.852-4.977-.557-1.489-1.403-2.665-2.54-3.529-1.125-.875-2.54-1.312-4.244-1.312-1.636 0-3.011.415-4.125 1.244-1.114.818-1.955 1.966-2.523 3.443-.568 1.466-.852 3.177-.852 5.131Zm36.273 13.636c-2.523 0-4.699-.556-6.529-1.67-1.818-1.125-3.221-2.693-4.21-4.705-.977-2.022-1.466-4.375-1.466-7.056 0-2.682.489-5.046 1.466-7.091.989-2.057 2.364-3.659 4.125-4.807 1.773-1.159 3.841-1.739 6.204-1.739 1.364 0 2.711.228 4.04.682 1.33.455 2.54 1.193 3.631 2.216 1.091 1.011 1.96 2.352 2.608 4.023.648 1.67.971 3.727.971 6.17v1.705h-20.181v-3.478h16.091c0-1.477-.296-2.795-.887-3.954a6.675 6.675 0 0 0-2.488-2.744c-1.069-.671-2.33-1.006-3.785-1.006-1.602 0-2.988.398-4.159 1.193a7.85 7.85 0 0 0-2.676 3.068 9.016 9.016 0 0 0-.937 4.057v2.318c0 1.978.341 3.654 1.022 5.029.694 1.363 1.654 2.403 2.881 3.119 1.227.705 2.654 1.057 4.279 1.057 1.056 0 2.011-.148 2.863-.443a6.134 6.134 0 0 0 2.233-1.364c.625-.614 1.108-1.375 1.449-2.284l3.886 1.091a8.614 8.614 0 0 1-2.062 3.477c-.966.989-2.159 1.761-3.58 2.318-1.42.546-3.017.818-4.789.818Zm16.96-.545v-26.182h10.704c2.819 0 5.057.637 6.716 1.909 1.659 1.273 2.489 2.955 2.489 5.046 0 1.591-.472 2.824-1.415 3.699-.943.863-2.153 1.448-3.631 1.755.966.137 1.904.478 2.813 1.023a6.745 6.745 0 0 1 2.284 2.25c.602.943.903 2.102.903 3.477 0 1.341-.34 2.54-1.022 3.597-.682 1.057-1.659 1.892-2.932 2.506-1.273.613-2.796.92-4.568.92h-12.341Zm3.818-3.682h8.523c1.386 0 2.471-.329 3.255-.988.785-.66 1.177-1.557 1.177-2.694 0-1.352-.392-2.414-1.177-3.187-.784-.784-1.869-1.176-3.255-1.176h-8.523v8.045Zm0-11.523h6.886c1.08 0 2.006-.147 2.779-.443.773-.307 1.363-.738 1.773-1.295.42-.568.63-1.239.63-2.012 0-1.102-.46-1.965-1.38-2.59-.921-.637-2.188-.955-3.802-.955h-6.886v7.295Zm40.658.273v3.75h-14.455v-3.75h14.455Zm-13.5-11.25V193h-4.023v-26.182h4.023Zm16.568 0V193h-4.023v-26.182h4.023Zm17.983 26.727c-2.364 0-4.438-.562-6.222-1.687-1.773-1.125-3.159-2.699-4.159-4.722-.989-2.022-1.483-4.386-1.483-7.091 0-2.727.494-5.108 1.483-7.142 1-2.034 2.386-3.613 4.159-4.738 1.784-1.125 3.858-1.688 6.222-1.688 2.363 0 4.432.563 6.204 1.688 1.784 1.125 3.171 2.704 4.159 4.738 1 2.034 1.5 4.415 1.5 7.142 0 2.705-.5 5.069-1.5 7.091-.988 2.023-2.375 3.597-4.159 4.722-1.772 1.125-3.841 1.687-6.204 1.687Zm0-3.613c1.795 0 3.273-.46 4.432-1.381 1.159-.92 2.017-2.131 2.573-3.631.557-1.5.836-3.125.836-4.875s-.279-3.38-.836-4.892c-.556-1.511-1.414-2.733-2.573-3.664-1.159-.932-2.637-1.398-4.432-1.398-1.796 0-3.273.466-4.432 1.398-1.159.931-2.017 2.153-2.574 3.664-.557 1.512-.835 3.142-.835 4.892 0 1.75.278 3.375.835 4.875.557 1.5 1.415 2.711 2.574 3.631 1.159.921 2.636 1.381 4.432 1.381ZM712.963 193v-26.182h10.705c2.818 0 5.056.637 6.716 1.909 1.659 1.273 2.488 2.955 2.488 5.046 0 1.591-.471 2.824-1.415 3.699-.943.863-2.153 1.448-3.63 1.755.966.137 1.903.478 2.812 1.023.921.545 1.682 1.295 2.284 2.25.603.943.904 2.102.904 3.477 0 1.341-.341 2.54-1.023 3.597-.682 1.057-1.659 1.892-2.932 2.506-1.273.613-2.795.92-4.568.92h-12.341Zm3.818-3.682h8.523c1.386 0 2.472-.329 3.256-.988.784-.66 1.176-1.557 1.176-2.694 0-1.352-.392-2.414-1.176-3.187-.784-.784-1.87-1.176-3.256-1.176h-8.523v8.045Zm0-11.523h6.887c1.079 0 2.005-.147 2.778-.443.773-.307 1.364-.738 1.773-1.295.42-.568.63-1.239.63-2.012 0-1.102-.46-1.965-1.38-2.59-.921-.637-2.188-.955-3.801-.955h-6.887v7.295Zm30.84 15.819c-1.659 0-3.165-.313-4.517-.938-1.353-.636-2.426-1.551-3.222-2.744-.795-1.205-1.193-2.659-1.193-4.364 0-1.5.295-2.716.886-3.648a6.255 6.255 0 0 1 2.37-2.215 12.432 12.432 0 0 1 3.272-1.194 40.084 40.084 0 0 1 3.631-.647c1.591-.205 2.881-.358 3.869-.461 1-.113 1.728-.301 2.182-.562.466-.261.699-.716.699-1.364v-.136c0-1.682-.46-2.989-1.381-3.921-.909-.931-2.289-1.397-4.142-1.397-1.92 0-3.426.42-4.517 1.261-1.091.841-1.858 1.739-2.301 2.693l-3.818-1.363c.682-1.591 1.591-2.83 2.727-3.716a10.217 10.217 0 0 1 3.75-1.875 15.56 15.56 0 0 1 4.023-.546c.841 0 1.807.103 2.898.307a9.284 9.284 0 0 1 3.187 1.21c1.034.614 1.892 1.54 2.574 2.779.682 1.238 1.023 2.897 1.023 4.977V193h-4.023v-3.545h-.205c-.272.568-.727 1.176-1.363 1.823-.637.648-1.483 1.199-2.54 1.654-1.057.454-2.347.682-3.869.682Zm.613-3.614c1.591 0 2.932-.312 4.023-.938 1.102-.624 1.932-1.431 2.489-2.42.568-.989.852-2.028.852-3.119v-3.682c-.17.204-.545.392-1.125.562-.568.159-1.227.302-1.977.427-.739.113-1.46.215-2.165.306-.693.08-1.256.148-1.688.205a15.324 15.324 0 0 0-2.931.665c-.898.295-1.625.744-2.182 1.346-.546.591-.818 1.398-.818 2.421 0 1.397.517 2.454 1.551 3.17 1.045.705 2.369 1.057 3.971 1.057Zm36.252-11.932v3.75h-14.455v-3.75h14.455Zm-13.5-11.25V193h-4.023v-26.182h4.023Zm16.568 0V193h-4.023v-26.182h4.023Zm11.369 20.25 12.614-20.25h4.636V193h-4.022v-20.25L799.605 193h-4.704v-26.182h4.022v20.25Zm35.595 6.477c-2.522 0-4.698-.556-6.528-1.67-1.818-1.125-3.222-2.693-4.21-4.705-.977-2.022-1.466-4.375-1.466-7.056 0-2.682.489-5.046 1.466-7.091.988-2.057 2.363-3.659 4.125-4.807 1.773-1.159 3.841-1.739 6.204-1.739 1.364 0 2.711.228 4.04.682 1.33.455 2.54 1.193 3.631 2.216 1.091 1.011 1.96 2.352 2.608 4.023.648 1.67.971 3.727.971 6.17v1.705h-20.181v-3.478h16.09c0-1.477-.295-2.795-.886-3.954a6.67 6.67 0 0 0-2.489-2.744c-1.068-.671-2.329-1.006-3.784-1.006-1.602 0-2.988.398-4.159 1.193a7.85 7.85 0 0 0-2.676 3.068 9.016 9.016 0 0 0-.937 4.057v2.318c0 1.978.341 3.654 1.022 5.029.694 1.363 1.654 2.403 2.881 3.119 1.227.705 2.653 1.057 4.278 1.057 1.057 0 2.012-.148 2.864-.443a6.134 6.134 0 0 0 2.233-1.364c.625-.614 1.108-1.375 1.449-2.284l3.886 1.091a8.614 8.614 0 0 1-2.062 3.477c-.966.989-2.159 1.761-3.58 2.318-1.42.546-3.017.818-4.79.818Zm31.006-.545v-34.909h4.091l15.682 26.795h.341v-26.795h4.159V193h-4.091l-15.614-26.591h-.341V193h-4.227Zm28.568-10.568v-3.477h14.864v3.477h-14.864Zm7.432-6.477c-1.682 0-3.136-.336-4.363-1.006a7.093 7.093 0 0 1-2.83-2.813c-.659-1.204-.989-2.613-.989-4.227v-2.318c0-1.614.33-3.023.989-4.227a6.986 6.986 0 0 1 2.812-2.813c1.216-.67 2.654-1.006 4.313-1.006 1.682 0 3.125.336 4.33 1.006a6.878 6.878 0 0 1 2.795 2.813c.659 1.204.989 2.613.989 4.227v2.318c0 1.614-.324 3.023-.972 4.227a6.904 6.904 0 0 1-2.778 2.813c-1.205.67-2.637 1.006-4.296 1.006Zm0-3.41c1.33 0 2.318-.42 2.966-1.261.659-.852.989-1.977.989-3.375v-2.318c0-1.364-.33-2.466-.989-3.307-.659-.841-1.67-1.261-3.034-1.261-1.364 0-2.375.42-3.034 1.261-.659.841-.989 1.943-.989 3.307v2.318c0 1.398.33 2.523.989 3.375.67.841 1.704 1.261 3.102 1.261Zm27.878-14.454V193h-4.227v-30.477h-.205l-8.523 5.659v-4.296l8.728-5.795h4.227Z"/>
    <rect width="1440" height="151" y="-50" fill="#D9D9D9" rx="38"/>
    <path fill="#000" d="M1058.63 56V38.545h13.72V56h-2.68V41.045h-8.36V56h-2.68Zm18.62 6.545v-24h2.59v2.773h.32c.2-.303.47-.69.82-1.159.35-.477.86-.901 1.52-1.273.67-.378 1.57-.568 2.71-.568 1.47 0 2.76.368 3.88 1.102 1.12.735 2 1.777 2.63 3.125.63 1.349.94 2.94.94 4.773 0 1.849-.31 3.45-.94 4.807-.63 1.349-1.5 2.394-2.62 3.136-1.11.735-2.39 1.103-3.85 1.103-1.12 0-2.02-.186-2.69-.557-.68-.379-1.19-.807-1.56-1.284-.36-.485-.64-.887-.84-1.205h-.23v9.227h-2.68Zm2.64-15.272c0 1.318.19 2.48.58 3.488.38 1 .95 1.784 1.69 2.353.74.56 1.65.84 2.73.84 1.12 0 2.05-.295 2.8-.886.76-.598 1.33-1.401 1.71-2.409.39-1.015.58-2.144.58-3.386 0-1.228-.19-2.334-.57-3.319-.37-.992-.94-1.776-1.69-2.352-.75-.583-1.7-.875-2.83-.875-1.09 0-2.01.277-2.75.83-.74.545-1.31 1.31-1.68 2.295-.38.978-.57 2.118-.57 3.42Zm19.54 4.772 8.41-13.5h3.09V56h-2.68V42.5l-8.36 13.5h-3.14V38.545h2.68v13.5ZM1115.85 56V38.545h7.13c1.88 0 3.37.425 4.48 1.273 1.1.849 1.66 1.97 1.66 3.364 0 1.06-.32 1.882-.95 2.466-.62.575-1.43.966-2.42 1.17.65.091 1.27.318 1.88.682a4.52 4.52 0 0 1 1.52 1.5c.4.629.6 1.401.6 2.318 0 .894-.22 1.693-.68 2.398-.45.704-1.1 1.261-1.95 1.67-.85.41-1.87.614-3.05.614h-8.22Zm2.54-2.455h5.68c.93 0 1.65-.22 2.17-.659.53-.439.79-1.038.79-1.795 0-.902-.26-1.61-.79-2.125-.52-.523-1.24-.784-2.17-.784h-5.68v5.363Zm0-7.681h4.59c.72 0 1.34-.099 1.85-.296.52-.204.91-.492 1.19-.863.28-.38.42-.826.42-1.341 0-.735-.31-1.311-.92-1.728-.62-.424-1.46-.636-2.54-.636h-4.59v4.864Zm22.74 10.5c-1.68 0-3.13-.372-4.35-1.114-1.21-.75-2.15-1.795-2.81-3.136-.65-1.349-.97-2.917-.97-4.705 0-1.788.32-3.364.97-4.727.66-1.371 1.58-2.44 2.75-3.205 1.18-.772 2.56-1.159 4.14-1.159.91 0 1.81.152 2.69.455.89.303 1.7.795 2.42 1.477.73.674 1.31 1.568 1.74 2.682.43 1.113.65 2.485.65 4.113v1.137h-13.46v-2.318h10.73c0-.985-.19-1.864-.59-2.637a4.478 4.478 0 0 0-1.66-1.83c-.71-.446-1.55-.67-2.52-.67-1.07 0-1.99.265-2.77.796a5.216 5.216 0 0 0-1.79 2.045 6.096 6.096 0 0 0-.62 2.705v1.545c0 1.318.22 2.436.68 3.352.46.91 1.1 1.603 1.92 2.08.82.47 1.77.705 2.85.705.71 0 1.34-.099 1.91-.296a4.085 4.085 0 0 0 1.49-.909c.42-.41.74-.917.97-1.523l2.59.728a5.769 5.769 0 0 1-1.38 2.318c-.64.659-1.44 1.174-2.38 1.545-.95.364-2.02.546-3.2.546Zm9.68-15.319v-2.5H1165v2.5h-5.73V56h-2.68V41.045h-5.78ZM1178.27 56V32.727h2.82v10.364h12.41V32.727h2.82V56h-2.82V45.59h-12.41V56h-2.82Zm25.05 6.545c-.45 0-.86-.037-1.21-.113-.36-.068-.61-.137-.74-.205l.68-2.363c.65.166 1.23.227 1.73.181.5-.045.94-.269 1.33-.67.39-.394.75-1.034 1.08-1.92l.5-1.364-6.46-17.546h2.91l4.82 13.91h.18l4.82-13.91h2.91l-7.41 20c-.33.902-.75 1.648-1.24 2.24a4.583 4.583 0 0 1-1.72 1.329c-.64.288-1.37.431-2.18.431Zm16.09 0v-24h2.59v2.773h.32c.19-.303.47-.69.81-1.159.36-.477.87-.901 1.53-1.273.66-.378 1.57-.568 2.7-.568 1.47 0 2.77.368 3.89 1.102 1.12.735 1.99 1.777 2.62 3.125.63 1.349.95 2.94.95 4.773 0 1.849-.32 3.45-.95 4.807-.63 1.349-1.5 2.394-2.61 3.136-1.11.735-2.4 1.103-3.85 1.103-1.12 0-2.02-.186-2.7-.557-.67-.379-1.19-.807-1.55-1.284-.37-.485-.65-.887-.84-1.205h-.23v9.227h-2.68Zm2.63-15.272c0 1.318.2 2.48.58 3.488.39 1 .95 1.784 1.7 2.353.74.56 1.65.84 2.72.84 1.13 0 2.06-.295 2.81-.886.76-.598 1.33-1.401 1.71-2.409.38-1.015.57-2.144.57-3.386 0-1.228-.18-2.334-.56-3.319-.37-.992-.94-1.776-1.7-2.352-.75-.583-1.69-.875-2.83-.875-1.09 0-2 .277-2.75.83-.74.545-1.3 1.31-1.68 2.295-.38.978-.57 2.118-.57 3.42Zm19.55-1.773V56h-2.68V38.545h2.59v2.728h.23c.4-.887 1.03-1.599 1.86-2.137.83-.545 1.91-.818 3.23-.818 1.18 0 2.21.243 3.1.727.89.478 1.57 1.205 2.07 2.182.49.97.74 2.197.74 3.682V56h-2.69V45.09c0-1.37-.35-2.439-1.06-3.204-.72-.772-1.69-1.159-2.94-1.159-.85 0-1.62.186-2.29.557-.67.371-1.19.913-1.58 1.625-.39.712-.58 1.576-.58 2.591Zm23.13 10.864c-1.58 0-2.96-.375-4.15-1.125-1.18-.75-2.11-1.8-2.77-3.148-.66-1.349-.99-2.924-.99-4.727 0-1.819.33-3.406.99-4.762.66-1.356 1.59-2.409 2.77-3.159 1.19-.75 2.57-1.125 4.15-1.125 1.57 0 2.95.375 4.13 1.125 1.19.75 2.12 1.803 2.78 3.16.66 1.355 1 2.942 1 4.76 0 1.804-.34 3.38-1 4.728-.66 1.348-1.59 2.398-2.78 3.148-1.18.75-2.56 1.125-4.13 1.125Zm0-2.41c1.19 0 2.18-.306 2.95-.92.77-.614 1.35-1.42 1.72-2.42.37-1 .55-2.084.55-3.25 0-1.167-.18-2.254-.55-3.262-.37-1.007-.95-1.822-1.72-2.443s-1.76-.932-2.95-.932c-1.2 0-2.18.31-2.96.932-.77.621-1.34 1.436-1.71 2.443a9.39 9.39 0 0 0-.56 3.262c0 1.166.19 2.25.56 3.25.37 1 .94 1.806 1.71 2.42.78.614 1.76.92 2.96.92Zm18.59 2.41c-1.45 0-2.74-.368-3.85-1.103-1.11-.742-1.99-1.788-2.61-3.136-.63-1.356-.95-2.958-.95-4.807 0-1.833.32-3.424.95-4.773.62-1.348 1.5-2.39 2.62-3.125 1.12-.734 2.42-1.102 3.89-1.102 1.13 0 2.03.19 2.69.568.67.372 1.17.796 1.52 1.273.36.47.64.856.83 1.16h.23v-8.592h2.68V56h-2.59v-2.682h-.32c-.19.318-.48.72-.84 1.205-.36.477-.88.905-1.56 1.284-.67.371-1.57.557-2.69.557Zm.36-2.41c1.08 0 1.99-.28 2.73-.84.74-.569 1.31-1.353 1.7-2.353.38-1.007.57-2.17.57-3.488 0-1.303-.18-2.444-.56-3.42-.38-.986-.94-1.75-1.69-2.296-.74-.553-1.65-.83-2.75-.83-1.13 0-2.08.292-2.84.875-.75.576-1.31 1.36-1.69 2.353-.37.984-.56 2.09-.56 3.318 0 1.242.19 2.37.57 3.386.39 1.008.96 1.81 1.71 2.41.75.59 1.69.886 2.81.886Zm18.06 2.455c-1.1 0-2.11-.208-3.01-.625-.9-.424-1.62-1.034-2.15-1.83-.53-.803-.79-1.772-.79-2.909 0-1 .19-1.81.59-2.431a4.13 4.13 0 0 1 1.58-1.478 8.242 8.242 0 0 1 2.18-.795c.8-.182 1.61-.326 2.42-.432 1.06-.136 1.92-.239 2.58-.307.67-.075 1.15-.2 1.45-.375.31-.174.47-.477.47-.909v-.09c0-1.122-.31-1.993-.92-2.614-.61-.622-1.53-.932-2.76-.932-1.28 0-2.29.28-3.01.84-.73.561-1.24 1.16-1.54 1.796l-2.54-.909c.45-1.06 1.06-1.886 1.82-2.477a6.711 6.711 0 0 1 2.5-1.25c.9-.243 1.8-.364 2.68-.364.56 0 1.2.068 1.93.205.73.128 1.44.397 2.12.806.69.41 1.27 1.027 1.72 1.853.45.826.68 1.932.68 3.318V56h-2.68v-2.364h-.14c-.18.38-.48.784-.91 1.216-.42.432-.98.8-1.69 1.103-.7.303-1.56.454-2.58.454Zm.41-2.409c1.06 0 1.96-.208 2.68-.625.74-.417 1.29-.955 1.66-1.614.38-.659.57-1.352.57-2.08v-2.454c-.11.137-.36.262-.75.375-.38.106-.82.201-1.32.284-.49.076-.97.144-1.44.205-.46.053-.84.098-1.13.136-.69.091-1.35.239-1.95.444-.6.196-1.08.496-1.46.897-.36.394-.54.932-.54 1.614 0 .932.34 1.636 1.03 2.113.7.47 1.58.705 2.65.705Zm15.17-8.5V56h-2.68V38.545h2.59v2.728h.22a4.962 4.962 0 0 1 1.87-2.137c.83-.545 1.91-.818 3.23-.818 1.18 0 2.21.243 3.1.727.88.478 1.57 1.205 2.07 2.182.49.97.73 2.197.73 3.682V56h-2.68V45.09c0-1.37-.35-2.439-1.07-3.204-.71-.772-1.68-1.159-2.93-1.159-.85 0-1.62.186-2.29.557-.67.371-1.2.913-1.58 1.625-.39.712-.58 1.576-.58 2.591Zm23.13 10.864c-1.64 0-3.05-.387-4.23-1.16-1.18-.772-2.09-1.837-2.73-3.193-.63-1.356-.95-2.905-.95-4.647 0-1.773.32-3.337.97-4.694.66-1.363 1.58-2.428 2.75-3.193 1.19-.772 2.56-1.159 4.14-1.159 1.23 0 2.33.227 3.32.682.98.455 1.79 1.09 2.42 1.91.63.817 1.02 1.772 1.17 2.863h-2.68c-.21-.796-.66-1.5-1.37-2.114-.69-.621-1.63-.932-2.81-.932-1.05 0-1.97.273-2.75.819-.78.537-1.39 1.299-1.83 2.284-.44.977-.65 2.125-.65 3.443 0 1.348.21 2.522.64 3.522.43 1 1.03 1.777 1.81 2.33.79.553 1.72.83 2.78.83.69 0 1.33-.122 1.89-.364a3.965 3.965 0 0 0 1.45-1.046c.39-.454.67-1 .84-1.636h2.68a6.186 6.186 0 0 1-1.13 2.784c-.59.818-1.37 1.47-2.35 1.955-.97.477-2.1.716-3.38.716Zm18.1 0c-1.68 0-3.13-.372-4.35-1.114-1.22-.75-2.15-1.795-2.81-3.136-.65-1.349-.98-2.917-.98-4.705 0-1.788.33-3.364.98-4.727.66-1.371 1.58-2.44 2.75-3.205 1.18-.772 2.56-1.159 4.14-1.159.9 0 1.8.152 2.69.455.89.303 1.69.795 2.42 1.477.73.674 1.31 1.568 1.74 2.682.43 1.113.65 2.485.65 4.113v1.137h-13.46v-2.318h10.73c0-.985-.2-1.864-.59-2.637a4.478 4.478 0 0 0-1.66-1.83c-.71-.446-1.55-.67-2.52-.67-1.07 0-2 .265-2.78.796a5.272 5.272 0 0 0-1.78 2.045 5.97 5.97 0 0 0-.63 2.705v1.545c0 1.318.23 2.436.69 3.352.46.91 1.1 1.603 1.92 2.08.81.47 1.77.705 2.85.705.7 0 1.34-.099 1.91-.296a4.17 4.17 0 0 0 1.49-.909c.41-.41.73-.917.96-1.523l2.59.728a5.747 5.747 0 0 1-1.37 2.318c-.65.659-1.44 1.174-2.39 1.545-.95.364-2.01.546-3.19.546Zm18.71-.046c-1.56 0-2.94-.276-4.13-.83-1.19-.56-2.12-1.329-2.79-2.306-.66-.985-.99-2.106-.98-3.364-.01-.985.18-1.894.57-2.727.4-.841.94-1.542 1.62-2.102a4.951 4.951 0 0 1 2.31-1.08v-.136c-1.12-.288-2-.913-2.66-1.875-.66-.97-.99-2.072-.98-3.307-.01-1.182.29-2.239.9-3.17.6-.932 1.44-1.667 2.5-2.205s2.28-.807 3.64-.807c1.35 0 2.56.269 3.62.807s1.89 1.273 2.5 2.204c.61.932.92 1.99.93 3.17-.01 1.236-.34 2.338-1.01 3.308-.66.962-1.54 1.587-2.63 1.875v.136c.84.152 1.6.511 2.28 1.08.67.56 1.21 1.261 1.61 2.102.4.833.61 1.742.61 2.727 0 1.258-.35 2.379-1.02 3.364-.67.977-1.59 1.746-2.78 2.307-1.19.553-2.55.83-4.11.83Zm0-2.5c1.06 0 1.97-.17 2.73-.511.77-.341 1.36-.822 1.77-1.443.42-.622.63-1.349.64-2.182-.01-.879-.23-1.656-.68-2.33a4.666 4.666 0 0 0-1.83-1.59c-.77-.387-1.64-.58-2.63-.58s-1.87.193-2.65.58c-.78.386-1.39.916-1.83 1.59-.44.675-.66 1.451-.65 2.33-.01.833.19 1.56.6 2.182.42.62 1.01 1.102 1.78 1.443.78.34 1.69.511 2.75.511Zm0-11.045c.84 0 1.58-.167 2.22-.5.65-.334 1.16-.8 1.53-1.398.38-.599.56-1.3.57-2.102-.01-.788-.19-1.474-.55-2.057a3.637 3.637 0 0 0-1.52-1.364c-.64-.325-1.39-.488-2.25-.488-.87 0-1.63.163-2.28.488-.65.319-1.16.773-1.51 1.364-.36.583-.53 1.269-.52 2.057-.01.803.17 1.503.53 2.102.37.599.88 1.064 1.53 1.398.66.333 1.41.5 2.25.5Zm19.72 13.545c-1.56 0-2.94-.276-4.13-.83-1.19-.56-2.12-1.329-2.79-2.306-.66-.985-.99-2.106-.99-3.364 0-.985.19-1.894.58-2.727.4-.841.94-1.542 1.62-2.102a4.963 4.963 0 0 1 2.3-1.08v-.136c-1.11-.288-2-.913-2.66-1.875-.65-.97-.98-2.072-.97-3.307-.01-1.182.29-2.239.9-3.17.6-.932 1.43-1.667 2.5-2.205 1.06-.538 2.28-.807 3.64-.807 1.35 0 2.56.269 3.62.807s1.89 1.273 2.5 2.204c.61.932.92 1.99.93 3.17-.01 1.236-.35 2.338-1.01 3.308-.66.962-1.54 1.587-2.63 1.875v.136c.84.152 1.6.511 2.27 1.08.68.56 1.22 1.261 1.62 2.102.4.833.6 1.742.61 2.727-.01 1.258-.35 2.379-1.02 3.364-.67.977-1.6 1.746-2.78 2.307-1.19.553-2.55.83-4.11.83Zm0-2.5c1.06 0 1.97-.17 2.73-.511.77-.341 1.36-.822 1.77-1.443.42-.622.63-1.349.64-2.182-.01-.879-.24-1.656-.68-2.33a4.666 4.666 0 0 0-1.83-1.59c-.77-.387-1.64-.58-2.63-.58s-1.88.193-2.66.58c-.77.386-1.38.916-1.83 1.59-.44.675-.65 1.451-.64 2.33-.01.833.19 1.56.6 2.182.42.62 1.01 1.102 1.78 1.443.78.34 1.69.511 2.75.511Zm0-11.045c.84 0 1.57-.167 2.22-.5.65-.334 1.16-.8 1.53-1.398.37-.599.56-1.3.57-2.102-.01-.788-.19-1.474-.56-2.057a3.552 3.552 0 0 0-1.51-1.364c-.64-.325-1.39-.488-2.25-.488-.87 0-1.63.163-2.28.488-.65.319-1.16.773-1.51 1.364-.36.583-.53 1.269-.53 2.057 0 .803.18 1.503.54 2.102.37.599.88 1.064 1.53 1.398.65.333 1.4.5 2.25.5ZM615.849 630.955c-4.5 0-8.511-.773-12.034-2.319-3.5-1.545-6.284-3.693-8.352-6.443-2.045-2.773-3.159-5.988-3.341-9.648h8.591c.182 2.25.955 4.194 2.318 5.83 1.364 1.614 3.148 2.864 5.353 3.75 2.204.886 4.647 1.33 7.329 1.33 3 0 5.659-.523 7.977-1.569 2.319-1.045 4.137-2.5 5.455-4.363 1.318-1.864 1.977-4.023 1.977-6.478 0-2.568-.636-4.829-1.909-6.784-1.273-1.977-3.136-3.522-5.591-4.636-2.454-1.114-5.454-1.67-9-1.67h-5.591v-7.5h5.591c2.773 0 5.205-.5 7.296-1.5 2.113-1 3.761-2.41 4.943-4.228 1.204-1.818 1.807-3.954 1.807-6.409 0-2.363-.523-4.42-1.569-6.17-1.045-1.75-2.522-3.114-4.431-4.091-1.887-.977-4.114-1.466-6.682-1.466-2.409 0-4.682.443-6.818 1.329-2.114.864-3.841 2.125-5.182 3.785-1.341 1.636-2.068 3.613-2.182 5.931h-8.182c.137-3.659 1.239-6.863 3.307-9.613 2.068-2.773 4.773-4.932 8.114-6.478 3.363-1.545 7.056-2.318 11.079-2.318 4.318 0 8.023.875 11.114 2.625 3.091 1.728 5.466 4.012 7.125 6.853a17.937 17.937 0 0 1 2.488 9.204c0 3.932-1.034 7.284-3.102 10.057-2.045 2.773-4.829 4.693-8.352 5.761v.546c4.409.727 7.852 2.602 10.329 5.625 2.478 3 3.716 6.716 3.716 11.147 0 3.796-1.034 7.205-3.102 10.228-2.045 3-4.841 5.363-8.386 7.091-3.546 1.727-7.58 2.591-12.103 2.591Zm60.307 0c-5.136 0-9.511-1.398-13.125-4.194-3.613-2.818-6.375-6.897-8.284-12.238-1.909-5.364-2.863-11.841-2.863-19.432 0-7.546.954-13.989 2.863-19.33 1.932-5.363 4.705-9.454 8.318-12.272 3.637-2.841 8-4.262 13.091-4.262 5.091 0 9.443 1.421 13.057 4.262 3.636 2.818 6.409 6.909 8.318 12.272 1.932 5.341 2.898 11.784 2.898 19.33 0 7.591-.955 14.068-2.864 19.432-1.909 5.341-4.67 9.42-8.284 12.238-3.613 2.796-7.988 4.194-13.125 4.194Zm0-7.5c5.091 0 9.046-2.455 11.864-7.364 2.818-4.909 4.227-11.909 4.227-21 0-6.046-.648-11.193-1.943-15.443-1.273-4.25-3.114-7.489-5.523-9.716-2.386-2.227-5.261-3.341-8.625-3.341-5.045 0-8.988 2.489-11.829 7.466-2.841 4.954-4.262 11.966-4.262 21.034 0 6.045.637 11.182 1.909 15.409 1.273 4.227 3.103 7.443 5.489 9.648 2.409 2.204 5.307 3.307 8.693 3.307Zm67.364-32.114v7.5h-30.546v-7.5h30.546Zm35.838 39.614c-4 0-7.602-.796-10.807-2.387-3.204-1.591-5.773-3.773-7.704-6.545-1.932-2.773-2.989-5.932-3.171-9.478h8.182c.318 3.16 1.75 5.773 4.295 7.841 2.569 2.046 5.637 3.069 9.205 3.069 2.864 0 5.409-.671 7.636-2.012 2.25-1.341 4.012-3.182 5.284-5.523 1.296-2.363 1.944-5.034 1.944-8.011 0-3.045-.671-5.761-2.012-8.148-1.318-2.409-3.136-4.306-5.454-5.693-2.318-1.386-4.966-2.091-7.944-2.113-2.136-.023-4.329.306-6.579.988-2.25.659-4.102 1.512-5.557 2.557l-7.909-.955 4.227-34.363h36.273v7.5h-29.182l-2.454 20.591h.409c1.432-1.137 3.227-2.08 5.386-2.83a20.423 20.423 0 0 1 6.75-1.125c4.273 0 8.08 1.023 11.421 3.068 3.363 2.023 6 4.796 7.909 8.319 1.932 3.522 2.897 7.545 2.897 12.068 0 4.454-1 8.432-3 11.932-1.977 3.477-4.704 6.227-8.181 8.25-3.478 2-7.432 3-11.864 3Zm39.997-42.273v-7.364h42v7.364h-42Zm0 20.182V601.5h42v7.364h-42Z"/>
    <path fill="#F0F0F0" d="M535 684h378v99H535z"/>
    <path fill="#000" d="m552.295 751 5.796-34.909h12.204c2.432 0 4.37.42 5.813 1.261 1.443.83 2.432 1.949 2.966 3.358.534 1.398.653 2.949.358 4.654-.25 1.5-.722 2.738-1.415 3.716-.682.977-1.5 1.75-2.455 2.318-.943.568-1.926.988-2.948 1.261l-.069.341c1.046.068 2.052.443 3.017 1.125.966.682 1.711 1.659 2.233 2.932.523 1.273.637 2.829.341 4.67a10.863 10.863 0 0 1-1.994 4.722c-1.034 1.398-2.477 2.506-4.33 3.324-1.852.818-4.153 1.227-6.903 1.227h-12.614Zm4.841-3.75h8.387c2.761 0 4.812-.534 6.153-1.602 1.352-1.08 2.165-2.387 2.438-3.921.181-1.182.051-2.272-.392-3.272-.432-1.012-1.154-1.819-2.165-2.421-1-.614-2.262-.92-3.784-.92h-8.591l-2.046 12.136Zm2.659-15.818h7.841a8.64 8.64 0 0 0 3.58-.75 7.602 7.602 0 0 0 2.795-2.114c.75-.909 1.216-1.977 1.398-3.204.273-1.534-.034-2.836-.92-3.904-.887-1.079-2.489-1.619-4.807-1.619h-7.977l-1.91 11.591ZM582.969 751l4.363-26.182h10.705c2.795 0 4.92.642 6.375 1.926 1.454 1.273 2.011 2.949 1.67 5.029-.272 1.602-.954 2.835-2.045 3.699-1.091.863-2.386 1.448-3.886 1.755a6.365 6.365 0 0 1 2.625 1.023c.829.545 1.46 1.295 1.892 2.25.443.955.551 2.114.323 3.477a7.594 7.594 0 0 1-1.636 3.597c-.852 1.057-1.966 1.892-3.341 2.506-1.363.613-2.932.92-4.704.92h-12.341Zm4.432-3.682h8.522c1.398 0 2.546-.329 3.443-.988.898-.671 1.432-1.569 1.603-2.694.238-1.363.022-2.431-.648-3.204-.659-.773-1.67-1.159-3.034-1.159h-8.523l-1.363 8.045Zm1.909-11.523h6.886c1.068 0 2.017-.147 2.847-.443.829-.307 1.5-.738 2.011-1.295a3.754 3.754 0 0 0 .937-2.012c.205-1.09-.107-1.954-.937-2.59-.818-.637-2.028-.955-3.631-.955h-6.886l-1.227 7.295Zm31.521 15.75c-2.511 0-4.585-.556-6.222-1.67-1.636-1.125-2.778-2.693-3.426-4.705-.647-2.022-.75-4.375-.307-7.056.444-2.682 1.324-5.046 2.642-7.091 1.319-2.057 2.961-3.659 4.927-4.807 1.966-1.159 4.125-1.739 6.477-1.739 1.364 0 2.676.228 3.937.682a7.99 7.99 0 0 1 3.273 2.216c.921 1.011 1.563 2.352 1.926 4.023.364 1.67.341 3.727-.068 6.17l-.273 1.705h-20.181l.545-3.478h16.091c.261-1.477.193-2.795-.205-3.954-.386-1.159-1.062-2.074-2.028-2.744-.955-.671-2.165-1.006-3.631-1.006-1.511 0-2.92.409-4.227 1.227a11.114 11.114 0 0 0-3.273 3.068c-.875 1.228-1.42 2.478-1.636 3.75l-.477 3c-.341 2.171-.29 3.898.153 5.182.455 1.284 1.244 2.21 2.369 2.779 1.125.556 2.534.835 4.228.835 1.079 0 2.073-.148 2.983-.443a7.458 7.458 0 0 0 2.437-1.364c.716-.614 1.318-1.375 1.807-2.284l3.682 1.091a10.719 10.719 0 0 1-2.642 3.477c-1.125.989-2.444 1.761-3.955 2.318-1.5.546-3.142.818-4.926.818Zm13.099 6.955 1.909-11.25h2.182a13.047 13.047 0 0 0 1.654-1.807c.5-.648.966-1.415 1.397-2.301.432-.898.858-1.989 1.279-3.273.42-1.295.863-2.858 1.329-4.687l2.591-10.364h16.637l-3.682 22.432h4.023l-1.91 11.25h-4.022l1.227-7.5H639.18l-1.227 7.5h-4.023Zm8.659-11.25h12.614l3.068-18.682h-8.863l-1.773 6.614c-.739 2.738-1.489 5.13-2.25 7.176-.75 2.045-1.682 3.676-2.796 4.892Zm30.41-2.182 15.954-20.25h4.636L689.226 751h-4.023l3.341-20.25L672.658 751h-4.705l4.364-26.182h4.022l-3.34 20.25Zm23.782-16.5.614-3.75h21.273l-.614 3.75h-8.591L705.781 751h-4.022l3.681-22.432h-8.659Zm32.941 22.977c-2.512 0-4.586-.556-6.222-1.67-1.636-1.125-2.778-2.693-3.426-4.705-.648-2.022-.75-4.375-.307-7.056.443-2.682 1.324-5.046 2.642-7.091 1.318-2.057 2.96-3.659 4.926-4.807 1.966-1.159 4.125-1.739 6.477-1.739 1.364 0 2.677.228 3.938.682a8.003 8.003 0 0 1 3.273 2.216c.92 1.011 1.562 2.352 1.926 4.023.364 1.67.341 3.727-.068 6.17l-.273 1.705h-20.182l.546-3.478h16.09c.262-1.477.194-2.795-.204-3.954-.386-1.159-1.063-2.074-2.028-2.744-.955-.671-2.165-1.006-3.631-1.006a7.82 7.82 0 0 0-4.227 1.227 11.114 11.114 0 0 0-3.273 3.068c-.875 1.228-1.421 2.478-1.637 3.75l-.477 3c-.341 2.171-.29 3.898.154 5.182.454 1.284 1.244 2.21 2.369 2.779 1.125.556 2.534.835 4.227.835 1.08 0 2.074-.148 2.983-.443a7.463 7.463 0 0 0 2.438-1.364c.716-.614 1.318-1.375 1.806-2.284l3.682 1.091a10.705 10.705 0 0 1-2.642 3.477c-1.125.989-2.443 1.761-3.954 2.318-1.5.546-3.142.818-4.926.818Zm20.531-.272c-.864 0-1.585-.296-2.165-.887a3.158 3.158 0 0 1-.903-2.181c-.012-.853.289-1.563.903-2.131a3.048 3.048 0 0 1 2.165-.869 3.04 3.04 0 0 1 2.182.886c.613.591.909 1.295.886 2.114a3.04 3.04 0 0 1-.443 1.551 3.05 3.05 0 0 1-1.108 1.108 2.9 2.9 0 0 1-1.517.409Zm13.219 0c-.864 0-1.586-.296-2.165-.887-.58-.602-.881-1.329-.904-2.181-.011-.853.29-1.563.904-2.131a3.046 3.046 0 0 1 2.165-.869c.841 0 1.568.295 2.181.886.614.591.91 1.295.887 2.114a3.05 3.05 0 0 1-.443 1.551 3.05 3.05 0 0 1-1.108 1.108 2.902 2.902 0 0 1-1.517.409Zm13.218 0c-.863 0-1.585-.296-2.164-.887-.58-.602-.881-1.329-.904-2.181-.011-.853.29-1.563.904-2.131a3.046 3.046 0 0 1 2.164-.869c.841 0 1.569.295 2.182.886.614.591.909 1.295.887 2.114a3.05 3.05 0 0 1-.444 1.551 3.042 3.042 0 0 1-1.108 1.108c-.454.272-.96.409-1.517.409ZM647.682 289.545c0 3.682-.665 6.864-1.994 9.546-1.33 2.682-3.154 4.75-5.472 6.204-2.318 1.455-4.966 2.182-7.943 2.182-2.978 0-5.625-.727-7.943-2.182-2.319-1.454-4.142-3.522-5.472-6.204s-1.994-5.864-1.994-9.546c0-3.681.664-6.863 1.994-9.545 1.33-2.682 3.153-4.75 5.472-6.205 2.318-1.454 4.965-2.181 7.943-2.181 2.977 0 5.625.727 7.943 2.181 2.318 1.455 4.142 3.523 5.472 6.205 1.329 2.682 1.994 5.864 1.994 9.545Zm-4.091 0c0-3.022-.506-5.573-1.517-7.653-1-2.08-2.358-3.653-4.074-4.722-1.705-1.068-3.614-1.602-5.727-1.602-2.114 0-4.029.534-5.745 1.602-1.704 1.069-3.062 2.642-4.073 4.722-1 2.08-1.5 4.631-1.5 7.653 0 3.023.5 5.574 1.5 7.654 1.011 2.079 2.369 3.653 4.073 4.721 1.716 1.069 3.631 1.603 5.745 1.603 2.113 0 4.022-.534 5.727-1.603 1.716-1.068 3.074-2.642 4.074-4.721 1.011-2.08 1.517-4.631 1.517-7.654Zm30.835-8.727V307h-4.023v-26.182h4.023Zm-1.568 12.477v3.75c-.909.341-1.813.643-2.71.904-.898.25-1.841.449-2.83.596-.988.137-2.074.205-3.256.205-2.965 0-5.346-.801-7.142-2.403-1.784-1.603-2.676-4.006-2.676-7.211v-8.386h4.023v8.386c0 1.341.256 2.444.767 3.307a4.781 4.781 0 0 0 2.08 1.926c.875.421 1.858.631 2.948.631 1.705 0 3.245-.153 4.62-.46a34.716 34.716 0 0 0 4.176-1.245ZM681.807 307v-26.182h4.023v11.387h2.659l9.409-11.387h5.182l-10.569 12.614L703.216 307h-5.182l-8.591-11.045h-3.613V307h-4.023Zm29.804-5.932 12.613-20.25h4.637V307h-4.023v-20.25L712.293 307h-4.705v-26.182h4.023v20.25Zm27.55 6.205a2.95 2.95 0 0 1-2.165-.904c-.603-.602-.904-1.324-.904-2.164 0-.841.301-1.563.904-2.165a2.95 2.95 0 0 1 2.165-.904c.84 0 1.562.301 2.164.904a2.95 2.95 0 0 1 .904 2.165c0 .556-.142 1.068-.426 1.534a3.183 3.183 0 0 1-1.108 1.125 2.932 2.932 0 0 1-1.534.409Zm0-19.432a2.954 2.954 0 0 1-2.165-.903c-.603-.603-.904-1.324-.904-2.165s.301-1.563.904-2.165a2.954 2.954 0 0 1 2.165-.903c.84 0 1.562.301 2.164.903a2.95 2.95 0 0 1 .904 2.165c0 .557-.142 1.068-.426 1.534a3.183 3.183 0 0 1-1.108 1.125 2.922 2.922 0 0 1-1.534.409Zm35.991-15.75V307h-4.227v-30.477h-.205l-8.523 5.659v-4.296l8.728-5.795h4.227Zm21.426 35.386c-2.568 0-4.756-.699-6.562-2.096-1.807-1.409-3.188-3.449-4.142-6.12-.955-2.681-1.432-5.92-1.432-9.716 0-3.772.477-6.994 1.432-9.664.965-2.682 2.352-4.728 4.159-6.137 1.818-1.42 4-2.13 6.545-2.13 2.546 0 4.722.71 6.529 2.13 1.818 1.409 3.204 3.455 4.159 6.137.966 2.67 1.448 5.892 1.448 9.664 0 3.796-.477 7.035-1.431 9.716-.955 2.671-2.336 4.711-4.142 6.12-1.807 1.397-3.995 2.096-6.563 2.096Zm0-3.75c2.546 0 4.523-1.227 5.932-3.682 1.409-2.454 2.114-5.954 2.114-10.5 0-3.022-.324-5.596-.972-7.721-.636-2.125-1.557-3.744-2.761-4.858-1.194-1.114-2.631-1.671-4.313-1.671-2.523 0-4.494 1.245-5.915 3.733-1.42 2.478-2.13 5.983-2.13 10.517 0 3.023.318 5.591.954 7.705.637 2.114 1.551 3.722 2.745 4.824 1.204 1.102 2.653 1.653 4.346 1.653Zm-327.896 95.818c0 3.682-.665 6.864-1.994 9.546-1.33 2.682-3.154 4.75-5.472 6.204-2.318 1.455-4.966 2.182-7.943 2.182-2.978 0-5.625-.727-7.943-2.182-2.319-1.454-4.142-3.522-5.472-6.204s-1.994-5.864-1.994-9.546c0-3.681.664-6.863 1.994-9.545 1.33-2.682 3.153-4.75 5.472-6.205 2.318-1.454 4.965-2.181 7.943-2.181 2.977 0 5.625.727 7.943 2.181 2.318 1.455 4.142 3.523 5.472 6.205 1.329 2.682 1.994 5.864 1.994 9.545Zm-4.091 0c0-3.022-.506-5.573-1.517-7.653-1-2.08-2.358-3.653-4.074-4.722-1.705-1.068-3.614-1.602-5.727-1.602-2.114 0-4.029.534-5.745 1.602-1.704 1.069-3.062 2.642-4.073 4.722-1 2.08-1.5 4.631-1.5 7.653 0 3.023.5 5.574 1.5 7.654 1.011 2.079 2.369 3.653 4.073 4.721 1.716 1.069 3.631 1.603 5.745 1.603 2.113 0 4.022-.534 5.727-1.603 1.716-1.068 3.074-2.642 4.074-4.721 1.011-2.08 1.517-4.631 1.517-7.654Zm21.29 18c-2.455 0-4.568-.579-6.341-1.738-1.773-1.159-3.137-2.756-4.091-4.79-.955-2.034-1.432-4.358-1.432-6.972 0-2.659.489-5.005 1.466-7.039.989-2.046 2.364-3.642 4.125-4.79 1.773-1.159 3.841-1.739 6.204-1.739 1.841 0 3.5.341 4.978 1.023 1.477.682 2.687 1.636 3.63 2.864.944 1.227 1.529 2.659 1.756 4.295h-4.023c-.306-1.193-.988-2.25-2.045-3.17-1.045-.932-2.455-1.398-4.227-1.398-1.568 0-2.943.409-4.125 1.227-1.171.807-2.086 1.949-2.745 3.426-.647 1.466-.971 3.188-.971 5.165 0 2.023.318 3.784.954 5.284.648 1.5 1.557 2.665 2.728 3.495 1.181.829 2.568 1.244 4.159 1.244 1.045 0 1.994-.182 2.846-.546a5.858 5.858 0 0 0 2.165-1.568c.591-.682 1.011-1.5 1.261-2.454h4.023a9.327 9.327 0 0 1-1.687 4.176c-.887 1.227-2.063 2.204-3.529 2.932-1.454.716-3.147 1.073-5.079 1.073Zm14.113-22.977v-3.75h21.273v3.75h-8.591V417h-4.023v-22.432h-8.659Zm33.486 23.046c-1.659 0-3.165-.313-4.517-.938-1.352-.636-2.426-1.551-3.222-2.744-.795-1.205-1.193-2.659-1.193-4.364 0-1.5.296-2.716.887-3.648a6.252 6.252 0 0 1 2.369-2.215c.989-.535 2.08-.932 3.273-1.194a40.001 40.001 0 0 1 3.63-.647 166.03 166.03 0 0 1 3.87-.461c1-.113 1.727-.301 2.182-.562.465-.261.698-.716.698-1.364v-.136c0-1.682-.46-2.989-1.38-3.921-.909-.931-2.29-1.397-4.142-1.397-1.921 0-3.426.42-4.517 1.261-1.091.841-1.858 1.739-2.302 2.693l-3.818-1.363c.682-1.591 1.591-2.83 2.728-3.716a10.202 10.202 0 0 1 3.75-1.875 15.547 15.547 0 0 1 4.022-.546c.841 0 1.807.103 2.898.307a9.29 9.29 0 0 1 3.188 1.21c1.034.614 1.892 1.54 2.573 2.779.682 1.238 1.023 2.897 1.023 4.977V417h-4.023v-3.545h-.204c-.273.568-.727 1.176-1.364 1.823-.636.648-1.483 1.199-2.54 1.654-1.056.454-2.346.682-3.869.682Zm.614-3.614c1.591 0 2.932-.312 4.022-.938 1.103-.624 1.932-1.431 2.489-2.42.568-.989.852-2.028.852-3.119v-3.682c-.17.204-.545.392-1.125.562-.568.159-1.227.302-1.977.427-.739.113-1.46.215-2.165.306-.693.08-1.255.148-1.687.205a15.317 15.317 0 0 0-2.932.665c-.898.295-1.625.744-2.182 1.346-.545.591-.818 1.398-.818 2.421 0 1.397.517 2.454 1.551 3.17 1.046.705 2.369 1.057 3.972 1.057Zm16.41 3v-3.75h.955c.784 0 1.437-.153 1.96-.46.523-.318.943-.87 1.261-1.654.33-.795.58-1.897.75-3.306.182-1.421.313-3.228.392-5.421l.478-11.591h17.454V417h-4.022v-22.432h-9.614l-.409 9.341c-.091 2.148-.284 4.04-.58 5.676-.284 1.625-.721 2.989-1.312 4.091-.58 1.102-1.353 1.932-2.318 2.489-.966.557-2.177.835-3.631.835h-1.364Zm41.267.545c-2.363 0-4.437-.562-6.221-1.687-1.773-1.125-3.159-2.699-4.159-4.722-.989-2.022-1.483-4.386-1.483-7.091 0-2.727.494-5.108 1.483-7.142 1-2.034 2.386-3.613 4.159-4.738 1.784-1.125 3.858-1.688 6.221-1.688 2.364 0 4.432.563 6.205 1.688 1.784 1.125 3.17 2.704 4.159 4.738 1 2.034 1.5 4.415 1.5 7.142 0 2.705-.5 5.069-1.5 7.091-.989 2.023-2.375 3.597-4.159 4.722-1.773 1.125-3.841 1.687-6.205 1.687Zm0-3.613c1.796 0 3.273-.46 4.432-1.381 1.159-.92 2.017-2.131 2.574-3.631.557-1.5.835-3.125.835-4.875s-.278-3.38-.835-4.892c-.557-1.511-1.415-2.733-2.574-3.664-1.159-.932-2.636-1.398-4.432-1.398-1.795 0-3.272.466-4.432 1.398-1.159.931-2.017 2.153-2.573 3.664-.557 1.512-.836 3.142-.836 4.892 0 1.75.279 3.375.836 4.875.556 1.5 1.414 2.711 2.573 3.631 1.16.921 2.637 1.381 4.432 1.381Zm28.641 3.613c-2.455 0-4.568-.579-6.341-1.738-1.773-1.159-3.136-2.756-4.091-4.79-.954-2.034-1.432-4.358-1.432-6.972 0-2.659.489-5.005 1.466-7.039.989-2.046 2.364-3.642 4.125-4.79 1.773-1.159 3.841-1.739 6.205-1.739 1.841 0 3.5.341 4.977 1.023 1.477.682 2.688 1.636 3.631 2.864.943 1.227 1.528 2.659 1.755 4.295h-4.022c-.307-1.193-.989-2.25-2.046-3.17-1.045-.932-2.454-1.398-4.227-1.398-1.568 0-2.943.409-4.125 1.227-1.171.807-2.085 1.949-2.744 3.426-.648 1.466-.972 3.188-.972 5.165 0 2.023.318 3.784.955 5.284.647 1.5 1.556 2.665 2.727 3.495 1.182.829 2.568 1.244 4.159 1.244 1.045 0 1.994-.182 2.847-.546a5.862 5.862 0 0 0 2.164-1.568c.591-.682 1.012-1.5 1.262-2.454h4.022a9.315 9.315 0 0 1-1.687 4.176c-.886 1.227-2.063 2.204-3.529 2.932-1.454.716-3.147 1.073-5.079 1.073Zm19.653-17.25h7.5c3.069 0 5.415.779 7.04 2.336 1.625 1.556 2.438 3.528 2.438 5.914 0 1.569-.364 2.995-1.091 4.279-.728 1.273-1.796 2.29-3.205 3.051-1.409.75-3.136 1.125-5.182 1.125h-10.977v-26.182h4.023v22.432h6.954c1.591 0 2.898-.42 3.921-1.261 1.023-.841 1.534-1.921 1.534-3.239 0-1.386-.511-2.517-1.534-3.392-1.023-.875-2.33-1.313-3.921-1.313h-7.5v-3.75Zm48.806-18.204V417h-4.228v-30.477h-.204l-8.523 5.659v-4.296l8.727-5.795h4.228Zm21.426 35.386c-2.568 0-4.756-.699-6.563-2.096-1.806-1.409-3.187-3.449-4.142-6.12-.954-2.681-1.431-5.92-1.431-9.716 0-3.772.477-6.994 1.431-9.664.966-2.682 2.353-4.728 4.159-6.137 1.819-1.42 4-2.13 6.546-2.13 2.545 0 4.721.71 6.528 2.13 1.818 1.409 3.205 3.455 4.159 6.137.966 2.67 1.449 5.892 1.449 9.664 0 3.796-.477 7.035-1.432 9.716-.954 2.671-2.335 4.711-4.142 6.12-1.806 1.397-3.994 2.096-6.562 2.096Zm0-3.75c2.545 0 4.523-1.227 5.932-3.682 1.409-2.454 2.113-5.954 2.113-10.5 0-3.022-.324-5.596-.971-7.721-.637-2.125-1.557-3.744-2.762-4.858-1.193-1.114-2.63-1.671-4.312-1.671-2.523 0-4.494 1.245-5.915 3.733-1.42 2.478-2.131 5.983-2.131 10.517 0 3.023.319 5.591.955 7.705.636 2.114 1.551 3.722 2.744 4.824 1.205 1.102 2.654 1.653 4.347 1.653ZM742.479 417v-26.182h20.591V417h-4.023v-22.432h-12.546V417h-4.022Zm27.937 9.818v-36h3.887v4.159h.477c.295-.454.704-1.034 1.227-1.738.534-.716 1.296-1.353 2.284-1.909 1-.569 2.352-.853 4.057-.853 2.205 0 4.148.551 5.83 1.654 1.681 1.102 2.994 2.664 3.937 4.687.943 2.023 1.415 4.409 1.415 7.159 0 2.773-.472 5.176-1.415 7.211-.943 2.022-2.25 3.59-3.92 4.704-1.671 1.102-3.597 1.653-5.779 1.653-1.682 0-3.028-.278-4.04-.835-1.011-.568-1.789-1.21-2.335-1.926a25.538 25.538 0 0 1-1.261-1.807h-.341v13.841h-4.023Zm3.955-22.909c0 1.977.29 3.722.869 5.233.58 1.5 1.426 2.676 2.54 3.528 1.113.841 2.477 1.262 4.091 1.262 1.682 0 3.085-.443 4.21-1.33 1.136-.897 1.989-2.102 2.557-3.613.579-1.523.869-3.216.869-5.08 0-1.841-.284-3.5-.852-4.977-.557-1.489-1.404-2.665-2.54-3.529-1.125-.875-2.54-1.312-4.244-1.312-1.637 0-3.012.415-4.125 1.244-1.114.818-1.955 1.966-2.523 3.443-.568 1.466-.852 3.177-.852 5.131Zm29.318 7.159 12.614-20.25h4.636V417h-4.023v-20.25L804.371 417h-4.705v-26.182h4.023v20.25Zm38.936.477 9.136-20.727h3.819L844.261 417h-3.272l-11.114-26.182h3.75l9 20.727Zm-10.295-20.727V417h-4.023v-26.182h4.023ZM852.92 417v-26.182h4.023V417h-4.023Zm22.364.545c-2.523 0-4.699-.556-6.528-1.67-1.818-1.125-3.222-2.693-4.211-4.705-.977-2.022-1.465-4.375-1.465-7.056 0-2.682.488-5.046 1.465-7.091.989-2.057 2.364-3.659 4.125-4.807 1.773-1.159 3.841-1.739 6.205-1.739 1.364 0 2.71.228 4.04.682 1.329.455 2.54 1.193 3.63 2.216 1.091 1.011 1.961 2.352 2.608 4.023.648 1.67.972 3.727.972 6.17v1.705h-20.182v-3.478h16.091c0-1.477-.295-2.795-.886-3.954a6.677 6.677 0 0 0-2.489-2.744c-1.068-.671-2.329-1.006-3.784-1.006-1.602 0-2.989.398-4.159 1.193a7.85 7.85 0 0 0-2.676 3.068 9.017 9.017 0 0 0-.938 4.057v2.318c0 1.978.341 3.654 1.023 5.029.693 1.363 1.653 2.403 2.881 3.119 1.227.705 2.653 1.057 4.278 1.057 1.057 0 2.011-.148 2.864-.443a6.142 6.142 0 0 0 2.233-1.364c.625-.614 1.108-1.375 1.449-2.284l3.886 1.091a8.616 8.616 0 0 1-2.063 3.477c-.965.989-2.159 1.761-3.579 2.318-1.421.546-3.017.818-4.79.818Zm16.96 9.273v-36h3.887v4.159h.477c.295-.454.705-1.034 1.227-1.738.534-.716 1.296-1.353 2.284-1.909 1-.569 2.353-.853 4.057-.853 2.205 0 4.148.551 5.83 1.654 1.682 1.102 2.994 2.664 3.937 4.687.943 2.023 1.415 4.409 1.415 7.159 0 2.773-.472 5.176-1.415 7.211-.943 2.022-2.25 3.59-3.92 4.704-1.671 1.102-3.597 1.653-5.779 1.653-1.681 0-3.028-.278-4.039-.835-1.012-.568-1.79-1.21-2.336-1.926a25.538 25.538 0 0 1-1.261-1.807h-.341v13.841h-4.023Zm3.955-22.909c0 1.977.29 3.722.869 5.233.58 1.5 1.426 2.676 2.54 3.528 1.114.841 2.477 1.262 4.091 1.262 1.682 0 3.085-.443 4.21-1.33 1.136-.897 1.989-2.102 2.557-3.613.579-1.523.869-3.216.869-5.08 0-1.841-.284-3.5-.852-4.977-.557-1.489-1.403-2.665-2.54-3.529-1.125-.875-2.54-1.312-4.244-1.312-1.636 0-3.011.415-4.125 1.244-1.114.818-1.955 1.966-2.523 3.443-.568 1.466-.852 3.177-.852 5.131Zm35.932 13.636c-2.364 0-4.438-.562-6.222-1.687-1.773-1.125-3.159-2.699-4.159-4.722-.989-2.022-1.483-4.386-1.483-7.091 0-2.727.494-5.108 1.483-7.142 1-2.034 2.386-3.613 4.159-4.738 1.784-1.125 3.858-1.688 6.222-1.688 2.363 0 4.432.563 6.204 1.688 1.784 1.125 3.171 2.704 4.159 4.738 1 2.034 1.5 4.415 1.5 7.142 0 2.705-.5 5.069-1.5 7.091-.988 2.023-2.375 3.597-4.159 4.722-1.772 1.125-3.841 1.687-6.204 1.687Zm0-3.613c1.795 0 3.272-.46 4.431-1.381 1.16-.92 2.018-2.131 2.574-3.631.557-1.5.836-3.125.836-4.875s-.279-3.38-.836-4.892c-.556-1.511-1.414-2.733-2.574-3.664-1.159-.932-2.636-1.398-4.431-1.398-1.796 0-3.273.466-4.432 1.398-1.159.931-2.017 2.153-2.574 3.664-.557 1.512-.835 3.142-.835 4.892 0 1.75.278 3.375.835 4.875.557 1.5 1.415 2.711 2.574 3.631 1.159.921 2.636 1.381 4.432 1.381ZM950.135 417v-26.182h10.704c2.819 0 5.057.637 6.716 1.909 1.659 1.273 2.489 2.955 2.489 5.046 0 1.591-.472 2.824-1.415 3.699-.943.863-2.153 1.448-3.63 1.755.965.137 1.903.478 2.812 1.023.921.545 1.682 1.295 2.284 2.25.602.943.904 2.102.904 3.477 0 1.341-.341 2.54-1.023 3.597-.682 1.057-1.659 1.892-2.932 2.506-1.273.613-2.795.92-4.568.92h-12.341Zm3.818-3.682h8.523c1.386 0 2.471-.329 3.256-.988.784-.66 1.176-1.557 1.176-2.694 0-1.352-.392-2.414-1.176-3.187-.785-.784-1.87-1.176-3.256-1.176h-8.523v8.045Zm0-11.523h6.886c1.08 0 2.006-.147 2.779-.443.773-.307 1.364-.738 1.773-1.295.42-.568.63-1.239.63-2.012 0-1.102-.46-1.965-1.38-2.59-.921-.637-2.188-.955-3.802-.955h-6.886v7.295Z"/>
  </g>
  <defs>
    <clipPath id="a">
      <path fill="#fff" d="M0 0h1440v1024H0z"/>
    </clipPath>
  </defs>
</svg>
