<svg xmlns="http://www.w3.org/2000/svg" width="1440" height="1024" fill="none" viewBox="0 0 1440 1024">
  <g clip-path="url(#a)">
    <path fill="#fff" d="M0 0h1440v1024H0z"/>
    <path fill="#000" d="M554.83 279.67c-2.898 0-5.46-.397-7.685-1.193-2.225-.786-4.096-1.946-5.611-3.48-1.515-1.534-2.661-3.414-3.437-5.639-.777-2.225-1.165-4.773-1.165-7.642 0-2.775.393-5.256 1.179-7.443.795-2.188 1.946-4.044 3.451-5.568 1.516-1.535 3.353-2.704 5.512-3.509 2.168-.805 4.621-1.207 7.358-1.207 2.661 0 4.99.435 6.988 1.306 2.008.862 3.684 2.032 5.029 3.509a14.717 14.717 0 0 1 3.04 4.957 16.22 16.22 0 0 1 1.022 5.682c0 1.373-.066 2.765-.199 4.176-.132 1.411-.411 2.709-.838 3.892-.426 1.175-1.084 2.122-1.974 2.841-.881.72-2.074 1.08-3.58 1.08-.662 0-1.392-.104-2.187-.313a5.747 5.747 0 0 1-2.117-1.037c-.615-.483-.98-1.131-1.093-1.946h-.171c-.227.55-.577 1.07-1.051 1.563-.464.492-1.075.885-1.832 1.179-.748.293-1.662.421-2.742.383-1.231-.047-2.315-.322-3.253-.823a7.097 7.097 0 0 1-2.358-2.074c-.625-.881-1.098-1.899-1.42-3.054-.312-1.165-.469-2.42-.469-3.765 0-1.278.19-2.447.568-3.508a8.909 8.909 0 0 1 1.577-2.784 7.963 7.963 0 0 1 2.387-1.904 8.177 8.177 0 0 1 2.968-.894c.947-.095 1.809-.053 2.585.127.777.171 1.416.431 1.918.782.502.341.819.719.952 1.136h.17v-1.591h3.012v12.841c0 .795.222 1.496.667 2.102.445.606 1.094.909 1.946.909.966 0 1.705-.331 2.216-.994.521-.663.876-1.686 1.066-3.068.198-1.383.298-3.154.298-5.313 0-1.269-.175-2.519-.526-3.75-.341-1.24-.861-2.4-1.562-3.48a11.381 11.381 0 0 0-2.628-2.855c-1.061-.824-2.306-1.468-3.736-1.932-1.42-.473-3.035-.71-4.844-.71-2.225 0-4.218.346-5.98 1.037-1.752.682-3.243 1.681-4.474 2.997-1.222 1.307-2.155 2.898-2.798 4.773-.635 1.865-.952 3.987-.952 6.364 0 2.414.317 4.559.952 6.434.643 1.875 1.59 3.457 2.84 4.745 1.26 1.287 2.818 2.263 4.674 2.926 1.856.672 3.996 1.008 6.42 1.008 1.042 0 2.069-.099 3.083-.298a27.264 27.264 0 0 0 2.684-.654 71.167 71.167 0 0 0 1.676-.525l.796 2.614c-.587.246-1.354.492-2.301.738a28.74 28.74 0 0 1-3.012.611c-1.06.161-2.074.241-3.039.241Zm-1.648-11.306c1.269 0 2.296-.256 3.082-.767.786-.512 1.359-1.284 1.719-2.316.36-1.032.54-2.334.54-3.906 0-1.591-.199-2.831-.597-3.722-.398-.89-.985-1.515-1.761-1.875-.777-.359-1.733-.539-2.87-.539-1.079 0-2.002.284-2.769.852-.758.559-1.34 1.307-1.748 2.244-.397.928-.596 1.942-.596 3.04 0 1.212.161 2.353.483 3.423.322 1.061.847 1.923 1.576 2.586.73.653 1.71.98 2.941.98Zm30.586 4.091c-1.818 0-3.424-.46-4.816-1.378-1.392-.928-2.481-2.235-3.267-3.921-.786-1.695-1.179-3.698-1.179-6.008 0-2.292.393-4.281 1.179-5.966.786-1.686 1.88-2.988 3.282-3.906 1.401-.919 3.02-1.378 4.858-1.378 1.42 0 2.542.236 3.366.71.833.464 1.468.994 1.903 1.591.446.587.791 1.07 1.037 1.449h.284v-10.739h3.353V272h-3.239v-3.352h-.398c-.246.397-.596.899-1.051 1.505-.454.597-1.103 1.132-1.946 1.606-.843.464-1.965.696-3.366.696Zm.454-3.012c1.345 0 2.481-.35 3.409-1.051.928-.71 1.634-1.69 2.117-2.94.483-1.26.724-2.713.724-4.361 0-1.629-.236-3.054-.71-4.276-.473-1.231-1.174-2.187-2.102-2.869-.928-.691-2.074-1.037-3.438-1.037-1.42 0-2.604.365-3.551 1.094-.937.72-1.643 1.7-2.116 2.94-.464 1.231-.696 2.614-.696 4.148 0 1.553.236 2.964.71 4.233.483 1.259 1.193 2.263 2.131 3.011.947.739 2.121 1.108 3.522 1.108Zm31.605-14.375-3.011.852a5.614 5.614 0 0 0-.838-1.463c-.36-.483-.852-.88-1.477-1.193-.625-.312-1.425-.469-2.401-.469-1.335 0-2.448.308-3.338.924-.881.606-1.321 1.378-1.321 2.315 0 .833.303 1.492.909 1.975.606.482 1.553.885 2.841 1.207l3.239.795c1.95.474 3.404 1.198 4.36 2.174.957.966 1.435 2.211 1.435 3.735 0 1.25-.36 2.368-1.079 3.353-.711.985-1.705 1.761-2.983 2.329-1.279.568-2.766.853-4.461.853-2.225 0-4.067-.483-5.525-1.449-1.458-.966-2.382-2.377-2.77-4.233l3.182-.796c.303 1.175.876 2.055 1.719 2.642.852.587 1.964.881 3.338.881 1.562 0 2.803-.331 3.721-.994.928-.673 1.392-1.478 1.392-2.415 0-.758-.265-1.392-.795-1.903-.531-.521-1.345-.91-2.443-1.165l-3.637-.853c-1.998-.473-3.466-1.207-4.403-2.201-.928-1.004-1.392-2.259-1.392-3.764 0-1.232.345-2.321 1.037-3.267.7-.947 1.652-1.691 2.855-2.231 1.212-.539 2.585-.809 4.119-.809 2.159 0 3.854.473 5.085 1.42 1.241.947 2.122 2.197 2.642 3.75Zm13.683 17.387c-1.818 0-3.423-.46-4.815-1.378-1.392-.928-2.481-2.235-3.267-3.921-.786-1.695-1.179-3.698-1.179-6.008 0-2.292.393-4.281 1.179-5.966.786-1.686 1.879-2.988 3.281-3.906 1.401-.919 3.021-1.378 4.858-1.378 1.42 0 2.542.236 3.366.71.834.464 1.468.994 1.904 1.591.445.587.79 1.07 1.037 1.449h.284v-10.739h3.352V272h-3.239v-3.352h-.397c-.247.397-.597.899-1.052 1.505-.454.597-1.103 1.132-1.946 1.606-.842.464-1.965.696-3.366.696Zm.454-3.012c1.345 0 2.482-.35 3.41-1.051.928-.71 1.633-1.69 2.116-2.94.483-1.26.724-2.713.724-4.361 0-1.629-.236-3.054-.71-4.276-.473-1.231-1.174-2.187-2.102-2.869-.928-.691-2.074-1.037-3.438-1.037-1.42 0-2.604.365-3.551 1.094-.937.72-1.643 1.7-2.116 2.94-.464 1.231-.696 2.614-.696 4.148 0 1.553.237 2.964.71 4.233.483 1.259 1.193 2.263 2.131 3.011.947.739 2.121 1.108 3.522 1.108Zm19.276-5.398-.057-4.147h.682l9.546-9.716h4.147l-10.17 10.284h-.284l-3.864 3.579ZM646.115 272v-29.091h3.352V272h-3.352Zm13.864 0-8.523-10.795 2.386-2.33L664.24 272h-4.261Zm22.951 0v3.125h-18.182V272h18.182Zm6.154-7.955-.057-4.147h.682l9.545-9.716h4.148l-10.17 10.284h-.285l-3.863 3.579ZM685.959 272v-29.091h3.352V272h-3.352Zm13.863 0-8.522-10.795 2.386-2.33L704.084 272h-4.262Zm15.235.455c-1.818 0-3.423-.46-4.816-1.378-1.392-.928-2.481-2.235-3.267-3.921-.786-1.695-1.179-3.698-1.179-6.008 0-2.292.393-4.281 1.179-5.966.786-1.686 1.88-2.988 3.282-3.906 1.401-.919 3.021-1.378 4.858-1.378 1.42 0 2.542.236 3.366.71.833.464 1.468.994 1.904 1.591.445.587.79 1.07 1.036 1.449h.285v-10.739h3.352V272h-3.239v-3.352h-.398c-.246.397-.596.899-1.051 1.505-.454.597-1.103 1.132-1.946 1.606-.843.464-1.965.696-3.366.696Zm.454-3.012c1.345 0 2.481-.35 3.409-1.051.928-.71 1.634-1.69 2.117-2.94.483-1.26.724-2.713.724-4.361 0-1.629-.236-3.054-.71-4.276-.473-1.231-1.174-2.187-2.102-2.869-.928-.691-2.074-1.037-3.438-1.037-1.42 0-2.604.365-3.551 1.094-.937.72-1.643 1.7-2.116 2.94-.464 1.231-.696 2.614-.696 4.148 0 1.553.236 2.964.71 4.233.483 1.259 1.193 2.263 2.131 3.011.947.739 2.121 1.108 3.522 1.108Zm19.276-5.398-.057-4.147h.682l9.545-9.716h4.148l-10.17 10.284h-.284l-3.864 3.579ZM731.662 272v-29.091h3.352V272h-3.352Zm13.864 0-8.523-10.795 2.386-2.33L749.787 272h-4.261Zm15.234.455c-1.818 0-3.423-.46-4.815-1.378-1.392-.928-2.481-2.235-3.267-3.921-.786-1.695-1.179-3.698-1.179-6.008 0-2.292.393-4.281 1.179-5.966.786-1.686 1.879-2.988 3.281-3.906 1.401-.919 3.021-1.378 4.858-1.378 1.42 0 2.542.236 3.366.71.834.464 1.468.994 1.904 1.591.445.587.79 1.07 1.037 1.449h.284v-10.739h3.352V272h-3.239v-3.352h-.397c-.247.397-.597.899-1.052 1.505-.454.597-1.103 1.132-1.946 1.606-.842.464-1.965.696-3.366.696Zm.454-3.012c1.345 0 2.482-.35 3.41-1.051.928-.71 1.633-1.69 2.116-2.94.483-1.26.724-2.713.724-4.361 0-1.629-.236-3.054-.71-4.276-.473-1.231-1.174-2.187-2.102-2.869-.928-.691-2.074-1.037-3.438-1.037-1.42 0-2.604.365-3.551 1.094-.937.72-1.643 1.7-2.116 2.94-.464 1.231-.696 2.614-.696 4.148 0 1.553.237 2.964.71 4.233.483 1.259 1.193 2.263 2.131 3.011.947.739 2.121 1.108 3.522 1.108Zm-222.691 78.466h4.204l9.887 24.148h.341l9.886-24.148h4.204V377h-3.295v-22.102h-.284L554.375 377h-3.182l-9.091-22.102h-.284V377h-3.295v-29.091Zm43.995 29.546c-1.97 0-3.698-.469-5.185-1.407-1.477-.937-2.632-2.249-3.466-3.934-.824-1.686-1.236-3.656-1.236-5.909 0-2.273.412-4.257 1.236-5.952.834-1.695 1.989-3.012 3.466-3.949 1.487-.938 3.215-1.406 5.185-1.406 1.969 0 3.693.468 5.17 1.406 1.487.937 2.642 2.254 3.466 3.949.833 1.695 1.25 3.679 1.25 5.952 0 2.253-.417 4.223-1.25 5.909-.824 1.685-1.979 2.997-3.466 3.934-1.477.938-3.201 1.407-5.17 1.407Zm0-3.012c1.496 0 2.727-.383 3.693-1.15.966-.767 1.681-1.776 2.145-3.026.464-1.25.696-2.604.696-4.062 0-1.459-.232-2.818-.696-4.077-.464-1.26-1.179-2.278-2.145-3.054-.966-.777-2.197-1.165-3.693-1.165s-2.728.388-3.693 1.165c-.966.776-1.681 1.794-2.145 3.054-.464 1.259-.696 2.618-.696 4.077 0 1.458.232 2.812.696 4.062.464 1.25 1.179 2.259 2.145 3.026.965.767 2.197 1.15 3.693 1.15Zm24.151 3.012c-2.102 0-3.916-.464-5.44-1.393-1.515-.937-2.685-2.244-3.509-3.92-.814-1.686-1.221-3.646-1.221-5.881 0-2.234.407-4.204 1.221-5.909.824-1.714 1.97-3.049 3.438-4.005 1.477-.966 3.2-1.449 5.17-1.449 1.136 0 2.259.189 3.367.568 1.108.379 2.116.994 3.025 1.846.909.843 1.634 1.961 2.173 3.353.54 1.392.81 3.106.81 5.142v1.42h-16.818v-2.897h13.409c0-1.232-.246-2.33-.739-3.296a5.57 5.57 0 0 0-2.073-2.287c-.891-.559-1.942-.838-3.154-.838-1.335 0-2.49.332-3.466.994a6.546 6.546 0 0 0-2.23 2.557 7.509 7.509 0 0 0-.781 3.381v1.932c0 1.647.284 3.044.852 4.19.578 1.136 1.378 2.003 2.401 2.599 1.022.588 2.211.881 3.565.881.881 0 1.676-.123 2.386-.369a5.123 5.123 0 0 0 1.861-1.136c.521-.512.923-1.146 1.208-1.904l3.238.909a7.177 7.177 0 0 1-1.719 2.898c-.804.824-1.799 1.468-2.982 1.932-1.184.454-2.515.682-3.992.682Zm-4.602-25.91c-.597 0-1.127-.227-1.591-.681-.455-.464-.682-.995-.682-1.591 0-.654.227-1.193.682-1.62.464-.435.994-.653 1.591-.653.653 0 1.193.218 1.619.653.436.427.653.966.653 1.62 0 .596-.217 1.127-.653 1.591-.426.454-.966.681-1.619.681Zm8.182 0c-.597 0-1.127-.227-1.591-.681-.455-.464-.682-.995-.682-1.591 0-.654.227-1.193.682-1.62.464-.435.994-.653 1.591-.653.653 0 1.193.218 1.619.653.436.427.653.966.653 1.62 0 .596-.217 1.127-.653 1.591-.426.454-.966.681-1.619.681Zm30.667 25.91c-1.97 0-3.698-.469-5.184-1.407-1.478-.937-2.633-2.249-3.466-3.934-.824-1.686-1.236-3.656-1.236-5.909 0-2.273.412-4.257 1.236-5.952.833-1.695 1.988-3.012 3.466-3.949 1.486-.938 3.214-1.406 5.184-1.406 1.97 0 3.693.468 5.171 1.406 1.486.937 2.642 2.254 3.466 3.949.833 1.695 1.25 3.679 1.25 5.952 0 2.253-.417 4.223-1.25 5.909-.824 1.685-1.98 2.997-3.466 3.934-1.478.938-3.201 1.407-5.171 1.407Zm0-3.012c1.496 0 2.727-.383 3.693-1.15.966-.767 1.681-1.776 2.145-3.026.464-1.25.696-2.604.696-4.062 0-1.459-.232-2.818-.696-4.077-.464-1.26-1.179-2.278-2.145-3.054-.966-.777-2.197-1.165-3.693-1.165s-2.727.388-3.693 1.165c-.966.776-1.681 1.794-2.145 3.054-.464 1.259-.696 2.618-.696 4.077 0 1.458.232 2.812.696 4.062.464 1.25 1.179 2.259 2.145 3.026.966.767 2.197 1.15 3.693 1.15ZM655.92 377v-21.818h17.159V377h-3.352v-18.693h-10.455V377h-3.352Zm26.633-4.943 10.512-16.875h3.863V377h-3.352v-16.875L683.121 377h-3.92v-21.818h3.352v16.875Zm29.379 5.398c-2.046 0-3.807-.483-5.284-1.449-1.478-.966-2.614-2.297-3.409-3.992-.796-1.695-1.194-3.631-1.194-5.809 0-2.216.408-4.172 1.222-5.867.824-1.704 1.97-3.035 3.438-3.991 1.477-.966 3.2-1.449 5.17-1.449 1.534 0 2.917.284 4.148.852 1.231.568 2.239 1.364 3.025 2.386.786 1.023 1.274 2.216 1.463 3.58h-3.352c-.256-.994-.824-1.875-1.704-2.642-.872-.777-2.046-1.165-3.523-1.165-1.307 0-2.453.341-3.438 1.023-.975.672-1.737 1.624-2.287 2.855-.539 1.222-.809 2.656-.809 4.304 0 1.686.265 3.153.795 4.403.54 1.25 1.298 2.221 2.273 2.912.985.692 2.14 1.037 3.466 1.037.871 0 1.662-.151 2.372-.454a4.894 4.894 0 0 0 1.804-1.307c.492-.568.843-1.25 1.051-2.046h3.352a7.76 7.76 0 0 1-1.406 3.48c-.739 1.023-1.719 1.838-2.94 2.444-1.212.596-2.623.895-4.233.895Zm19.9.056c-1.382 0-2.637-.26-3.764-.781-1.127-.53-2.022-1.292-2.684-2.287-.663-1.004-.995-2.216-.995-3.636 0-1.25.246-2.263.739-3.04a5.216 5.216 0 0 1 1.974-1.847 10.384 10.384 0 0 1 2.728-.994 33.396 33.396 0 0 1 3.025-.54c1.326-.17 2.401-.298 3.225-.383.833-.095 1.439-.251 1.818-.469.388-.218.582-.597.582-1.136v-.114c0-1.401-.383-2.49-1.15-3.267-.758-.776-1.909-1.165-3.452-1.165-1.601 0-2.855.351-3.764 1.051-.909.701-1.549 1.449-1.918 2.245l-3.182-1.137c.568-1.325 1.326-2.358 2.273-3.096a8.523 8.523 0 0 1 3.125-1.563 12.973 12.973 0 0 1 3.352-.454c.701 0 1.506.085 2.415.255a7.73 7.73 0 0 1 2.656 1.009c.862.511 1.577 1.283 2.145 2.315.568 1.032.852 2.415.852 4.148V377h-3.352v-2.955h-.17c-.228.474-.606.981-1.137 1.52-.53.54-1.235.999-2.116 1.378-.881.379-1.956.568-3.225.568Zm.512-3.011c1.326 0 2.443-.26 3.352-.781.919-.521 1.61-1.193 2.074-2.017.473-.824.71-1.691.71-2.6v-3.068c-.142.171-.454.327-.937.469-.474.132-1.023.251-1.648.355-.616.095-1.217.18-1.804.256-.578.066-1.046.123-1.406.17-.872.114-1.686.298-2.444.554-.748.246-1.354.62-1.818 1.122-.454.493-.682 1.165-.682 2.017 0 1.165.431 2.046 1.293 2.642.871.587 1.975.881 3.31.881Zm30.209-9.943v3.125h-12.045v-3.125h12.045Zm-11.25-9.375V377h-3.352v-21.818h3.352Zm13.807 0V377h-3.352v-21.818h3.352Zm9.475 16.875 10.511-16.875h3.864V377h-3.353v-16.875L775.153 377h-3.921v-21.818h3.353v16.875Zm29.662 5.398c-2.102 0-3.916-.464-5.44-1.393-1.515-.937-2.685-2.244-3.509-3.92-.814-1.686-1.221-3.646-1.221-5.881 0-2.234.407-4.204 1.221-5.909.824-1.714 1.97-3.049 3.438-4.005 1.477-.966 3.201-1.449 5.17-1.449 1.137 0 2.259.189 3.367.568 1.108.379 2.116.994 3.025 1.846.909.843 1.634 1.961 2.174 3.353.539 1.392.809 3.106.809 5.142v1.42h-16.818v-2.897h13.409c0-1.232-.246-2.33-.738-3.296a5.572 5.572 0 0 0-2.074-2.287c-.89-.559-1.942-.838-3.154-.838-1.335 0-2.49.332-3.466.994a6.546 6.546 0 0 0-2.23 2.557 7.509 7.509 0 0 0-.781 3.381v1.932c0 1.647.284 3.044.852 4.19.578 1.136 1.378 2.003 2.401 2.599 1.023.588 2.211.881 3.565.881.881 0 1.676-.123 2.387-.369a5.128 5.128 0 0 0 1.86-1.136c.521-.512.924-1.146 1.208-1.904l3.238.909a7.175 7.175 0 0 1-1.718 2.898c-.805.824-1.8 1.468-2.983 1.932-1.184.454-2.515.682-3.992.682Zm39.986-12.898v3.125h-12.045v-3.125h12.045Zm-11.25-9.375V377h-3.352v-21.818h3.352Zm13.807 0V377h-3.352v-21.818h3.352Zm15.27 22.273c-2.103 0-3.916-.464-5.441-1.393-1.515-.937-2.684-2.244-3.508-3.92-.815-1.686-1.222-3.646-1.222-5.881 0-2.234.407-4.204 1.222-5.909.824-1.714 1.969-3.049 3.437-4.005 1.478-.966 3.201-1.449 5.171-1.449 1.136 0 2.258.189 3.366.568 1.108.379 2.117.994 3.026 1.846.909.843 1.633 1.961 2.173 3.353.54 1.392.81 3.106.81 5.142v1.42h-16.818v-2.897h13.409c0-1.232-.247-2.33-.739-3.296a5.565 5.565 0 0 0-2.074-2.287c-.89-.559-1.941-.838-3.153-.838-1.335 0-2.491.332-3.466.994a6.546 6.546 0 0 0-2.23 2.557 7.51 7.51 0 0 0-.782 3.381v1.932c0 1.647.285 3.044.853 4.19.577 1.136 1.378 2.003 2.4 2.599 1.023.588 2.211.881 3.566.881.88 0 1.676-.123 2.386-.369a5.123 5.123 0 0 0 1.861-1.136c.521-.512.923-1.146 1.207-1.904l3.239.909a7.177 7.177 0 0 1-1.719 2.898c-.805.824-1.799 1.468-2.983 1.932-1.184.454-2.514.682-3.991.682Zm28.735-5.398 10.512-16.875h3.863V377h-3.352v-16.875L891.364 377h-3.921v-21.818h3.352v16.875Zm32.447.398 7.614-17.273h3.182L924.606 377h-2.727l-9.262-21.818h3.125l7.5 17.273Zm-8.579-17.273V377h-3.353v-21.818h3.353ZM931.822 377v-21.818h3.352V377h-3.352Zm18.636.455c-2.102 0-3.916-.464-5.44-1.393-1.515-.937-2.685-2.244-3.509-3.92-.814-1.686-1.221-3.646-1.221-5.881 0-2.234.407-4.204 1.221-5.909.824-1.714 1.97-3.049 3.438-4.005 1.477-.966 3.2-1.449 5.17-1.449 1.137 0 2.259.189 3.367.568 1.108.379 2.116.994 3.025 1.846.909.843 1.634 1.961 2.174 3.353.539 1.392.809 3.106.809 5.142v1.42h-16.818v-2.897h13.409c0-1.232-.246-2.33-.739-3.296a5.563 5.563 0 0 0-2.073-2.287c-.891-.559-1.942-.838-3.154-.838-1.335 0-2.49.332-3.466.994a6.546 6.546 0 0 0-2.23 2.557 7.509 7.509 0 0 0-.781 3.381v1.932c0 1.647.284 3.044.852 4.19.578 1.136 1.378 2.003 2.401 2.599 1.022.588 2.211.881 3.565.881.881 0 1.676-.123 2.386-.369a5.123 5.123 0 0 0 1.861-1.136c.521-.512.924-1.146 1.208-1.904l3.238.909a7.186 7.186 0 0 1-1.718 2.898c-.805.824-1.8 1.468-2.983 1.932-1.184.454-2.515.682-3.992.682Zm23.281 0c-2.102 0-3.915-.464-5.44-1.393-1.515-.937-2.685-2.244-3.509-3.92-.814-1.686-1.221-3.646-1.221-5.881 0-2.234.407-4.204 1.221-5.909.824-1.714 1.97-3.049 3.438-4.005 1.477-.966 3.201-1.449 5.17-1.449 1.137 0 2.259.189 3.367.568 1.108.379 2.116.994 3.025 1.846.91.843 1.634 1.961 2.174 3.353.54 1.392.809 3.106.809 5.142v1.42h-16.818v-2.897h13.409c0-1.232-.246-2.33-.738-3.296a5.572 5.572 0 0 0-2.074-2.287c-.89-.559-1.941-.838-3.154-.838-1.335 0-2.49.332-3.465.994a6.549 6.549 0 0 0-2.231 2.557 7.522 7.522 0 0 0-.781 3.381v1.932c0 1.647.284 3.044.852 4.19.578 1.136 1.378 2.003 2.401 2.599 1.023.588 2.211.881 3.565.881.881 0 1.676-.123 2.387-.369a5.132 5.132 0 0 0 1.861-1.136c.52-.512.923-1.146 1.207-1.904l3.239.909a7.177 7.177 0 0 1-1.719 2.898c-.805.824-1.799 1.468-2.983 1.932-1.184.454-2.514.682-3.992.682Zm12.103-19.148v-3.125h17.728v3.125h-7.16V377h-3.352v-18.693h-7.216Zm-438.91 67.148c-2.046 0-3.807-.483-5.284-1.449-1.478-.966-2.614-2.297-3.409-3.992-.796-1.695-1.194-3.631-1.194-5.809 0-2.216.408-4.172 1.222-5.867.824-1.704 1.97-3.035 3.438-3.991 1.477-.966 3.2-1.449 5.17-1.449 1.534 0 2.917.284 4.148.852 1.231.568 2.239 1.364 3.025 2.386.786 1.023 1.274 2.216 1.463 3.58h-3.352c-.256-.994-.824-1.875-1.704-2.642-.872-.777-2.046-1.165-3.523-1.165-1.307 0-2.453.341-3.438 1.023-.975.672-1.737 1.624-2.287 2.855-.539 1.222-.809 2.656-.809 4.304 0 1.686.265 3.153.795 4.403.54 1.25 1.298 2.221 2.273 2.912.985.692 2.14 1.037 3.466 1.037.871 0 1.662-.151 2.372-.454a4.894 4.894 0 0 0 1.804-1.307c.492-.568.843-1.25 1.051-2.046h3.352a7.76 7.76 0 0 1-1.406 3.48c-.739 1.023-1.719 1.838-2.94 2.444-1.212.596-2.623.895-4.233.895Zm25.412-5 7.613-17.273h3.182L573.707 425h-2.727l-9.261-21.818h3.125l7.5 17.273Zm-8.58-17.273V425h-3.352v-21.818h3.352ZM580.923 425v-21.818h3.353V425h-3.353Zm12.387-13.92h6.25c2.556 0 4.512.648 5.866 1.946 1.354 1.297 2.031 2.94 2.031 4.929 0 1.306-.303 2.495-.909 3.565-.606 1.06-1.496 1.908-2.67 2.542-1.174.626-2.614.938-4.318.938h-9.148v-21.818h3.352v18.693h5.796c1.325 0 2.414-.35 3.267-1.051.852-.701 1.278-1.601 1.278-2.699 0-1.155-.426-2.098-1.278-2.827-.853-.729-1.942-1.093-3.267-1.093h-6.25v-3.125ZM610.923 425v-21.818h3.353V425h-3.353Zm18.353.455c-2.046 0-3.807-.483-5.285-1.449-1.477-.966-2.613-2.297-3.409-3.992-.795-1.695-1.193-3.631-1.193-5.809 0-2.216.407-4.172 1.222-5.867.824-1.704 1.969-3.035 3.437-3.991 1.478-.966 3.201-1.449 5.171-1.449 1.534 0 2.916.284 4.147.852 1.232.568 2.24 1.364 3.026 2.386.786 1.023 1.274 2.216 1.463 3.58h-3.352c-.256-.994-.824-1.875-1.705-2.642-.871-.777-2.045-1.165-3.522-1.165-1.307 0-2.453.341-3.438 1.023-.975.672-1.738 1.624-2.287 2.855-.54 1.222-.81 2.656-.81 4.304 0 1.686.266 3.153.796 4.403.54 1.25 1.297 2.221 2.273 2.912.985.692 2.14 1.037 3.466 1.037.871 0 1.662-.151 2.372-.454a4.902 4.902 0 0 0 1.804-1.307c.492-.568.843-1.25 1.051-2.046h3.352a7.76 7.76 0 0 1-1.406 3.48c-.739 1.023-1.719 1.838-2.94 2.444-1.213.596-2.624.895-4.233.895Zm11.548-.455v-3.125h.795c.654 0 1.198-.128 1.634-.384.435-.265.786-.724 1.051-1.377.275-.663.483-1.582.625-2.756.151-1.184.26-2.689.327-4.517l.397-9.659h14.546V425h-3.352v-18.693h-8.012l-.341 7.784c-.075 1.79-.236 3.366-.483 4.73-.236 1.354-.601 2.491-1.093 3.409-.483.919-1.127 1.61-1.932 2.074-.805.464-1.814.696-3.026.696h-1.136Zm31.946.511c-1.383 0-2.637-.26-3.764-.781-1.127-.53-2.022-1.292-2.685-2.287-.663-1.004-.994-2.216-.994-3.636 0-1.25.246-2.263.738-3.04a5.226 5.226 0 0 1 1.975-1.847 10.39 10.39 0 0 1 2.727-.994 33.417 33.417 0 0 1 3.026-.54c1.325-.17 2.4-.298 3.224-.383.833-.095 1.439-.251 1.818-.469.388-.218.583-.597.583-1.136v-.114c0-1.401-.384-2.49-1.151-3.267-.758-.776-1.908-1.165-3.452-1.165-1.6 0-2.855.351-3.764 1.051-.909.701-1.548 1.449-1.917 2.245l-3.182-1.137c.568-1.325 1.325-2.358 2.272-3.096a8.539 8.539 0 0 1 3.125-1.563 12.98 12.98 0 0 1 3.353-.454c.7 0 1.505.085 2.414.255a7.743 7.743 0 0 1 2.657 1.009c.861.511 1.576 1.283 2.145 2.315.568 1.032.852 2.415.852 4.148V425h-3.352v-2.955h-.171c-.227.474-.606.981-1.136 1.52-.531.54-1.236.999-2.117 1.378-.88.379-1.955.568-3.224.568Zm.511-3.011c1.326 0 2.443-.26 3.353-.781.918-.521 1.609-1.193 2.073-2.017a5.139 5.139 0 0 0 .711-2.6v-3.068c-.142.171-.455.327-.938.469a15.9 15.9 0 0 1-1.648.355 73.68 73.68 0 0 1-1.804.256c-.577.066-1.046.123-1.406.17-.871.114-1.685.298-2.443.554-.748.246-1.354.62-1.818 1.122-.455.493-.682 1.165-.682 2.017 0 1.165.431 2.046 1.293 2.642.871.587 1.974.881 3.309.881ZM540.636 151.455h6.728l15.818 38.636h.545l15.818-38.636h6.728V198H581v-35.364h-.455L566 198h-5.091l-14.545-35.364h-.455V198h-5.273v-46.545ZM596.847 198v-34.909h5.363V198h-5.363Zm2.727-40.727a3.815 3.815 0 0 1-2.705-1.068c-.742-.713-1.113-1.569-1.113-2.569s.371-1.856 1.113-2.568a3.815 3.815 0 0 1 2.705-1.068c1.045 0 1.939.356 2.682 1.068.757.712 1.136 1.568 1.136 2.568s-.379 1.856-1.136 2.569c-.743.712-1.637 1.068-2.682 1.068Zm37.187 13.636-4.818 1.364a8.939 8.939 0 0 0-1.341-2.341c-.575-.773-1.363-1.409-2.363-1.909s-2.281-.75-3.841-.75c-2.137 0-3.917.492-5.341 1.477-1.409.97-2.114 2.205-2.114 3.705 0 1.333.485 2.386 1.455 3.159.969.772 2.485 1.416 4.545 1.931l5.182 1.273c3.121.758 5.447 1.917 6.977 3.477 1.531 1.546 2.296 3.538 2.296 5.978 0 2-.576 3.788-1.728 5.363-1.136 1.576-2.727 2.819-4.772 3.728-2.046.909-4.425 1.363-7.137 1.363-3.56 0-6.507-.772-8.841-2.318-2.333-1.545-3.81-3.803-4.431-6.773l5.091-1.272c.484 1.878 1.401 3.288 2.75 4.227 1.363.939 3.143 1.409 5.34 1.409 2.5 0 4.485-.53 5.955-1.591 1.485-1.076 2.227-2.364 2.227-3.864 0-1.212-.424-2.227-1.272-3.045-.849-.833-2.152-1.455-3.91-1.864l-5.818-1.363c-3.197-.758-5.545-1.932-7.045-3.523-1.485-1.606-2.227-3.614-2.227-6.023 0-1.969.553-3.712 1.659-5.227 1.121-1.515 2.644-2.705 4.568-3.568 1.939-.864 4.136-1.296 6.591-1.296 3.454 0 6.166.758 8.136 2.273 1.985 1.515 3.394 3.515 4.227 6Zm23.892-7.818v4.545h-18.091v-4.545h18.091Zm-12.818-8.364h5.364V188c0 1.515.22 2.652.659 3.409.455.743 1.03 1.243 1.727 1.5a6.917 6.917 0 0 0 2.25.364c.591 0 1.076-.031 1.455-.091l.909-.182 1.091 4.818c-.364.137-.871.273-1.523.409-.651.152-1.477.228-2.477.228-1.515 0-3-.326-4.455-.978-1.439-.651-2.636-1.644-3.591-2.977-.939-1.333-1.409-3.015-1.409-5.045v-34.728Zm35.148 44c-3.364 0-6.265-.742-8.705-2.227-2.424-1.5-4.295-3.591-5.613-6.273-1.303-2.697-1.955-5.833-1.955-9.409 0-3.576.652-6.727 1.955-9.454 1.318-2.743 3.151-4.879 5.5-6.409 2.363-1.546 5.121-2.319 8.273-2.319 1.818 0 3.613.303 5.386.909 1.773.607 3.386 1.591 4.841 2.955 1.454 1.348 2.613 3.136 3.477 5.364.864 2.227 1.296 4.969 1.296 8.227v2.273h-26.91v-4.637h21.455c0-1.969-.394-3.727-1.182-5.272-.773-1.546-1.879-2.766-3.318-3.66-1.424-.893-3.106-1.34-5.045-1.34-2.137 0-3.985.53-5.546 1.59a10.475 10.475 0 0 0-3.568 4.091 12.023 12.023 0 0 0-1.25 5.409v3.091c0 2.637.454 4.872 1.364 6.705.924 1.818 2.204 3.204 3.84 4.159 1.637.939 3.538 1.409 5.705 1.409 1.409 0 2.682-.197 3.818-.591a8.164 8.164 0 0 0 2.977-1.818c.834-.818 1.478-1.833 1.932-3.045l5.182 1.454a11.477 11.477 0 0 1-2.75 4.636c-1.288 1.319-2.879 2.349-4.773 3.091-1.894.728-4.022 1.091-6.386 1.091Zm22.614-.727v-34.909h5.181v5.273h.364c.636-1.728 1.788-3.129 3.455-4.205 1.666-1.076 3.545-1.614 5.636-1.614.394 0 .886.008 1.477.023a19.81 19.81 0 0 1 1.341.068v5.455c-.182-.046-.598-.114-1.25-.205a12.3 12.3 0 0 0-2.023-.159c-1.697 0-3.212.356-4.545 1.068a8.051 8.051 0 0 0-3.136 2.91c-.758 1.227-1.137 2.628-1.137 4.204V198h-5.363Zm39.448.636c-3 0-5.674-.515-8.022-1.545-2.334-1.03-4.19-2.462-5.568-4.296-1.364-1.848-2.107-3.992-2.228-6.431h5.728c.121 1.5.636 2.795 1.545 3.886.909 1.076 2.098 1.909 3.568 2.5 1.47.591 3.099.886 4.887.886 2 0 3.772-.348 5.318-1.045 1.545-.697 2.757-1.667 3.636-2.909.879-1.243 1.318-2.682 1.318-4.318 0-1.712-.424-3.22-1.272-4.523-.849-1.318-2.091-2.349-3.728-3.091-1.636-.742-3.636-1.114-6-1.114H740.5v-5h3.727c1.849 0 3.47-.333 4.864-1 1.409-.666 2.507-1.606 3.295-2.818.803-1.212 1.205-2.636 1.205-4.273 0-1.575-.349-2.947-1.046-4.113-.697-1.167-1.681-2.076-2.954-2.727-1.258-.652-2.743-.978-4.455-.978-1.606 0-3.121.296-4.545.887-1.409.575-2.561 1.416-3.455 2.522-.894 1.091-1.378 2.409-1.454 3.955h-5.455c.091-2.439.826-4.576 2.205-6.409 1.379-1.849 3.182-3.288 5.409-4.318 2.242-1.031 4.704-1.546 7.386-1.546 2.879 0 5.349.584 7.409 1.75 2.061 1.152 3.644 2.674 4.75 4.568a11.963 11.963 0 0 1 1.659 6.137c0 2.621-.689 4.856-2.068 6.704-1.363 1.849-3.219 3.129-5.568 3.841v.364c2.939.485 5.235 1.735 6.886 3.75 1.652 2 2.478 4.477 2.478 7.432 0 2.53-.69 4.803-2.068 6.818-1.364 2-3.228 3.576-5.591 4.727-2.364 1.152-5.053 1.727-8.069 1.727Zm40.75 0c-3 0-5.674-.515-8.022-1.545-2.334-1.03-4.19-2.462-5.568-4.296-1.364-1.848-2.107-3.992-2.228-6.431h5.728c.121 1.5.636 2.795 1.545 3.886.909 1.076 2.098 1.909 3.568 2.5 1.47.591 3.099.886 4.887.886 2 0 3.772-.348 5.318-1.045 1.545-.697 2.757-1.667 3.636-2.909.879-1.243 1.318-2.682 1.318-4.318 0-1.712-.424-3.22-1.272-4.523-.849-1.318-2.091-2.349-3.728-3.091-1.636-.742-3.636-1.114-6-1.114h-3.727v-5h3.727c1.849 0 3.47-.333 4.864-1 1.409-.666 2.507-1.606 3.295-2.818.803-1.212 1.205-2.636 1.205-4.273 0-1.575-.349-2.947-1.046-4.113-.697-1.167-1.681-2.076-2.954-2.727-1.258-.652-2.743-.978-4.455-.978-1.606 0-3.121.296-4.545.887-1.409.575-2.561 1.416-3.455 2.522-.894 1.091-1.378 2.409-1.454 3.955h-5.455c.091-2.439.826-4.576 2.205-6.409 1.379-1.849 3.182-3.288 5.409-4.318 2.242-1.031 4.704-1.546 7.386-1.546 2.879 0 5.349.584 7.409 1.75 2.061 1.152 3.644 2.674 4.75 4.568a11.963 11.963 0 0 1 1.659 6.137c0 2.621-.689 4.856-2.068 6.704-1.363 1.849-3.219 3.129-5.568 3.841v.364c2.939.485 5.235 1.735 6.886 3.75 1.652 2 2.478 4.477 2.478 7.432 0 2.53-.69 4.803-2.068 6.818-1.364 2-3.228 3.576-5.591 4.727-2.364 1.152-5.053 1.727-8.069 1.727Z"/>
    <rect width="1440" height="151" y="-50" fill="#D9D9D9" rx="38"/>
    <path fill="#000" d="M1058.63 56V38.545h13.72V56h-2.68V41.045h-8.36V56h-2.68Zm18.62 6.545v-24h2.59v2.773h.32c.2-.303.47-.69.82-1.159.35-.477.86-.901 1.52-1.273.67-.378 1.57-.568 2.71-.568 1.47 0 2.76.368 3.88 1.102 1.12.735 2 1.777 2.63 3.125.63 1.349.94 2.94.94 4.773 0 1.849-.31 3.45-.94 4.807-.63 1.349-1.5 2.394-2.62 3.136-1.11.735-2.39 1.103-3.85 1.103-1.12 0-2.02-.186-2.69-.557-.68-.379-1.19-.807-1.56-1.284-.36-.485-.64-.887-.84-1.205h-.23v9.227h-2.68Zm2.64-15.272c0 1.318.19 2.48.58 3.488.38 1 .95 1.784 1.69 2.353.74.56 1.65.84 2.73.84 1.12 0 2.05-.295 2.8-.886.76-.598 1.33-1.401 1.71-2.409.39-1.015.58-2.144.58-3.386 0-1.228-.19-2.334-.57-3.319-.37-.992-.94-1.776-1.69-2.352-.75-.583-1.7-.875-2.83-.875-1.09 0-2.01.277-2.75.83-.74.545-1.31 1.31-1.68 2.295-.38.978-.57 2.118-.57 3.42Zm19.54 4.772 8.41-13.5h3.09V56h-2.68V42.5l-8.36 13.5h-3.14V38.545h2.68v13.5ZM1115.85 56V38.545h7.13c1.88 0 3.37.425 4.48 1.273 1.1.849 1.66 1.97 1.66 3.364 0 1.06-.32 1.882-.95 2.466-.62.575-1.43.966-2.42 1.17.65.091 1.27.318 1.88.682a4.52 4.52 0 0 1 1.52 1.5c.4.629.6 1.401.6 2.318 0 .894-.22 1.693-.68 2.398-.45.704-1.1 1.261-1.95 1.67-.85.41-1.87.614-3.05.614h-8.22Zm2.54-2.455h5.68c.93 0 1.65-.22 2.17-.659.53-.439.79-1.038.79-1.795 0-.902-.26-1.61-.79-2.125-.52-.523-1.24-.784-2.17-.784h-5.68v5.363Zm0-7.681h4.59c.72 0 1.34-.099 1.85-.296.52-.204.91-.492 1.19-.863.28-.38.42-.826.42-1.341 0-.735-.31-1.311-.92-1.728-.62-.424-1.46-.636-2.54-.636h-4.59v4.864Zm22.74 10.5c-1.68 0-3.13-.372-4.35-1.114-1.21-.75-2.15-1.795-2.81-3.136-.65-1.349-.97-2.917-.97-4.705 0-1.788.32-3.364.97-4.727.66-1.371 1.58-2.44 2.75-3.205 1.18-.772 2.56-1.159 4.14-1.159.91 0 1.81.152 2.69.455.89.303 1.7.795 2.42 1.477.73.674 1.31 1.568 1.74 2.682.43 1.113.65 2.485.65 4.113v1.137h-13.46v-2.318h10.73c0-.985-.19-1.864-.59-2.637a4.478 4.478 0 0 0-1.66-1.83c-.71-.446-1.55-.67-2.52-.67-1.07 0-1.99.265-2.77.796a5.216 5.216 0 0 0-1.79 2.045 6.096 6.096 0 0 0-.62 2.705v1.545c0 1.318.22 2.436.68 3.352.46.91 1.1 1.603 1.92 2.08.82.47 1.77.705 2.85.705.71 0 1.34-.099 1.91-.296a4.085 4.085 0 0 0 1.49-.909c.42-.41.74-.917.97-1.523l2.59.728a5.769 5.769 0 0 1-1.38 2.318c-.64.659-1.44 1.174-2.38 1.545-.95.364-2.02.546-3.2.546Zm9.68-15.319v-2.5H1165v2.5h-5.73V56h-2.68V41.045h-5.78ZM1178.27 56V32.727h2.82v10.364h12.41V32.727h2.82V56h-2.82V45.59h-12.41V56h-2.82Zm25.05 6.545c-.45 0-.86-.037-1.21-.113-.36-.068-.61-.137-.74-.205l.68-2.363c.65.166 1.23.227 1.73.181.5-.045.94-.269 1.33-.67.39-.394.75-1.034 1.08-1.92l.5-1.364-6.46-17.546h2.91l4.82 13.91h.18l4.82-13.91h2.91l-7.41 20c-.33.902-.75 1.648-1.24 2.24a4.583 4.583 0 0 1-1.72 1.329c-.64.288-1.37.431-2.18.431Zm16.09 0v-24h2.59v2.773h.32c.19-.303.47-.69.81-1.159.36-.477.87-.901 1.53-1.273.66-.378 1.57-.568 2.7-.568 1.47 0 2.77.368 3.89 1.102 1.12.735 1.99 1.777 2.62 3.125.63 1.349.95 2.94.95 4.773 0 1.849-.32 3.45-.95 4.807-.63 1.349-1.5 2.394-2.61 3.136-1.11.735-2.4 1.103-3.85 1.103-1.12 0-2.02-.186-2.7-.557-.67-.379-1.19-.807-1.55-1.284-.37-.485-.65-.887-.84-1.205h-.23v9.227h-2.68Zm2.63-15.272c0 1.318.2 2.48.58 3.488.39 1 .95 1.784 1.7 2.353.74.56 1.65.84 2.72.84 1.13 0 2.06-.295 2.81-.886.76-.598 1.33-1.401 1.71-2.409.38-1.015.57-2.144.57-3.386 0-1.228-.18-2.334-.56-3.319-.37-.992-.94-1.776-1.7-2.352-.75-.583-1.69-.875-2.83-.875-1.09 0-2 .277-2.75.83-.74.545-1.3 1.31-1.68 2.295-.38.978-.57 2.118-.57 3.42Zm19.55-1.773V56h-2.68V38.545h2.59v2.728h.23c.4-.887 1.03-1.599 1.86-2.137.83-.545 1.91-.818 3.23-.818 1.18 0 2.21.243 3.1.727.89.478 1.57 1.205 2.07 2.182.49.97.74 2.197.74 3.682V56h-2.69V45.09c0-1.37-.35-2.439-1.06-3.204-.72-.772-1.69-1.159-2.94-1.159-.85 0-1.62.186-2.29.557-.67.371-1.19.913-1.58 1.625-.39.712-.58 1.576-.58 2.591Zm23.13 10.864c-1.58 0-2.96-.375-4.15-1.125-1.18-.75-2.11-1.8-2.77-3.148-.66-1.349-.99-2.924-.99-4.727 0-1.819.33-3.406.99-4.762.66-1.356 1.59-2.409 2.77-3.159 1.19-.75 2.57-1.125 4.15-1.125 1.57 0 2.95.375 4.13 1.125 1.19.75 2.12 1.803 2.78 3.16.66 1.355 1 2.942 1 4.76 0 1.804-.34 3.38-1 4.728-.66 1.348-1.59 2.398-2.78 3.148-1.18.75-2.56 1.125-4.13 1.125Zm0-2.41c1.19 0 2.18-.306 2.95-.92.77-.614 1.35-1.42 1.72-2.42.37-1 .55-2.084.55-3.25 0-1.167-.18-2.254-.55-3.262-.37-1.007-.95-1.822-1.72-2.443s-1.76-.932-2.95-.932c-1.2 0-2.18.31-2.96.932-.77.621-1.34 1.436-1.71 2.443a9.39 9.39 0 0 0-.56 3.262c0 1.166.19 2.25.56 3.25.37 1 .94 1.806 1.71 2.42.78.614 1.76.92 2.96.92Zm18.59 2.41c-1.45 0-2.74-.368-3.85-1.103-1.11-.742-1.99-1.788-2.61-3.136-.63-1.356-.95-2.958-.95-4.807 0-1.833.32-3.424.95-4.773.62-1.348 1.5-2.39 2.62-3.125 1.12-.734 2.42-1.102 3.89-1.102 1.13 0 2.03.19 2.69.568.67.372 1.17.796 1.52 1.273.36.47.64.856.83 1.16h.23v-8.592h2.68V56h-2.59v-2.682h-.32c-.19.318-.48.72-.84 1.205-.36.477-.88.905-1.56 1.284-.67.371-1.57.557-2.69.557Zm.36-2.41c1.08 0 1.99-.28 2.73-.84.74-.569 1.31-1.353 1.7-2.353.38-1.007.57-2.17.57-3.488 0-1.303-.18-2.444-.56-3.42-.38-.986-.94-1.75-1.69-2.296-.74-.553-1.65-.83-2.75-.83-1.13 0-2.08.292-2.84.875-.75.576-1.31 1.36-1.69 2.353-.37.984-.56 2.09-.56 3.318 0 1.242.19 2.37.57 3.386.39 1.008.96 1.81 1.71 2.41.75.59 1.69.886 2.81.886Zm18.06 2.455c-1.1 0-2.11-.208-3.01-.625-.9-.424-1.62-1.034-2.15-1.83-.53-.803-.79-1.772-.79-2.909 0-1 .19-1.81.59-2.431a4.13 4.13 0 0 1 1.58-1.478 8.242 8.242 0 0 1 2.18-.795c.8-.182 1.61-.326 2.42-.432 1.06-.136 1.92-.239 2.58-.307.67-.075 1.15-.2 1.45-.375.31-.174.47-.477.47-.909v-.09c0-1.122-.31-1.993-.92-2.614-.61-.622-1.53-.932-2.76-.932-1.28 0-2.29.28-3.01.84-.73.561-1.24 1.16-1.54 1.796l-2.54-.909c.45-1.06 1.06-1.886 1.82-2.477a6.711 6.711 0 0 1 2.5-1.25c.9-.243 1.8-.364 2.68-.364.56 0 1.2.068 1.93.205.73.128 1.44.397 2.12.806.69.41 1.27 1.027 1.72 1.853.45.826.68 1.932.68 3.318V56h-2.68v-2.364h-.14c-.18.38-.48.784-.91 1.216-.42.432-.98.8-1.69 1.103-.7.303-1.56.454-2.58.454Zm.41-2.409c1.06 0 1.96-.208 2.68-.625.74-.417 1.29-.955 1.66-1.614.38-.659.57-1.352.57-2.08v-2.454c-.11.137-.36.262-.75.375-.38.106-.82.201-1.32.284-.49.076-.97.144-1.44.205-.46.053-.84.098-1.13.136-.69.091-1.35.239-1.95.444-.6.196-1.08.496-1.46.897-.36.394-.54.932-.54 1.614 0 .932.34 1.636 1.03 2.113.7.47 1.58.705 2.65.705Zm15.17-8.5V56h-2.68V38.545h2.59v2.728h.22a4.962 4.962 0 0 1 1.87-2.137c.83-.545 1.91-.818 3.23-.818 1.18 0 2.21.243 3.1.727.88.478 1.57 1.205 2.07 2.182.49.97.73 2.197.73 3.682V56h-2.68V45.09c0-1.37-.35-2.439-1.07-3.204-.71-.772-1.68-1.159-2.93-1.159-.85 0-1.62.186-2.29.557-.67.371-1.2.913-1.58 1.625-.39.712-.58 1.576-.58 2.591Zm23.13 10.864c-1.64 0-3.05-.387-4.23-1.16-1.18-.772-2.09-1.837-2.73-3.193-.63-1.356-.95-2.905-.95-4.647 0-1.773.32-3.337.97-4.694.66-1.363 1.58-2.428 2.75-3.193 1.19-.772 2.56-1.159 4.14-1.159 1.23 0 2.33.227 3.32.682.98.455 1.79 1.09 2.42 1.91.63.817 1.02 1.772 1.17 2.863h-2.68c-.21-.796-.66-1.5-1.37-2.114-.69-.621-1.63-.932-2.81-.932-1.05 0-1.97.273-2.75.819-.78.537-1.39 1.299-1.83 2.284-.44.977-.65 2.125-.65 3.443 0 1.348.21 2.522.64 3.522.43 1 1.03 1.777 1.81 2.33.79.553 1.72.83 2.78.83.69 0 1.33-.122 1.89-.364a3.965 3.965 0 0 0 1.45-1.046c.39-.454.67-1 .84-1.636h2.68a6.186 6.186 0 0 1-1.13 2.784c-.59.818-1.37 1.47-2.35 1.955-.97.477-2.1.716-3.38.716Zm18.1 0c-1.68 0-3.13-.372-4.35-1.114-1.22-.75-2.15-1.795-2.81-3.136-.65-1.349-.98-2.917-.98-4.705 0-1.788.33-3.364.98-4.727.66-1.371 1.58-2.44 2.75-3.205 1.18-.772 2.56-1.159 4.14-1.159.9 0 1.8.152 2.69.455.89.303 1.69.795 2.42 1.477.73.674 1.31 1.568 1.74 2.682.43 1.113.65 2.485.65 4.113v1.137h-13.46v-2.318h10.73c0-.985-.2-1.864-.59-2.637a4.478 4.478 0 0 0-1.66-1.83c-.71-.446-1.55-.67-2.52-.67-1.07 0-2 .265-2.78.796a5.272 5.272 0 0 0-1.78 2.045 5.97 5.97 0 0 0-.63 2.705v1.545c0 1.318.23 2.436.69 3.352.46.91 1.1 1.603 1.92 2.08.81.47 1.77.705 2.85.705.7 0 1.34-.099 1.91-.296a4.17 4.17 0 0 0 1.49-.909c.41-.41.73-.917.96-1.523l2.59.728a5.747 5.747 0 0 1-1.37 2.318c-.65.659-1.44 1.174-2.39 1.545-.95.364-2.01.546-3.19.546Zm18.71-.046c-1.56 0-2.94-.276-4.13-.83-1.19-.56-2.12-1.329-2.79-2.306-.66-.985-.99-2.106-.98-3.364-.01-.985.18-1.894.57-2.727.4-.841.94-1.542 1.62-2.102a4.951 4.951 0 0 1 2.31-1.08v-.136c-1.12-.288-2-.913-2.66-1.875-.66-.97-.99-2.072-.98-3.307-.01-1.182.29-2.239.9-3.17.6-.932 1.44-1.667 2.5-2.205s2.28-.807 3.64-.807c1.35 0 2.56.269 3.62.807s1.89 1.273 2.5 2.204c.61.932.92 1.99.93 3.17-.01 1.236-.34 2.338-1.01 3.308-.66.962-1.54 1.587-2.63 1.875v.136c.84.152 1.6.511 2.28 1.08.67.56 1.21 1.261 1.61 2.102.4.833.61 1.742.61 2.727 0 1.258-.35 2.379-1.02 3.364-.67.977-1.59 1.746-2.78 2.307-1.19.553-2.55.83-4.11.83Zm0-2.5c1.06 0 1.97-.17 2.73-.511.77-.341 1.36-.822 1.77-1.443.42-.622.63-1.349.64-2.182-.01-.879-.23-1.656-.68-2.33a4.666 4.666 0 0 0-1.83-1.59c-.77-.387-1.64-.58-2.63-.58s-1.87.193-2.65.58c-.78.386-1.39.916-1.83 1.59-.44.675-.66 1.451-.65 2.33-.01.833.19 1.56.6 2.182.42.62 1.01 1.102 1.78 1.443.78.34 1.69.511 2.75.511Zm0-11.045c.84 0 1.58-.167 2.22-.5.65-.334 1.16-.8 1.53-1.398.38-.599.56-1.3.57-2.102-.01-.788-.19-1.474-.55-2.057a3.637 3.637 0 0 0-1.52-1.364c-.64-.325-1.39-.488-2.25-.488-.87 0-1.63.163-2.28.488-.65.319-1.16.773-1.51 1.364-.36.583-.53 1.269-.52 2.057-.01.803.17 1.503.53 2.102.37.599.88 1.064 1.53 1.398.66.333 1.41.5 2.25.5Zm19.72 13.545c-1.56 0-2.94-.276-4.13-.83-1.19-.56-2.12-1.329-2.79-2.306-.66-.985-.99-2.106-.99-3.364 0-.985.19-1.894.58-2.727.4-.841.94-1.542 1.62-2.102a4.963 4.963 0 0 1 2.3-1.08v-.136c-1.11-.288-2-.913-2.66-1.875-.65-.97-.98-2.072-.97-3.307-.01-1.182.29-2.239.9-3.17.6-.932 1.43-1.667 2.5-2.205 1.06-.538 2.28-.807 3.64-.807 1.35 0 2.56.269 3.62.807s1.89 1.273 2.5 2.204c.61.932.92 1.99.93 3.17-.01 1.236-.35 2.338-1.01 3.308-.66.962-1.54 1.587-2.63 1.875v.136c.84.152 1.6.511 2.27 1.08.68.56 1.22 1.261 1.62 2.102.4.833.6 1.742.61 2.727-.01 1.258-.35 2.379-1.02 3.364-.67.977-1.6 1.746-2.78 2.307-1.19.553-2.55.83-4.11.83Zm0-2.5c1.06 0 1.97-.17 2.73-.511.77-.341 1.36-.822 1.77-1.443.42-.622.63-1.349.64-2.182-.01-.879-.24-1.656-.68-2.33a4.666 4.666 0 0 0-1.83-1.59c-.77-.387-1.64-.58-2.63-.58s-1.88.193-2.66.58c-.77.386-1.38.916-1.83 1.59-.44.675-.65 1.451-.64 2.33-.01.833.19 1.56.6 2.182.42.62 1.01 1.102 1.78 1.443.78.34 1.69.511 2.75.511Zm0-11.045c.84 0 1.57-.167 2.22-.5.65-.334 1.16-.8 1.53-1.398.37-.599.56-1.3.57-2.102-.01-.788-.19-1.474-.56-2.057a3.552 3.552 0 0 0-1.51-1.364c-.64-.325-1.39-.488-2.25-.488-.87 0-1.63.163-2.28.488-.65.319-1.16.773-1.51 1.364-.36.583-.53 1.269-.53 2.057 0 .803.18 1.503.54 2.102.37.599.88 1.064 1.53 1.398.65.333 1.4.5 2.25.5Z"/>
    <path fill="#D9D9D9" d="M109 560h1221v452H109z"/>
    <rect width="365" height="365" x="135" y="136" fill="#7B7B7B" rx="20"/>
    <rect width="270" height="270" x="137" y="625" fill="#7B7B7B" rx="20"/>
    <path fill="#000" d="M173.194 943.557v3.125h-12.046v-3.125h12.046Zm-11.25-9.375V956h-3.352v-21.818h3.352Zm13.807 0V956h-3.353v-21.818h3.353Zm12.542 22.329c-1.382 0-2.637-.26-3.764-.781-1.127-.53-2.022-1.292-2.685-2.287-.662-1.004-.994-2.216-.994-3.636 0-1.25.246-2.263.739-3.04a5.216 5.216 0 0 1 1.974-1.847 10.39 10.39 0 0 1 2.727-.994 33.48 33.48 0 0 1 3.026-.54 138.22 138.22 0 0 1 3.224-.383c.834-.095 1.44-.251 1.819-.469.388-.218.582-.597.582-1.136v-.114c0-1.401-.383-2.49-1.151-3.267-.757-.776-1.908-1.165-3.451-1.165-1.601 0-2.855.351-3.764 1.051-.91.701-1.549 1.449-1.918 2.245l-3.182-1.137c.568-1.325 1.326-2.358 2.273-3.096a8.523 8.523 0 0 1 3.125-1.563 12.973 12.973 0 0 1 3.352-.454c.701 0 1.506.085 2.415.255a7.738 7.738 0 0 1 2.656 1.009c.862.511 1.577 1.283 2.145 2.315.568 1.032.852 2.415.852 4.148V956h-3.352v-2.955h-.17c-.228.474-.606.981-1.137 1.52-.53.54-1.236.999-2.116 1.378-.881.379-1.956.568-3.225.568Zm.512-3.011c1.325 0 2.443-.26 3.352-.781.919-.521 1.61-1.193 2.074-2.017.473-.824.71-1.691.71-2.6v-3.068c-.142.171-.454.327-.937.469-.474.132-1.023.251-1.648.355-.616.095-1.217.18-1.804.256-.578.066-1.047.123-1.406.17-.872.114-1.686.298-2.444.554-.748.246-1.354.62-1.818 1.122-.454.493-.682 1.165-.682 2.017 0 1.165.431 2.046 1.293 2.642.871.587 1.974.881 3.31.881Zm29.073-19.318v3.125h-10.114V956h-3.352v-21.818h13.466Zm4.893 30v-30h3.239v3.466h.398c.246-.379.587-.862 1.022-1.449.445-.597 1.08-1.127 1.904-1.591.833-.474 1.96-.71 3.38-.71 1.838 0 3.457.459 4.858 1.378 1.402.918 2.496 2.22 3.282 3.906.786 1.685 1.179 3.674 1.179 5.966 0 2.31-.393 4.313-1.179 6.008-.786 1.686-1.875 2.993-3.267 3.921-1.392.918-2.998 1.378-4.816 1.378-1.401 0-2.523-.232-3.366-.696-.843-.474-1.492-1.009-1.946-1.606a21.432 21.432 0 0 1-1.051-1.505h-.284v11.534h-3.353Zm3.296-19.091c0 1.648.241 3.101.724 4.361.483 1.25 1.189 2.23 2.117 2.94.928.701 2.064 1.051 3.409 1.051 1.401 0 2.571-.369 3.508-1.108.947-.748 1.657-1.752 2.131-3.011.483-1.269.724-2.68.724-4.233 0-1.534-.236-2.917-.71-4.148-.464-1.24-1.169-2.22-2.116-2.94-.938-.729-2.117-1.094-3.537-1.094-1.364 0-2.51.346-3.438 1.037-.928.682-1.629 1.638-2.102 2.869-.473 1.222-.71 2.647-.71 4.276Zm27.5 11.42c-1.383 0-2.638-.26-3.764-.781-1.127-.53-2.022-1.292-2.685-2.287-.663-1.004-.994-2.216-.994-3.636 0-1.25.246-2.263.738-3.04a5.226 5.226 0 0 1 1.975-1.847 10.39 10.39 0 0 1 2.727-.994 33.458 33.458 0 0 1 3.025-.54c1.326-.17 2.401-.298 3.225-.383.833-.095 1.439-.251 1.818-.469.388-.218.582-.597.582-1.136v-.114c0-1.401-.383-2.49-1.15-3.267-.758-.776-1.908-1.165-3.452-1.165-1.6 0-2.855.351-3.764 1.051-.909.701-1.548 1.449-1.918 2.245l-3.181-1.137c.568-1.325 1.325-2.358 2.272-3.096a8.53 8.53 0 0 1 3.125-1.563 12.98 12.98 0 0 1 3.353-.454c.7 0 1.505.085 2.414.255a7.743 7.743 0 0 1 2.657 1.009c.861.511 1.576 1.283 2.144 2.315.569 1.032.853 2.415.853 4.148V956h-3.353v-2.955h-.17c-.227.474-.606.981-1.136 1.52-.531.54-1.236.999-2.117 1.378-.88.379-1.955.568-3.224.568Zm.511-3.011c1.326 0 2.443-.26 3.352-.781.919-.521 1.61-1.193 2.074-2.017.474-.824.71-1.691.71-2.6v-3.068c-.142.171-.454.327-.937.469a15.9 15.9 0 0 1-1.648.355c-.615.095-1.217.18-1.804.256-.577.066-1.046.123-1.406.17-.871.114-1.686.298-2.443.554-.748.246-1.354.62-1.818 1.122-.455.493-.682 1.165-.682 2.017 0 1.165.431 2.046 1.292 2.642.872.587 1.975.881 3.31.881Zm13.278 8.75v-9.375h1.818a8.35 8.35 0 0 0 1.151-1.506c.322-.539.601-1.179.838-1.917.246-.748.454-1.657.625-2.728.17-1.079.322-2.381.454-3.906l.739-8.636h13.863v18.693h3.353v9.375h-3.353V956h-16.136v6.25h-3.352Zm5.625-9.375h10.511v-15.568h-7.386l-.568 5.511c-.237 2.282-.531 4.276-.881 5.98-.35 1.705-.909 3.064-1.676 4.077Zm28.086 3.636c-1.383 0-2.638-.26-3.764-.781-1.127-.53-2.022-1.292-2.685-2.287-.663-1.004-.994-2.216-.994-3.636 0-1.25.246-2.263.738-3.04a5.226 5.226 0 0 1 1.975-1.847 10.39 10.39 0 0 1 2.727-.994 33.458 33.458 0 0 1 3.025-.54c1.326-.17 2.401-.298 3.225-.383.833-.095 1.439-.251 1.818-.469.388-.218.582-.597.582-1.136v-.114c0-1.401-.383-2.49-1.15-3.267-.758-.776-1.908-1.165-3.452-1.165-1.6 0-2.855.351-3.764 1.051-.909.701-1.548 1.449-1.918 2.245l-3.181-1.137c.568-1.325 1.325-2.358 2.272-3.096a8.53 8.53 0 0 1 3.125-1.563 12.98 12.98 0 0 1 3.353-.454c.7 0 1.505.085 2.414.255a7.743 7.743 0 0 1 2.657 1.009c.861.511 1.576 1.283 2.144 2.315.569 1.032.853 2.415.853 4.148V956h-3.353v-2.955h-.17c-.227.474-.606.981-1.136 1.52-.531.54-1.236.999-2.117 1.378-.88.379-1.955.568-3.224.568Zm.511-3.011c1.326 0 2.443-.26 3.352-.781.919-.521 1.61-1.193 2.074-2.017.474-.824.71-1.691.71-2.6v-3.068c-.142.171-.454.327-.937.469a15.9 15.9 0 0 1-1.648.355c-.615.095-1.217.18-1.804.256-.577.066-1.046.123-1.406.17-.871.114-1.686.298-2.443.554-.748.246-1.354.62-1.818 1.122-.455.493-.682 1.165-.682 2.017 0 1.165.431 2.046 1.292 2.642.872.587 1.975.881 3.31.881Zm27.312 2.5v-29.091h3.409l13.068 22.33h.284v-22.33h3.466V956h-3.409l-13.011-22.159h-.284V956h-3.523Zm23.807-8.807v-2.898h12.386v2.898h-12.386Zm6.193-5.398c-1.402 0-2.614-.279-3.636-.838a5.901 5.901 0 0 1-2.358-2.343c-.55-1.004-.824-2.178-.824-3.523v-1.932c0-1.345.274-2.519.824-3.523a5.814 5.814 0 0 1 2.343-2.343c1.014-.559 2.212-.838 3.594-.838 1.402 0 2.604.279 3.608.838a5.728 5.728 0 0 1 2.33 2.343c.549 1.004.823 2.178.823 3.523v1.932c0 1.345-.269 2.519-.809 3.523a5.749 5.749 0 0 1-2.316 2.343c-1.003.559-2.197.838-3.579.838Zm0-2.84c1.108 0 1.932-.351 2.472-1.052.549-.71.823-1.647.823-2.812v-1.932c0-1.136-.274-2.055-.823-2.756-.55-.7-1.393-1.051-2.529-1.051s-1.979.351-2.528 1.051c-.55.701-.824 1.62-.824 2.756v1.932c0 1.165.274 2.102.824 2.812.558.701 1.42 1.052 2.585 1.052Zm23.231-12.046V956h-3.522v-25.398h-.171l-7.102 4.716v-3.579l7.273-4.83h3.522Z"/>
    <rect width="270" height="270" x="434" y="625" fill="#7B7B7B" rx="20"/>
    <rect width="270" height="270" x="738" y="625" fill="#7B7B7B" rx="20"/>
    <rect width="270" height="270" x="1035" y="627" fill="#7B7B7B" rx="20"/>
    <path fill="#000" d="M467.381 943.557v3.125h-12.045v-3.125h12.045Zm-11.25-9.375V956h-3.352v-21.818h3.352Zm13.807 0V956h-3.352v-21.818h3.352Zm12.543 22.329c-1.383 0-2.637-.26-3.764-.781-1.127-.53-2.022-1.292-2.685-2.287-.663-1.004-.994-2.216-.994-3.636 0-1.25.246-2.263.738-3.04a5.226 5.226 0 0 1 1.975-1.847 10.39 10.39 0 0 1 2.727-.994 33.417 33.417 0 0 1 3.026-.54c1.325-.17 2.4-.298 3.224-.383.833-.095 1.439-.251 1.818-.469.388-.218.583-.597.583-1.136v-.114c0-1.401-.384-2.49-1.151-3.267-.758-.776-1.908-1.165-3.452-1.165-1.6 0-2.855.351-3.764 1.051-.909.701-1.548 1.449-1.918 2.245l-3.181-1.137c.568-1.325 1.325-2.358 2.272-3.096a8.53 8.53 0 0 1 3.125-1.563 12.98 12.98 0 0 1 3.353-.454c.7 0 1.505.085 2.414.255a7.743 7.743 0 0 1 2.657 1.009c.861.511 1.576 1.283 2.145 2.315.568 1.032.852 2.415.852 4.148V956h-3.352v-2.955h-.171c-.227.474-.606.981-1.136 1.52-.531.54-1.236.999-2.117 1.378-.88.379-1.955.568-3.224.568Zm.511-3.011c1.326 0 2.443-.26 3.352-.781.919-.521 1.61-1.193 2.074-2.017a5.139 5.139 0 0 0 .711-2.6v-3.068c-.142.171-.455.327-.938.469a15.9 15.9 0 0 1-1.648.355c-.615.095-1.217.18-1.804.256-.577.066-1.046.123-1.406.17-.871.114-1.686.298-2.443.554-.748.246-1.354.62-1.818 1.122-.455.493-.682 1.165-.682 2.017 0 1.165.431 2.046 1.293 2.642.871.587 1.974.881 3.309.881Zm29.073-19.318v3.125h-10.113V956h-3.353v-21.818h13.466Zm4.894 30v-30h3.238v3.466h.398c.246-.379.587-.862 1.023-1.449.445-.597 1.079-1.127 1.903-1.591.834-.474 1.961-.71 3.381-.71 1.837 0 3.456.459 4.858 1.378 1.401.918 2.495 2.22 3.281 3.906.786 1.685 1.179 3.674 1.179 5.966 0 2.31-.393 4.313-1.179 6.008-.786 1.686-1.875 2.993-3.267 3.921-1.392.918-2.997 1.378-4.815 1.378-1.402 0-2.524-.232-3.367-.696-.842-.474-1.491-1.009-1.946-1.606a21.779 21.779 0 0 1-1.051-1.505h-.284v11.534h-3.352Zm3.295-19.091c0 1.648.242 3.101.725 4.361.483 1.25 1.188 2.23 2.116 2.94.928.701 2.065 1.051 3.409 1.051 1.402 0 2.571-.369 3.509-1.108.947-.748 1.657-1.752 2.13-3.011.483-1.269.725-2.68.725-4.233 0-1.534-.237-2.917-.71-4.148-.464-1.24-1.17-2.22-2.117-2.94-.937-.729-2.116-1.094-3.537-1.094-1.363 0-2.509.346-3.437 1.037-.928.682-1.629 1.638-2.103 2.869-.473 1.222-.71 2.647-.71 4.276Zm27.5 11.42c-1.382 0-2.637-.26-3.764-.781-1.127-.53-2.022-1.292-2.685-2.287-.662-1.004-.994-2.216-.994-3.636 0-1.25.246-2.263.739-3.04a5.216 5.216 0 0 1 1.974-1.847 10.39 10.39 0 0 1 2.727-.994 33.48 33.48 0 0 1 3.026-.54 138.22 138.22 0 0 1 3.224-.383c.834-.095 1.44-.251 1.819-.469.388-.218.582-.597.582-1.136v-.114c0-1.401-.384-2.49-1.151-3.267-.757-.776-1.908-1.165-3.451-1.165-1.601 0-2.855.351-3.764 1.051-.91.701-1.549 1.449-1.918 2.245l-3.182-1.137c.568-1.325 1.326-2.358 2.273-3.096a8.523 8.523 0 0 1 3.125-1.563 12.973 12.973 0 0 1 3.352-.454c.701 0 1.506.085 2.415.255a7.738 7.738 0 0 1 2.656 1.009c.862.511 1.577 1.283 2.145 2.315.568 1.032.852 2.415.852 4.148V956h-3.352v-2.955h-.17c-.228.474-.607.981-1.137 1.52-.53.54-1.236.999-2.116 1.378-.881.379-1.956.568-3.225.568Zm.512-3.011c1.325 0 2.443-.26 3.352-.781.918-.521 1.61-1.193 2.074-2.017.473-.824.71-1.691.71-2.6v-3.068c-.142.171-.455.327-.938.469-.473.132-1.022.251-1.647.355-.616.095-1.217.18-1.804.256-.578.066-1.047.123-1.406.17-.872.114-1.686.298-2.444.554-.748.246-1.354.62-1.818 1.122-.454.493-.682 1.165-.682 2.017 0 1.165.431 2.046 1.293 2.642.871.587 1.974.881 3.31.881Zm13.277 8.75v-9.375h1.819a8.345 8.345 0 0 0 1.15-1.506c.322-.539.601-1.179.838-1.917.246-.748.455-1.657.625-2.728.171-1.079.322-2.381.455-3.906l.738-8.636h13.864v18.693h3.352v9.375h-3.352V956h-16.136v6.25h-3.353Zm5.625-9.375h10.512v-15.568h-7.387l-.568 5.511c-.237 2.282-.53 4.276-.881 5.98-.35 1.705-.909 3.064-1.676 4.077Zm28.086 3.636c-1.382 0-2.637-.26-3.764-.781-1.127-.53-2.022-1.292-2.685-2.287-.662-1.004-.994-2.216-.994-3.636 0-1.25.246-2.263.739-3.04a5.216 5.216 0 0 1 1.974-1.847 10.39 10.39 0 0 1 2.727-.994 33.48 33.48 0 0 1 3.026-.54 138.22 138.22 0 0 1 3.224-.383c.834-.095 1.44-.251 1.819-.469.388-.218.582-.597.582-1.136v-.114c0-1.401-.384-2.49-1.151-3.267-.757-.776-1.908-1.165-3.451-1.165-1.601 0-2.855.351-3.764 1.051-.91.701-1.549 1.449-1.918 2.245l-3.182-1.137c.568-1.325 1.326-2.358 2.273-3.096a8.523 8.523 0 0 1 3.125-1.563 12.973 12.973 0 0 1 3.352-.454c.701 0 1.506.085 2.415.255a7.738 7.738 0 0 1 2.656 1.009c.862.511 1.577 1.283 2.145 2.315.568 1.032.852 2.415.852 4.148V956h-3.352v-2.955h-.17c-.228.474-.607.981-1.137 1.52-.53.54-1.236.999-2.116 1.378-.881.379-1.956.568-3.225.568Zm.512-3.011c1.325 0 2.443-.26 3.352-.781.918-.521 1.61-1.193 2.074-2.017.473-.824.71-1.691.71-2.6v-3.068c-.142.171-.455.327-.938.469-.473.132-1.022.251-1.647.355-.616.095-1.217.18-1.804.256-.578.066-1.047.123-1.406.17-.872.114-1.686.298-2.444.554-.748.246-1.354.62-1.818 1.122-.454.493-.682 1.165-.682 2.017 0 1.165.431 2.046 1.293 2.642.871.587 1.974.881 3.31.881Zm27.311 2.5v-29.091h3.41l13.068 22.33h.284v-22.33h3.466V956h-3.409l-13.012-22.159h-.284V956h-3.523Zm23.807-8.807v-2.898h12.387v2.898h-12.387Zm6.193-5.398c-1.401 0-2.613-.279-3.636-.838a5.914 5.914 0 0 1-2.358-2.343c-.549-1.004-.824-2.178-.824-3.523v-1.932c0-1.345.275-2.519.824-3.523a5.817 5.817 0 0 1 2.344-2.343c1.013-.559 2.211-.838 3.594-.838 1.401 0 2.604.279 3.608.838a5.726 5.726 0 0 1 2.329 2.343c.549 1.004.824 2.178.824 3.523v1.932c0 1.345-.27 2.519-.81 3.523a5.74 5.74 0 0 1-2.315 2.343c-1.004.559-2.197.838-3.58.838Zm0-2.84c1.108 0 1.932-.351 2.472-1.052.549-.71.824-1.647.824-2.812v-1.932c0-1.136-.275-2.055-.824-2.756-.549-.7-1.392-1.051-2.528-1.051-1.137 0-1.98.351-2.529 1.051-.549.701-.824 1.62-.824 2.756v1.932c0 1.165.275 2.102.824 2.812.559.701 1.421 1.052 2.585 1.052ZM666.082 956v-2.557l9.602-10.511a66.581 66.581 0 0 0 2.784-3.21c.729-.919 1.269-1.781 1.619-2.586.36-.814.54-1.666.54-2.556 0-1.023-.246-1.909-.739-2.657-.482-.748-1.145-1.325-1.988-1.733-.843-.407-1.79-.61-2.841-.61-1.117 0-2.093.232-2.926.696a4.789 4.789 0 0 0-1.918 1.917c-.445.824-.667 1.79-.667 2.898h-3.353c0-1.705.393-3.201 1.179-4.489a8.189 8.189 0 0 1 3.211-3.011c1.363-.72 2.893-1.08 4.588-1.08 1.704 0 3.215.36 4.531 1.08 1.316.72 2.348 1.69 3.096 2.912.749 1.221 1.123 2.58 1.123 4.077 0 1.07-.195 2.116-.583 3.139-.379 1.013-1.041 2.145-1.988 3.395-.938 1.24-2.24 2.755-3.907 4.545l-6.534 6.989v.227h13.523V956h-18.352Zm104.674-12.443v3.125h-12.045v-3.125h12.045Zm-11.25-9.375V956h-3.352v-21.818h3.352Zm13.807 0V956h-3.352v-21.818h3.352Zm12.543 22.329c-1.383 0-2.637-.26-3.764-.781-1.127-.53-2.022-1.292-2.685-2.287-.663-1.004-.994-2.216-.994-3.636 0-1.25.246-2.263.738-3.04a5.226 5.226 0 0 1 1.975-1.847 10.39 10.39 0 0 1 2.727-.994 33.417 33.417 0 0 1 3.026-.54c1.325-.17 2.4-.298 3.224-.383.833-.095 1.439-.251 1.818-.469.388-.218.583-.597.583-1.136v-.114c0-1.401-.384-2.49-1.151-3.267-.758-.776-1.908-1.165-3.452-1.165-1.6 0-2.855.351-3.764 1.051-.909.701-1.548 1.449-1.918 2.245l-3.181-1.137c.568-1.325 1.325-2.358 2.272-3.096a8.53 8.53 0 0 1 3.125-1.563 12.98 12.98 0 0 1 3.353-.454c.7 0 1.505.085 2.414.255a7.743 7.743 0 0 1 2.657 1.009c.861.511 1.576 1.283 2.145 2.315.568 1.032.852 2.415.852 4.148V956h-3.352v-2.955h-.171c-.227.474-.606.981-1.136 1.52-.531.54-1.236.999-2.117 1.378-.88.379-1.955.568-3.224.568Zm.511-3.011c1.326 0 2.443-.26 3.352-.781.919-.521 1.61-1.193 2.074-2.017a5.139 5.139 0 0 0 .711-2.6v-3.068c-.142.171-.455.327-.938.469a15.9 15.9 0 0 1-1.648.355c-.615.095-1.217.18-1.804.256-.577.066-1.046.123-1.406.17-.871.114-1.686.298-2.443.554-.748.246-1.354.62-1.818 1.122-.455.493-.682 1.165-.682 2.017 0 1.165.431 2.046 1.293 2.642.871.587 1.974.881 3.309.881Zm29.073-19.318v3.125h-10.113V956h-3.353v-21.818h13.466Zm4.894 30v-30h3.238v3.466h.398c.246-.379.587-.862 1.023-1.449.445-.597 1.079-1.127 1.903-1.591.834-.474 1.961-.71 3.381-.71 1.837 0 3.456.459 4.858 1.378 1.401.918 2.495 2.22 3.281 3.906.786 1.685 1.179 3.674 1.179 5.966 0 2.31-.393 4.313-1.179 6.008-.786 1.686-1.875 2.993-3.267 3.921-1.392.918-2.997 1.378-4.815 1.378-1.402 0-2.524-.232-3.367-.696-.842-.474-1.491-1.009-1.946-1.606a21.779 21.779 0 0 1-1.051-1.505h-.284v11.534h-3.352Zm3.295-19.091c0 1.648.242 3.101.725 4.361.483 1.25 1.188 2.23 2.116 2.94.928.701 2.065 1.051 3.409 1.051 1.402 0 2.571-.369 3.509-1.108.947-.748 1.657-1.752 2.13-3.011.483-1.269.725-2.68.725-4.233 0-1.534-.237-2.917-.71-4.148-.464-1.24-1.17-2.22-2.117-2.94-.937-.729-2.116-1.094-3.537-1.094-1.363 0-2.509.346-3.437 1.037-.928.682-1.629 1.638-2.103 2.869-.473 1.222-.71 2.647-.71 4.276Zm27.5 11.42c-1.382 0-2.637-.26-3.764-.781-1.127-.53-2.022-1.292-2.685-2.287-.662-1.004-.994-2.216-.994-3.636 0-1.25.246-2.263.739-3.04a5.216 5.216 0 0 1 1.974-1.847 10.39 10.39 0 0 1 2.727-.994 33.48 33.48 0 0 1 3.026-.54 138.22 138.22 0 0 1 3.224-.383c.834-.095 1.44-.251 1.819-.469.388-.218.582-.597.582-1.136v-.114c0-1.401-.384-2.49-1.151-3.267-.757-.776-1.908-1.165-3.451-1.165-1.601 0-2.855.351-3.764 1.051-.91.701-1.549 1.449-1.918 2.245l-3.182-1.137c.568-1.325 1.326-2.358 2.273-3.096a8.523 8.523 0 0 1 3.125-1.563 12.973 12.973 0 0 1 3.352-.454c.701 0 1.506.085 2.415.255a7.738 7.738 0 0 1 2.656 1.009c.862.511 1.577 1.283 2.145 2.315.568 1.032.852 2.415.852 4.148V956h-3.352v-2.955h-.17c-.228.474-.607.981-1.137 1.52-.53.54-1.236.999-2.116 1.378-.881.379-1.956.568-3.225.568Zm.512-3.011c1.325 0 2.443-.26 3.352-.781.918-.521 1.61-1.193 2.074-2.017.473-.824.71-1.691.71-2.6v-3.068c-.142.171-.455.327-.938.469-.473.132-1.022.251-1.647.355-.616.095-1.217.18-1.804.256-.578.066-1.047.123-1.406.17-.872.114-1.686.298-2.444.554-.748.246-1.354.62-1.818 1.122-.454.493-.682 1.165-.682 2.017 0 1.165.431 2.046 1.293 2.642.871.587 1.974.881 3.31.881Zm13.277 8.75v-9.375h1.819a8.345 8.345 0 0 0 1.15-1.506c.322-.539.601-1.179.838-1.917.246-.748.455-1.657.625-2.728.171-1.079.322-2.381.455-3.906l.738-8.636h13.864v18.693h3.352v9.375h-3.352V956h-16.136v6.25h-3.353Zm5.625-9.375h10.512v-15.568h-7.387l-.568 5.511c-.237 2.282-.53 4.276-.881 5.98-.35 1.705-.909 3.064-1.676 4.077Zm28.086 3.636c-1.382 0-2.637-.26-3.764-.781-1.127-.53-2.022-1.292-2.685-2.287-.662-1.004-.994-2.216-.994-3.636 0-1.25.246-2.263.739-3.04a5.216 5.216 0 0 1 1.974-1.847 10.39 10.39 0 0 1 2.727-.994 33.48 33.48 0 0 1 3.026-.54 138.22 138.22 0 0 1 3.224-.383c.834-.095 1.44-.251 1.819-.469.388-.218.582-.597.582-1.136v-.114c0-1.401-.384-2.49-1.151-3.267-.757-.776-1.908-1.165-3.451-1.165-1.601 0-2.855.351-3.764 1.051-.91.701-1.549 1.449-1.918 2.245l-3.182-1.137c.568-1.325 1.326-2.358 2.273-3.096a8.523 8.523 0 0 1 3.125-1.563 12.973 12.973 0 0 1 3.352-.454c.701 0 1.506.085 2.415.255a7.738 7.738 0 0 1 2.656 1.009c.862.511 1.577 1.283 2.145 2.315.568 1.032.852 2.415.852 4.148V956h-3.352v-2.955h-.17c-.228.474-.607.981-1.137 1.52-.53.54-1.236.999-2.116 1.378-.881.379-1.956.568-3.225.568Zm.512-3.011c1.325 0 2.443-.26 3.352-.781.918-.521 1.61-1.193 2.074-2.017.473-.824.71-1.691.71-2.6v-3.068c-.142.171-.455.327-.938.469-.473.132-1.022.251-1.647.355-.616.095-1.217.18-1.804.256-.578.066-1.047.123-1.406.17-.872.114-1.686.298-2.444.554-.748.246-1.354.62-1.818 1.122-.454.493-.682 1.165-.682 2.017 0 1.165.431 2.046 1.293 2.642.871.587 1.974.881 3.31.881Zm27.311 2.5v-29.091h3.41l13.068 22.33h.284v-22.33h3.466V956h-3.409l-13.012-22.159h-.284V956h-3.523Zm23.807-8.807v-2.898h12.387v2.898h-12.387Zm6.193-5.398c-1.401 0-2.613-.279-3.636-.838a5.914 5.914 0 0 1-2.358-2.343c-.549-1.004-.824-2.178-.824-3.523v-1.932c0-1.345.275-2.519.824-3.523a5.817 5.817 0 0 1 2.344-2.343c1.013-.559 2.211-.838 3.594-.838 1.401 0 2.604.279 3.608.838a5.726 5.726 0 0 1 2.329 2.343c.549 1.004.824 2.178.824 3.523v1.932c0 1.345-.27 2.519-.81 3.523a5.74 5.74 0 0 1-2.315 2.343c-1.004.559-2.197.838-3.58.838Zm0-2.84c1.108 0 1.932-.351 2.472-1.052.549-.71.824-1.647.824-2.812v-1.932c0-1.136-.275-2.055-.824-2.756-.549-.7-1.392-1.051-2.528-1.051-1.137 0-1.98.351-2.529 1.051-.549.701-.824 1.62-.824 2.756v1.932c0 1.165.275 2.102.824 2.812.559.701 1.421 1.052 2.585 1.052Zm22.834 17.443c-1.875 0-3.546-.322-5.014-.966-1.458-.644-2.618-1.539-3.48-2.685-.852-1.155-1.316-2.495-1.392-4.02h3.579c.076.938.398 1.747.966 2.429.568.673 1.312 1.193 2.23 1.563.919.369 1.937.554 3.054.554 1.25 0 2.358-.218 3.324-.654.966-.435 1.724-1.041 2.273-1.818.549-.776.824-1.676.824-2.699 0-1.07-.265-2.012-.796-2.826-.53-.824-1.306-1.468-2.329-1.932-1.023-.464-2.273-.696-3.75-.696h-2.33v-3.125h2.33c1.155 0 2.168-.209 3.04-.625.88-.417 1.567-1.004 2.059-1.762.502-.757.753-1.647.753-2.67 0-.985-.218-1.842-.653-2.571-.436-.729-1.051-1.297-1.847-1.705-.786-.407-1.714-.61-2.784-.61a7.326 7.326 0 0 0-2.841.554c-.881.359-1.6.885-2.159 1.576-.559.682-.862 1.506-.909 2.472h-3.409c.057-1.525.516-2.86 1.378-4.006.861-1.155 1.988-2.055 3.38-2.699 1.402-.644 2.941-.966 4.617-.966 1.799 0 3.343.365 4.631 1.094 1.287.72 2.277 1.672 2.968 2.855a7.468 7.468 0 0 1 1.037 3.835c0 1.639-.431 3.035-1.292 4.191-.853 1.155-2.013 1.955-3.481 2.4v.228c1.838.303 3.272 1.084 4.304 2.343 1.033 1.25 1.549 2.799 1.549 4.645 0 1.582-.431 3.002-1.293 4.262-.852 1.25-2.017 2.234-3.494 2.954-1.477.72-3.158 1.08-5.043 1.08Zm88.374-10.841v3.125h-12.05v-3.125h12.05Zm-11.25-9.375V958h-3.35v-21.818h3.35Zm13.81 0V958h-3.36v-21.818h3.36Zm12.54 22.329c-1.38 0-2.64-.26-3.77-.781-1.12-.53-2.02-1.292-2.68-2.287-.66-1.004-1-2.216-1-3.636 0-1.25.25-2.263.74-3.04a5.248 5.248 0 0 1 1.98-1.847c.82-.445 1.73-.776 2.73-.994 1-.227 2.01-.407 3.02-.54 1.33-.17 2.4-.298 3.23-.383.83-.095 1.43-.251 1.81-.469.39-.218.59-.597.59-1.136v-.114c0-1.401-.39-2.49-1.15-3.267-.76-.776-1.91-1.165-3.46-1.165-1.6 0-2.85.351-3.76 1.051-.91.701-1.55 1.449-1.92 2.245l-3.18-1.137c.57-1.325 1.33-2.358 2.27-3.096.96-.748 2-1.269 3.13-1.563 1.13-.303 2.25-.454 3.35-.454.7 0 1.51.085 2.41.255.92.161 1.81.498 2.66 1.009.86.511 1.58 1.283 2.15 2.315.56 1.032.85 2.415.85 4.148V958h-3.35v-2.955h-.17c-.23.474-.61.981-1.14 1.52-.53.54-1.24.999-2.12 1.378-.88.379-1.95.568-3.22.568Zm.51-3.011c1.33 0 2.44-.26 3.35-.781.92-.521 1.61-1.193 2.08-2.017.47-.824.71-1.691.71-2.6v-3.068c-.15.171-.46.327-.94.469-.48.132-1.02.251-1.65.355-.61.095-1.22.18-1.8.256-.58.066-1.05.123-1.41.17-.87.114-1.69.298-2.44.554-.75.246-1.36.62-1.82 1.122-.46.493-.68 1.165-.68 2.017 0 1.165.43 2.046 1.29 2.642.87.587 1.97.881 3.31.881Zm29.07-19.318v3.125h-10.11V958h-3.35v-21.818h13.46Zm4.9 30v-30h3.23v3.466h.4c.25-.379.59-.862 1.03-1.449.44-.597 1.07-1.127 1.9-1.591.83-.474 1.96-.71 3.38-.71 1.84 0 3.46.459 4.86 1.378 1.4.918 2.49 2.22 3.28 3.906.78 1.685 1.18 3.674 1.18 5.966 0 2.31-.4 4.313-1.18 6.008-.79 1.686-1.88 2.993-3.27 3.921-1.39.918-3 1.378-4.81 1.378-1.41 0-2.53-.232-3.37-.696-.84-.474-1.49-1.009-1.95-1.606-.45-.606-.8-1.108-1.05-1.505h-.28v11.534h-3.35Zm3.29-19.091c0 1.648.24 3.101.73 4.361.48 1.25 1.18 2.23 2.11 2.94.93.701 2.07 1.051 3.41 1.051 1.4 0 2.57-.369 3.51-1.108.95-.748 1.66-1.752 2.13-3.011.48-1.269.73-2.68.73-4.233 0-1.534-.24-2.917-.71-4.148-.47-1.24-1.17-2.22-2.12-2.94-.94-.729-2.12-1.094-3.54-1.094-1.36 0-2.51.346-3.44 1.037-.92.682-1.62 1.638-2.1 2.869-.47 1.222-.71 2.647-.71 4.276Zm27.5 11.42c-1.38 0-2.64-.26-3.76-.781a6.493 6.493 0 0 1-2.69-2.287c-.66-1.004-.99-2.216-.99-3.636 0-1.25.24-2.263.74-3.04a5.22 5.22 0 0 1 1.97-1.847c.83-.445 1.73-.776 2.73-.994 1-.227 2.01-.407 3.02-.54 1.33-.17 2.4-.298 3.23-.383.83-.095 1.44-.251 1.82-.469.39-.218.58-.597.58-1.136v-.114c0-1.401-.38-2.49-1.15-3.267-.76-.776-1.91-1.165-3.45-1.165-1.6 0-2.86.351-3.77 1.051-.91.701-1.55 1.449-1.91 2.245l-3.19-1.137c.57-1.325 1.33-2.358 2.28-3.096a8.433 8.433 0 0 1 3.12-1.563 12.97 12.97 0 0 1 3.35-.454c.7 0 1.51.085 2.42.255.92.161 1.8.498 2.65 1.009.87.511 1.58 1.283 2.15 2.315.57 1.032.85 2.415.85 4.148V958h-3.35v-2.955h-.17c-.23.474-.61.981-1.14 1.52-.53.54-1.23.999-2.11 1.378-.88.379-1.96.568-3.23.568Zm.51-3.011c1.33 0 2.45-.26 3.36-.781.91-.521 1.61-1.193 2.07-2.017.47-.824.71-1.691.71-2.6v-3.068c-.14.171-.46.327-.94.469a15.5 15.5 0 0 1-1.65.355c-.61.095-1.21.18-1.8.256-.58.066-1.05.123-1.41.17-.87.114-1.68.298-2.44.554-.75.246-1.35.62-1.82 1.122-.45.493-.68 1.165-.68 2.017 0 1.165.43 2.046 1.29 2.642.87.587 1.98.881 3.31.881Zm13.28 8.75v-9.375h1.82c.44-.464.83-.966 1.15-1.506.32-.539.6-1.179.84-1.917.24-.748.45-1.657.62-2.728.17-1.079.32-2.381.46-3.906l.74-8.636h13.86v18.693h3.35v9.375h-3.35V958h-16.14v6.25h-3.35Zm5.63-9.375h10.51v-15.568h-7.39l-.57 5.511c-.23 2.282-.53 4.276-.88 5.98-.35 1.705-.91 3.064-1.67 4.077Zm28.08 3.636c-1.38 0-2.64-.26-3.76-.781a6.493 6.493 0 0 1-2.69-2.287c-.66-1.004-.99-2.216-.99-3.636 0-1.25.24-2.263.74-3.04a5.22 5.22 0 0 1 1.97-1.847c.83-.445 1.73-.776 2.73-.994 1-.227 2.01-.407 3.02-.54 1.33-.17 2.4-.298 3.23-.383.83-.095 1.44-.251 1.82-.469.39-.218.58-.597.58-1.136v-.114c0-1.401-.38-2.49-1.15-3.267-.76-.776-1.91-1.165-3.45-1.165-1.6 0-2.86.351-3.77 1.051-.91.701-1.55 1.449-1.91 2.245l-3.19-1.137c.57-1.325 1.33-2.358 2.28-3.096a8.433 8.433 0 0 1 3.12-1.563 12.97 12.97 0 0 1 3.35-.454c.7 0 1.51.085 2.42.255.92.161 1.8.498 2.65 1.009.87.511 1.58 1.283 2.15 2.315.57 1.032.85 2.415.85 4.148V958h-3.35v-2.955h-.17c-.23.474-.61.981-1.14 1.52-.53.54-1.23.999-2.11 1.378-.88.379-1.96.568-3.23.568Zm.51-3.011c1.33 0 2.45-.26 3.36-.781.91-.521 1.61-1.193 2.07-2.017.47-.824.71-1.691.71-2.6v-3.068c-.14.171-.46.327-.94.469a15.5 15.5 0 0 1-1.65.355c-.61.095-1.21.18-1.8.256-.58.066-1.05.123-1.41.17-.87.114-1.68.298-2.44.554-.75.246-1.35.62-1.82 1.122-.45.493-.68 1.165-.68 2.017 0 1.165.43 2.046 1.29 2.642.87.587 1.98.881 3.31.881Zm27.31 2.5v-29.091h3.41l13.07 22.33h.29v-22.33h3.46V958h-3.41l-13.01-22.159h-.28V958h-3.53Zm23.81-8.807v-2.898h12.39v2.898h-12.39Zm6.19-5.398c-1.4 0-2.61-.279-3.63-.838a5.944 5.944 0 0 1-2.36-2.343c-.55-1.004-.82-2.178-.82-3.523v-1.932c0-1.345.27-2.519.82-3.523a5.832 5.832 0 0 1 2.34-2.343c1.02-.559 2.22-.838 3.6-.838 1.4 0 2.6.279 3.61.838a5.746 5.746 0 0 1 2.33 2.343c.54 1.004.82 2.178.82 3.523v1.932c0 1.345-.27 2.519-.81 3.523a5.722 5.722 0 0 1-2.32 2.343c-1 .559-2.19.838-3.58.838Zm0-2.84c1.11 0 1.94-.351 2.48-1.052.55-.71.82-1.647.82-2.812v-1.932c0-1.136-.27-2.055-.82-2.756-.55-.7-1.4-1.051-2.53-1.051-1.14 0-1.98.351-2.53 1.051-.55.701-.82 1.62-.82 2.756v1.932c0 1.165.27 2.102.82 2.812.56.701 1.42 1.052 2.58 1.052Zm12.33 11.079v-2.898l12.78-20.227h2.1v4.489h-1.42l-9.66 15.284v.227h17.22v3.125h-21.02Zm13.69 5.966v-29.091h3.35V958h-3.35Z"/>
  </g>
  <defs>
    <clipPath id="a">
      <path fill="#fff" d="M0 0h1440v1024H0z"/>
    </clipPath>
  </defs>
</svg>
