<?xml version="1.0" encoding="UTF-8"?><svg xmlns="http://www.w3.org/2000/svg" xmlns:xlink="http://www.w3.org/1999/xlink" fill-opacity="1" color-rendering="auto" color-interpolation="auto" text-rendering="auto" stroke="black" stroke-linecap="square" width="1319" stroke-miterlimit="10" shape-rendering="auto" stroke-opacity="1" fill="black" stroke-dasharray="none" font-weight="normal" stroke-width="1" height="878" font-family="'Dialog'" font-style="normal" stroke-linejoin="miter" font-size="12px" stroke-dashoffset="0" image-rendering="auto">
  <!--Generated by ySVG 2.6-->
  <defs id="genericDefs"/>
  <g>
    <g fill="white" text-rendering="geometricPrecision" shape-rendering="geometricPrecision" transform="translate(240,-202)" stroke="white">
      <rect x="-240" width="1319" height="878" y="202" clip-path="url(#clipPath2)" stroke="none"/>
    </g>
    <g text-rendering="geometricPrecision" shape-rendering="geometricPrecision" transform="matrix(1.4743,0,0,1.4523,535.7767,32)">
      <g clip-path="url(#clipPath3)">
        <svg xmlns:svg="http://www.w3.org/2000/svg" xmlns:sodipodi="http://sodipodi.sourceforge.net/DTD/sodipodi-0.dtd" xmlns:inkscape="http://www.inkscape.org/namespaces/inkscape" xmlns:dc="http://purl.org/dc/elements/1.1/" xmlns:cc="http://web.resource.org/cc/" xmlns:rdf="http://www.w3.org/1999/02/22-rdf-syntax-ns#" opacity="1" writing-mode="lr-tb" stop-color="rgb(0, 0, 0)" shape-rendering="auto" glyph-orientation-horizontal="0deg" color-profile="auto" lighting-color="rgb(255, 255, 255)" color="rgb(0, 0, 0)" font-weight="400" alignment-baseline="auto" font-style="normal" version="1.0" color-interpolation-filters="linearrgb" text-anchor="start" stroke-linecap="butt" color-interpolation="srgb" font-variant="normal" word-spacing="normal" fill-opacity="1" text-rendering="auto" clip-path="none" text-decoration="none" letter-spacing="normal" glyph-orientation-vertical="auto" display="inline" font-size-adjust="none" overflow="hidden" fill="rgb(0, 0, 0)" font-stretch="normal" stroke-dasharray="none" inkscape:version="0.45.1" id="svg1.svg2" stroke-miterlimit="4" stop-opacity="1" color-rendering="auto" font-size="12" sodipodi:docbase="C:\Daten\alberts\projects\yfx" pointer-events="visiblepainted" mask="none" direction="ltr" baseline-shift="baseline" sodipodi:docname="uml_actor.svg" enable-background="accumulate" fill-rule="nonzero" image-rendering="auto" stroke-dashoffset="0" inkscape:output_extension="org.inkscape.output.svg.inkscape" marker-end="none" width="41" clip="auto" cursor="auto" stroke="none" filter="none" visibility="visible" kerning="auto" stroke-width="1" font-family="&quot;Arial&quot;,&quot;Helvetica&quot;,sans-serif" flood-opacity="1" clip-rule="nonzero" src="none" height="68.997391" unicode-bidi="normal" sodipodi:version="0.32" stroke-linejoin="miter" stroke-opacity="1" flood-color="rgb(0, 0, 0)" dominant-baseline="auto" marker-start="none" marker-mid="none">
            
          <defs id="svg1.defs4">
            <clipPath clipPathUnits="userSpaceOnUse" id="clipPath1">
              <path d="M0 0 L1319 0 L1319 878 L0 878 L0 0 Z"/>
            </clipPath>
            <clipPath clipPathUnits="userSpaceOnUse" id="clipPath2">
              <path d="M-240 202 L1079 202 L1079 1080 L-240 1080 L-240 202 Z"/>
            </clipPath>
            <clipPath clipPathUnits="userSpaceOnUse" id="clipPath3">
              <path d="M-363.4089 -22.0339 L531.2481 -22.0339 L531.2481 582.5209 L-363.4089 582.5209 L-363.4089 -22.0339 Z"/>
            </clipPath>
            <clipPath clipPathUnits="userSpaceOnUse" id="clipPath4">
              <path d="M-363.4089 -345.6566 L531.2481 -345.6566 L531.2481 258.8982 L-363.4089 258.8982 L-363.4089 -345.6566 Z"/>
            </clipPath>
            <clipPath clipPathUnits="userSpaceOnUse" id="clipPath5">
              <path d="M-363.4089 -186.3413 L531.2481 -186.3413 L531.2481 418.2135 L-363.4089 418.2135 L-363.4089 -186.3413 Z"/>
            </clipPath>
          </defs>
            
  
          <metadata id="svg1.metadata7">
    
  </metadata>
            
          <g inkscape:groupmode="layer" id="svg1.layer1" transform="translate(-29.5,-42.959476)" inkscape:label="Ebene 1">
                
            <a id="svg1.a3142" transform="matrix(1.0873906,0,0,1,-4.4741999,0)">
                    
              <path transform="translate(11.586889,5.2908993)" style="fill:none;fill-rule:evenodd;stroke:#000000;stroke-width:1px;stroke-linecap:butt;stroke-linejoin:miter;stroke-opacity:1" sodipodi:cx="38.509369" sodipodi:cy="47.36993" sodipodi:rx="8.5197716" id="svg1.path2160" d="M 47.02914 47.36993 A 8.5197716 9.2013531 0 1 1  29.989597,47.36993 A 8.5197716 9.2013531 0 1 1  47.02914 47.36993 z" sodipodi:ry="9.2013531" sodipodi:type="arc"/>
                  
            </a>
                
            <path style="fill:none" sodipodi:cx="43.962021" sodipodi:cy="48.392303" d="M 47.71072 48.392303 A 3.7486994 0 0 1 1  40.213321,48.392303 A 3.7486994 0 0 1 1  47.71072 48.392303 z" id="svg1.path3134" sodipodi:rx="3.7486994" sodipodi:ry="0" sodipodi:type="arc"/>
                
            <path style="fill:none;fill-rule:evenodd;stroke:#000000;stroke-width:1.24319649px;stroke-linecap:butt;stroke-linejoin:miter;stroke-opacity:1" d="M 50,61.33709 C 50,91.363211 50,92.247838 50,92.247838" id="svg1.path3136"/>
                
            <path style="fill:none;fill-rule:evenodd;stroke:#000000;stroke-width:1px;stroke-linecap:butt;stroke-linejoin:miter;stroke-opacity:1" d="M 69.760668,72.362183 C 69.760668,72.362183 69.760668,72.362183 50.239332,72.362183 C 30.239332,72.362183 30.239332,72.362183 30.239332,72.362183 L 30.239332,72.362183" id="svg1.path3138"/>
                
            <path style="fill:none;fill-rule:evenodd;stroke:#000000;stroke-width:1px;stroke-linecap:butt;stroke-linejoin:miter;stroke-opacity:1" d="M 30,111.45687 C 30,111.45687 30,111.45687 50,92.013532 C 70,111.45687 70,111.45687 70,111.45687" id="svg1.path3140"/>
              
          </g>
          
        </svg>
      </g>
    </g>
    <g font-size="13px" stroke-linecap="butt" transform="matrix(1,0,0,1,240,-202)" text-rendering="geometricPrecision" font-family="sans-serif" shape-rendering="geometricPrecision" stroke-miterlimit="1.45">
      <text x="309.2517" xml:space="preserve" y="353.0698" clip-path="url(#clipPath2)" stroke="none">Гость</text>
    </g>
    <g fill="white" text-rendering="geometricPrecision" shape-rendering="geometricPrecision" transform="matrix(1,0,0,1,240,-202)" stroke="white">
      <ellipse rx="85.4" ry="25" clip-path="url(#clipPath2)" cx="707.8" cy="242.75" stroke="none"/>
    </g>
    <g font-size="13px" stroke-linecap="butt" transform="matrix(1,0,0,1,240,-202)" text-rendering="geometricPrecision" font-family="sans-serif" shape-rendering="geometricPrecision" stroke-miterlimit="1.45">
      <text x="668.7048" xml:space="preserve" y="247.8567" clip-path="url(#clipPath2)" stroke="none">Авторизация</text>
      <ellipse rx="85.4" fill="none" ry="25" clip-path="url(#clipPath2)" cx="707.8" cy="242.75"/>
    </g>
    <g fill="white" text-rendering="geometricPrecision" shape-rendering="geometricPrecision" transform="matrix(1,0,0,1,240,-202)" stroke="white">
      <ellipse rx="93.5" ry="25" clip-path="url(#clipPath2)" cx="89.1449" cy="437.425" stroke="none"/>
    </g>
    <g font-size="13px" stroke-linecap="butt" transform="matrix(1,0,0,1,240,-202)" text-rendering="geometricPrecision" font-family="sans-serif" shape-rendering="geometricPrecision" stroke-miterlimit="1.45">
      <text x="8.974" xml:space="preserve" y="442.5317" clip-path="url(#clipPath2)" stroke="none">Просмотр профиля игрока</text>
      <ellipse rx="93.5" fill="none" ry="25" clip-path="url(#clipPath2)" cx="89.1449" cy="437.425"/>
    </g>
    <g fill="white" text-rendering="geometricPrecision" shape-rendering="geometricPrecision" transform="matrix(1,0,0,1,240,-202)" stroke="white">
      <ellipse rx="90.25" ry="25" clip-path="url(#clipPath2)" cx="704.55" cy="659.125" stroke="none"/>
    </g>
    <g font-size="13px" stroke-linecap="butt" transform="matrix(1,0,0,1,240,-202)" text-rendering="geometricPrecision" font-family="sans-serif" shape-rendering="geometricPrecision" stroke-miterlimit="1.45">
      <text x="648.3129" xml:space="preserve" y="664.2317" clip-path="url(#clipPath2)" stroke="none">Выход из аккаунта</text>
      <ellipse rx="90.25" fill="none" ry="25" clip-path="url(#clipPath2)" cx="704.55" cy="659.125"/>
    </g>
    <g text-rendering="geometricPrecision" shape-rendering="geometricPrecision" transform="matrix(1.4743,0,0,1.4523,535.7767,502)">
      <g clip-path="url(#clipPath4)">
        <svg xmlns:svg="http://www.w3.org/2000/svg" xmlns:sodipodi="http://sodipodi.sourceforge.net/DTD/sodipodi-0.dtd" xmlns:inkscape="http://www.inkscape.org/namespaces/inkscape" xmlns:dc="http://purl.org/dc/elements/1.1/" xmlns:cc="http://web.resource.org/cc/" xmlns:rdf="http://www.w3.org/1999/02/22-rdf-syntax-ns#" opacity="1" writing-mode="lr-tb" stop-color="rgb(0, 0, 0)" shape-rendering="auto" glyph-orientation-horizontal="0deg" color-profile="auto" lighting-color="rgb(255, 255, 255)" color="rgb(0, 0, 0)" font-weight="400" alignment-baseline="auto" font-style="normal" version="1.0" color-interpolation-filters="linearrgb" text-anchor="start" stroke-linecap="butt" color-interpolation="srgb" font-variant="normal" word-spacing="normal" fill-opacity="1" text-rendering="auto" clip-path="none" text-decoration="none" letter-spacing="normal" glyph-orientation-vertical="auto" display="inline" font-size-adjust="none" overflow="hidden" fill="rgb(0, 0, 0)" font-stretch="normal" stroke-dasharray="none" inkscape:version="0.45.1" id="svg2.svg2" stroke-miterlimit="4" stop-opacity="1" color-rendering="auto" font-size="12" sodipodi:docbase="C:\Daten\alberts\projects\yfx" pointer-events="visiblepainted" mask="none" direction="ltr" baseline-shift="baseline" sodipodi:docname="uml_actor.svg" enable-background="accumulate" fill-rule="nonzero" image-rendering="auto" stroke-dashoffset="0" inkscape:output_extension="org.inkscape.output.svg.inkscape" marker-end="none" width="41" clip="auto" cursor="auto" stroke="none" filter="none" visibility="visible" kerning="auto" stroke-width="1" font-family="&quot;Arial&quot;,&quot;Helvetica&quot;,sans-serif" flood-opacity="1" clip-rule="nonzero" src="none" height="68.997391" unicode-bidi="normal" sodipodi:version="0.32" stroke-linejoin="miter" stroke-opacity="1" flood-color="rgb(0, 0, 0)" dominant-baseline="auto" marker-start="none" marker-mid="none">
            
          <defs id="svg2.defs4"/>
            
  
          <metadata id="svg2.metadata7">
    
  </metadata>
            
          <g inkscape:groupmode="layer" id="svg2.layer1" transform="translate(-29.5,-42.959476)" inkscape:label="Ebene 1">
                
            <a id="svg2.a3142" transform="matrix(1.0873906,0,0,1,-4.4741999,0)">
                    
              <path transform="translate(11.586889,5.2908993)" style="fill:none;fill-rule:evenodd;stroke:#000000;stroke-width:1px;stroke-linecap:butt;stroke-linejoin:miter;stroke-opacity:1" sodipodi:cx="38.509369" sodipodi:cy="47.36993" sodipodi:rx="8.5197716" id="svg2.path2160" d="M 47.02914 47.36993 A 8.5197716 9.2013531 0 1 1  29.989597,47.36993 A 8.5197716 9.2013531 0 1 1  47.02914 47.36993 z" sodipodi:ry="9.2013531" sodipodi:type="arc"/>
                  
            </a>
                
            <path style="fill:none" sodipodi:cx="43.962021" sodipodi:cy="48.392303" d="M 47.71072 48.392303 A 3.7486994 0 0 1 1  40.213321,48.392303 A 3.7486994 0 0 1 1  47.71072 48.392303 z" id="svg2.path3134" sodipodi:rx="3.7486994" sodipodi:ry="0" sodipodi:type="arc"/>
                
            <path style="fill:none;fill-rule:evenodd;stroke:#000000;stroke-width:1.24319649px;stroke-linecap:butt;stroke-linejoin:miter;stroke-opacity:1" d="M 50,61.33709 C 50,91.363211 50,92.247838 50,92.247838" id="svg2.path3136"/>
                
            <path style="fill:none;fill-rule:evenodd;stroke:#000000;stroke-width:1px;stroke-linecap:butt;stroke-linejoin:miter;stroke-opacity:1" d="M 69.760668,72.362183 C 69.760668,72.362183 69.760668,72.362183 50.239332,72.362183 C 30.239332,72.362183 30.239332,72.362183 30.239332,72.362183 L 30.239332,72.362183" id="svg2.path3138"/>
                
            <path style="fill:none;fill-rule:evenodd;stroke:#000000;stroke-width:1px;stroke-linecap:butt;stroke-linejoin:miter;stroke-opacity:1" d="M 30,111.45687 C 30,111.45687 30,111.45687 50,92.013532 C 70,111.45687 70,111.45687 70,111.45687" id="svg2.path3140"/>
              
          </g>
          
        </svg>
      </g>
    </g>
    <g font-size="13px" stroke-linecap="butt" transform="matrix(1,0,0,1,240,-202)" text-rendering="geometricPrecision" font-family="sans-serif" shape-rendering="geometricPrecision" stroke-miterlimit="1.45">
      <text x="275.2981" xml:space="preserve" y="823.0698" clip-path="url(#clipPath2)" stroke="none">Админинстратор</text>
    </g>
    <g text-rendering="geometricPrecision" shape-rendering="geometricPrecision" transform="matrix(1.4743,0,0,1.4523,535.7767,270.625)">
      <g clip-path="url(#clipPath5)">
        <svg xmlns:svg="http://www.w3.org/2000/svg" xmlns:sodipodi="http://sodipodi.sourceforge.net/DTD/sodipodi-0.dtd" xmlns:inkscape="http://www.inkscape.org/namespaces/inkscape" xmlns:dc="http://purl.org/dc/elements/1.1/" xmlns:cc="http://web.resource.org/cc/" xmlns:rdf="http://www.w3.org/1999/02/22-rdf-syntax-ns#" opacity="1" writing-mode="lr-tb" stop-color="rgb(0, 0, 0)" shape-rendering="auto" glyph-orientation-horizontal="0deg" color-profile="auto" lighting-color="rgb(255, 255, 255)" color="rgb(0, 0, 0)" font-weight="400" alignment-baseline="auto" font-style="normal" version="1.0" color-interpolation-filters="linearrgb" text-anchor="start" stroke-linecap="butt" color-interpolation="srgb" font-variant="normal" word-spacing="normal" fill-opacity="1" text-rendering="auto" clip-path="none" text-decoration="none" letter-spacing="normal" glyph-orientation-vertical="auto" display="inline" font-size-adjust="none" overflow="hidden" fill="rgb(0, 0, 0)" font-stretch="normal" stroke-dasharray="none" inkscape:version="0.45.1" id="svg3.svg2" stroke-miterlimit="4" stop-opacity="1" color-rendering="auto" font-size="12" sodipodi:docbase="C:\Daten\alberts\projects\yfx" pointer-events="visiblepainted" mask="none" direction="ltr" baseline-shift="baseline" sodipodi:docname="uml_actor.svg" enable-background="accumulate" fill-rule="nonzero" image-rendering="auto" stroke-dashoffset="0" inkscape:output_extension="org.inkscape.output.svg.inkscape" marker-end="none" width="41" clip="auto" cursor="auto" stroke="none" filter="none" visibility="visible" kerning="auto" stroke-width="1" font-family="&quot;Arial&quot;,&quot;Helvetica&quot;,sans-serif" flood-opacity="1" clip-rule="nonzero" src="none" height="68.997391" unicode-bidi="normal" sodipodi:version="0.32" stroke-linejoin="miter" stroke-opacity="1" flood-color="rgb(0, 0, 0)" dominant-baseline="auto" marker-start="none" marker-mid="none">
            
          <defs id="svg3.defs4"/>
            
  
          <metadata id="svg3.metadata7">
    
  </metadata>
            
          <g inkscape:groupmode="layer" id="svg3.layer1" transform="translate(-29.5,-42.959476)" inkscape:label="Ebene 1">
                
            <a id="svg3.a3142" transform="matrix(1.0873906,0,0,1,-4.4741999,0)">
                    
              <path transform="translate(11.586889,5.2908993)" style="fill:none;fill-rule:evenodd;stroke:#000000;stroke-width:1px;stroke-linecap:butt;stroke-linejoin:miter;stroke-opacity:1" sodipodi:cx="38.509369" sodipodi:cy="47.36993" sodipodi:rx="8.5197716" id="svg3.path2160" d="M 47.02914 47.36993 A 8.5197716 9.2013531 0 1 1  29.989597,47.36993 A 8.5197716 9.2013531 0 1 1  47.02914 47.36993 z" sodipodi:ry="9.2013531" sodipodi:type="arc"/>
                  
            </a>
                
            <path style="fill:none" sodipodi:cx="43.962021" sodipodi:cy="48.392303" d="M 47.71072 48.392303 A 3.7486994 0 0 1 1  40.213321,48.392303 A 3.7486994 0 0 1 1  47.71072 48.392303 z" id="svg3.path3134" sodipodi:rx="3.7486994" sodipodi:ry="0" sodipodi:type="arc"/>
                
            <path style="fill:none;fill-rule:evenodd;stroke:#000000;stroke-width:1.24319649px;stroke-linecap:butt;stroke-linejoin:miter;stroke-opacity:1" d="M 50,61.33709 C 50,91.363211 50,92.247838 50,92.247838" id="svg3.path3136"/>
                
            <path style="fill:none;fill-rule:evenodd;stroke:#000000;stroke-width:1px;stroke-linecap:butt;stroke-linejoin:miter;stroke-opacity:1" d="M 69.760668,72.362183 C 69.760668,72.362183 69.760668,72.362183 50.239332,72.362183 C 30.239332,72.362183 30.239332,72.362183 30.239332,72.362183 L 30.239332,72.362183" id="svg3.path3138"/>
                
            <path style="fill:none;fill-rule:evenodd;stroke:#000000;stroke-width:1px;stroke-linecap:butt;stroke-linejoin:miter;stroke-opacity:1" d="M 30,111.45687 C 30,111.45687 30,111.45687 50,92.013532 C 70,111.45687 70,111.45687 70,111.45687" id="svg3.path3140"/>
              
          </g>
          
        </svg>
      </g>
    </g>
    <g font-size="13px" stroke-linecap="butt" transform="matrix(1,0,0,1,240,-202)" text-rendering="geometricPrecision" font-family="sans-serif" shape-rendering="geometricPrecision" stroke-miterlimit="1.45">
      <text x="308.8835" xml:space="preserve" y="591.6948" clip-path="url(#clipPath2)" stroke="none">Игрок</text>
    </g>
    <g fill="white" text-rendering="geometricPrecision" shape-rendering="geometricPrecision" transform="matrix(1,0,0,1,240,-202)" stroke="white">
      <ellipse rx="93.5" ry="25" clip-path="url(#clipPath2)" cx="707.8" cy="322.75" stroke="none"/>
    </g>
    <g font-size="13px" stroke-linecap="butt" transform="matrix(1,0,0,1,240,-202)" text-rendering="geometricPrecision" font-family="sans-serif" shape-rendering="geometricPrecision" stroke-miterlimit="1.45">
      <text x="650.1125" xml:space="preserve" y="327.8567" clip-path="url(#clipPath2)" stroke="none">Создание аккаунта</text>
      <ellipse rx="93.5" fill="none" ry="25" clip-path="url(#clipPath2)" cx="707.8" cy="322.75"/>
    </g>
    <g fill="white" text-rendering="geometricPrecision" shape-rendering="geometricPrecision" transform="matrix(1,0,0,1,240,-202)" stroke="white">
      <ellipse rx="90.25" ry="33.4" clip-path="url(#clipPath2)" cx="704.55" cy="570.725" stroke="none"/>
    </g>
    <g font-size="13px" stroke-linecap="butt" transform="matrix(1,0,0,1,240,-202)" text-rendering="geometricPrecision" font-family="sans-serif" shape-rendering="geometricPrecision" stroke-miterlimit="1.45">
      <text x="654.1306" xml:space="preserve" y="559.9054" clip-path="url(#clipPath2)" stroke="none">Отправка своего</text>
      <text x="661.716" xml:space="preserve" y="575.8317" clip-path="url(#clipPath2)" stroke="none">результата на</text>
      <text x="661.8937" xml:space="preserve" y="591.7579" clip-path="url(#clipPath2)" stroke="none">соревнование</text>
      <ellipse rx="90.25" fill="none" ry="33.4" clip-path="url(#clipPath2)" cx="704.55" cy="570.725"/>
    </g>
    <g fill="white" text-rendering="geometricPrecision" shape-rendering="geometricPrecision" transform="matrix(1,0,0,1,240,-202)" stroke="white">
      <ellipse rx="93.5" ry="25" clip-path="url(#clipPath2)" cx="707.8" cy="482.325" stroke="none"/>
    </g>
    <g font-size="13px" stroke-linecap="butt" transform="matrix(1,0,0,1,240,-202)" text-rendering="geometricPrecision" font-family="sans-serif" shape-rendering="geometricPrecision" stroke-miterlimit="1.45">
      <text x="636.1318" xml:space="preserve" y="479.4686" clip-path="url(#clipPath2)" stroke="none">Редактирование своего</text>
      <text x="678.9531" xml:space="preserve" y="495.3948" clip-path="url(#clipPath2)" stroke="none"> профиля</text>
      <ellipse rx="93.5" fill="none" ry="25" clip-path="url(#clipPath2)" cx="707.8" cy="482.325"/>
    </g>
    <g fill="white" text-rendering="geometricPrecision" shape-rendering="geometricPrecision" transform="matrix(1,0,0,1,240,-202)" stroke="white">
      <ellipse rx="90.25" ry="25" clip-path="url(#clipPath2)" cx="704.55" cy="739.125" stroke="none"/>
    </g>
    <g font-size="13px" stroke-linecap="butt" transform="matrix(1,0,0,1,240,-202)" text-rendering="geometricPrecision" font-family="sans-serif" shape-rendering="geometricPrecision" stroke-miterlimit="1.45">
      <text x="632.2026" xml:space="preserve" y="736.2686" clip-path="url(#clipPath2)" stroke="none">Редактирование наград</text>
      <text x="684.8596" xml:space="preserve" y="752.1948" clip-path="url(#clipPath2)" stroke="none">игрока</text>
      <ellipse rx="90.25" fill="none" ry="25" clip-path="url(#clipPath2)" cx="704.55" cy="739.125"/>
    </g>
    <g fill="white" text-rendering="geometricPrecision" shape-rendering="geometricPrecision" transform="matrix(1,0,0,1,240,-202)" stroke="white">
      <ellipse rx="90.25" ry="25" clip-path="url(#clipPath2)" cx="704.55" cy="849.35" stroke="none"/>
    </g>
    <g font-size="13px" stroke-linecap="butt" transform="matrix(1,0,0,1,240,-202)" text-rendering="geometricPrecision" font-family="sans-serif" shape-rendering="geometricPrecision" stroke-miterlimit="1.45">
      <text x="654.6066" xml:space="preserve" y="846.4935" clip-path="url(#clipPath2)" stroke="none">Редактирование</text>
      <text x="661.8779" xml:space="preserve" y="862.4198" clip-path="url(#clipPath2)" stroke="none">соревнований</text>
      <ellipse rx="90.25" fill="none" ry="25" clip-path="url(#clipPath2)" cx="704.55" cy="849.35"/>
    </g>
    <g fill="white" text-rendering="geometricPrecision" shape-rendering="geometricPrecision" transform="matrix(1,0,0,1,240,-202)" stroke="white">
      <ellipse rx="90.25" ry="25" clip-path="url(#clipPath2)" cx="704.55" cy="981.125" stroke="none"/>
    </g>
    <g font-size="13px" stroke-linecap="butt" transform="matrix(1,0,0,1,240,-202)" text-rendering="geometricPrecision" font-family="sans-serif" shape-rendering="geometricPrecision" stroke-miterlimit="1.45">
      <text x="654.6066" xml:space="preserve" y="978.2686" clip-path="url(#clipPath2)" stroke="none">Редактирование</text>
      <text x="683.9518" xml:space="preserve" y="994.1948" clip-path="url(#clipPath2)" stroke="none">наград</text>
      <ellipse rx="90.25" fill="none" ry="25" clip-path="url(#clipPath2)" cx="704.55" cy="981.125"/>
    </g>
    <g fill="white" text-rendering="geometricPrecision" shape-rendering="geometricPrecision" transform="matrix(1,0,0,1,240,-202)" stroke="white">
      <ellipse rx="90.25" ry="25" clip-path="url(#clipPath2)" cx="973.2875" cy="808.725" stroke="none"/>
    </g>
    <g font-size="13px" stroke-linecap="butt" transform="matrix(1,0,0,1,240,-202)" text-rendering="geometricPrecision" font-family="sans-serif" shape-rendering="geometricPrecision" stroke-miterlimit="1.45">
      <text x="899.3881" xml:space="preserve" y="813.8317" clip-path="url(#clipPath2)" stroke="none">Создание соревнования</text>
      <ellipse rx="90.25" fill="none" ry="25" clip-path="url(#clipPath2)" cx="973.2875" cy="808.725"/>
    </g>
    <g fill="white" text-rendering="geometricPrecision" shape-rendering="geometricPrecision" transform="matrix(1,0,0,1,240,-202)" stroke="white">
      <ellipse rx="90.25" ry="25" clip-path="url(#clipPath2)" cx="973.2875" cy="888.725" stroke="none"/>
    </g>
    <g font-size="13px" stroke-linecap="butt" transform="matrix(1,0,0,1,240,-202)" text-rendering="geometricPrecision" font-family="sans-serif" shape-rendering="geometricPrecision" stroke-miterlimit="1.45">
      <text x="893.8434" xml:space="preserve" y="885.8685" clip-path="url(#clipPath2)" stroke="none">Удаление нежелательных</text>
      <text x="936.0109" xml:space="preserve" y="901.7948" clip-path="url(#clipPath2)" stroke="none">результатов</text>
      <ellipse rx="90.25" fill="none" ry="25" clip-path="url(#clipPath2)" cx="973.2875" cy="888.725"/>
    </g>
    <g fill="white" text-rendering="geometricPrecision" shape-rendering="geometricPrecision" transform="matrix(1,0,0,1,240,-202)" stroke="white">
      <ellipse rx="90.25" ry="30.2" clip-path="url(#clipPath2)" cx="973.2875" cy="733.925" stroke="none"/>
    </g>
    <g font-size="13px" stroke-linecap="butt" transform="matrix(1,0,0,1,240,-202)" text-rendering="geometricPrecision" font-family="sans-serif" shape-rendering="geometricPrecision" stroke-miterlimit="1.45">
      <text x="898.3851" xml:space="preserve" y="739.0317" clip-path="url(#clipPath2)" stroke="none">Ручное удаление наград</text>
      <ellipse rx="90.25" fill="none" ry="30.2" clip-path="url(#clipPath2)" cx="973.2875" cy="733.925"/>
    </g>
    <g fill="white" text-rendering="geometricPrecision" shape-rendering="geometricPrecision" transform="matrix(1,0,0,1,240,-202)" stroke="white">
      <ellipse rx="90.25" ry="30.2" clip-path="url(#clipPath2)" cx="973.2875" cy="659.525" stroke="none"/>
    </g>
    <g font-size="13px" stroke-linecap="butt" transform="matrix(1,0,0,1,240,-202)" text-rendering="geometricPrecision" font-family="sans-serif" shape-rendering="geometricPrecision" stroke-miterlimit="1.45">
      <text x="890.8441" xml:space="preserve" y="664.6317" clip-path="url(#clipPath2)" stroke="none">Ручное добавление наград</text>
      <ellipse rx="90.25" fill="none" ry="30.2" clip-path="url(#clipPath2)" cx="973.2875" cy="659.525"/>
    </g>
    <g fill="white" text-rendering="geometricPrecision" shape-rendering="geometricPrecision" transform="matrix(1,0,0,1,240,-202)" stroke="white">
      <ellipse rx="90.25" ry="25" clip-path="url(#clipPath2)" cx="973.2875" cy="968.725" stroke="none"/>
    </g>
    <g font-size="13px" stroke-linecap="butt" transform="matrix(1,0,0,1,240,-202)" text-rendering="geometricPrecision" font-family="sans-serif" shape-rendering="geometricPrecision" stroke-miterlimit="1.45">
      <text x="905.3929" xml:space="preserve" y="965.8685" clip-path="url(#clipPath2)" stroke="none">Создание нового вида</text>
      <text x="948.0175" xml:space="preserve" y="981.7948" clip-path="url(#clipPath2)" stroke="none">награды</text>
      <ellipse rx="90.25" fill="none" ry="25" clip-path="url(#clipPath2)" cx="973.2875" cy="968.725"/>
    </g>
    <g fill="white" text-rendering="geometricPrecision" shape-rendering="geometricPrecision" transform="matrix(1,0,0,1,240,-202)" stroke="white">
      <ellipse rx="90.25" ry="25" clip-path="url(#clipPath2)" cx="973.2875" cy="1039.875" stroke="none"/>
    </g>
    <g font-size="13px" stroke-linecap="butt" transform="matrix(1,0,0,1,240,-202)" text-rendering="geometricPrecision" font-family="sans-serif" shape-rendering="geometricPrecision" stroke-miterlimit="1.45">
      <text x="923.214" xml:space="preserve" y="1037.0186" clip-path="url(#clipPath2)" stroke="none">Изменение вида</text>
      <text x="948.0175" xml:space="preserve" y="1052.9448" clip-path="url(#clipPath2)" stroke="none">награды</text>
      <ellipse rx="90.25" fill="none" ry="25" clip-path="url(#clipPath2)" cx="973.2875" cy="1039.875"/>
    </g>
    <g fill="white" text-rendering="geometricPrecision" shape-rendering="geometricPrecision" transform="matrix(1,0,0,1,240,-202)" stroke="white">
      <ellipse rx="90.25" ry="30.2" clip-path="url(#clipPath2)" cx="711.05" cy="407.95" stroke="none"/>
    </g>
    <g font-size="13px" stroke-linecap="butt" transform="matrix(1,0,0,1,240,-202)" text-rendering="geometricPrecision" font-family="sans-serif" shape-rendering="geometricPrecision" stroke-miterlimit="1.45">
      <text x="641.3305" xml:space="preserve" y="405.0936" clip-path="url(#clipPath2)" stroke="none">Просмотр полученных </text>
      <text x="690.4518" xml:space="preserve" y="421.0198" clip-path="url(#clipPath2)" stroke="none">наград</text>
      <ellipse rx="90.25" fill="none" ry="30.2" clip-path="url(#clipPath2)" cx="711.05" cy="407.95"/>
    </g>
    <g fill="white" text-rendering="geometricPrecision" shape-rendering="geometricPrecision" transform="matrix(1,0,0,1,240,-202)" stroke="white">
      <ellipse rx="90.25" ry="30.2" clip-path="url(#clipPath2)" cx="89.1449" cy="522.625" stroke="none"/>
    </g>
    <g font-size="13px" stroke-linecap="butt" transform="matrix(1,0,0,1,240,-202)" text-rendering="geometricPrecision" font-family="sans-serif" shape-rendering="geometricPrecision" stroke-miterlimit="1.45">
      <text x="31.378" xml:space="preserve" y="519.7686" clip-path="url(#clipPath2)" stroke="none">Просмотр таблицы</text>
      <text x="19.2635" xml:space="preserve" y="535.6948" clip-path="url(#clipPath2)" stroke="none">лидеров соревнования</text>
      <ellipse rx="90.25" fill="none" ry="30.2" clip-path="url(#clipPath2)" cx="89.1449" cy="522.625"/>
    </g>
    <g fill="white" text-rendering="geometricPrecision" shape-rendering="geometricPrecision" transform="matrix(1,0,0,1,240,-202)" stroke="white">
      <ellipse rx="93.5" ry="25" clip-path="url(#clipPath2)" cx="85.8949" cy="607.825" stroke="none"/>
    </g>
    <g font-size="13px" stroke-linecap="butt" transform="matrix(1,0,0,1,240,-202)" text-rendering="geometricPrecision" font-family="sans-serif" shape-rendering="geometricPrecision" stroke-miterlimit="1.45">
      <text x="11.5892" xml:space="preserve" y="612.9317" clip-path="url(#clipPath2)" stroke="none">Просмотр соревнований</text>
      <ellipse rx="93.5" fill="none" ry="25" clip-path="url(#clipPath2)" cx="85.8949" cy="607.825"/>
    </g>
    <g fill="white" text-rendering="geometricPrecision" shape-rendering="geometricPrecision" transform="matrix(1,0,0,1,240,-202)" stroke="white">
      <ellipse rx="93.5" ry="30.2" clip-path="url(#clipPath2)" cx="-131.1051" cy="568.3061" stroke="none"/>
    </g>
    <g font-size="13px" stroke-linecap="butt" transform="matrix(1,0,0,1,240,-202)" text-rendering="geometricPrecision" font-family="sans-serif" shape-rendering="geometricPrecision" stroke-miterlimit="1.45">
      <text x="-183.1305" xml:space="preserve" y="573.4128" clip-path="url(#clipPath2)" stroke="none">Просмотр сроков</text>
      <ellipse rx="93.5" fill="none" ry="30.2" clip-path="url(#clipPath2)" cx="-131.1051" cy="568.3061"/>
    </g>
    <g fill="white" text-rendering="geometricPrecision" shape-rendering="geometricPrecision" transform="matrix(1,0,0,1,240,-202)" stroke="white">
      <ellipse rx="93.5" ry="30.2" clip-path="url(#clipPath2)" cx="-131.1051" cy="648.9061" stroke="none"/>
    </g>
    <g font-size="13px" stroke-linecap="butt" transform="matrix(1,0,0,1,240,-202)" text-rendering="geometricPrecision" font-family="sans-serif" shape-rendering="geometricPrecision" stroke-miterlimit="1.45">
      <text x="-191.1095" xml:space="preserve" y="646.0497" clip-path="url(#clipPath2)" stroke="none">Просмотр описания</text>
      <text x="-151.7033" xml:space="preserve" y="661.976" clip-path="url(#clipPath2)" stroke="none">наград</text>
      <ellipse rx="93.5" fill="none" ry="30.2" clip-path="url(#clipPath2)" cx="-131.1051" cy="648.9061"/>
      <path fill="none" d="M355.968 280.7622 L619.7286 252.2653" clip-path="url(#clipPath2)"/>
      <path d="M627.6823 251.406 L615.2147 247.7239 L618.7344 252.3727 L616.2888 257.666 Z" stroke="none" clip-path="url(#clipPath2)"/>
      <path fill="none" d="M295.9885 316.1196 L188.1066 431.5796" clip-path="url(#clipPath2)"/>
      <path d="M182.6449 437.425 L194.4909 432.0705 L188.7894 430.8489 L187.1841 425.2432 Z" stroke="none" clip-path="url(#clipPath2)"/>
      <path fill="none" d="M355.9901 746.4836 L629.8665 677.8427" clip-path="url(#clipPath2)"/>
      <path d="M637.6265 675.8979 L624.771 673.9651 L628.8965 678.0858 L627.202 683.6651 Z" stroke="none" clip-path="url(#clipPath2)"/>
      <path fill="none" d="M303.3733 704.0328 L185.9449 444.7126" clip-path="url(#clipPath2)"/>
      <path d="M182.6449 437.425 L183.0402 450.419 L186.3574 445.6236 L192.1497 446.2939 Z" stroke="none" clip-path="url(#clipPath2)"/>
      <path fill="none" d="M296.006 504.7987 L189.522 441.5122" clip-path="url(#clipPath2)"/>
      <path d="M182.6449 437.425 L190.406 447.854 L190.3816 442.0231 L195.515 439.2577 Z" stroke="none" clip-path="url(#clipPath2)"/>
      <path fill="none" d="M355.9901 533.439 L642.0435 636.586" clip-path="url(#clipPath2)"/>
      <path d="M649.5692 639.2997 L639.9767 630.5256 L641.1028 636.2468 L636.5847 639.9327 Z" stroke="none" clip-path="url(#clipPath2)"/>
      <path fill="none" d="M355.968 287.0415 L612.4265 313.0703" clip-path="url(#clipPath2)"/>
      <path d="M620.3856 313.8781 L608.9518 307.692 L611.4316 312.9693 L607.9421 317.6408 Z" stroke="none" clip-path="url(#clipPath2)"/>
      <path fill="none" d="M355.9901 526.4357 L611.2548 558.8705" clip-path="url(#clipPath2)"/>
      <path d="M619.191 559.879 L607.917 553.4062 L610.2628 558.7445 L606.6564 563.3264 Z" stroke="none" clip-path="url(#clipPath2)"/>
      <path fill="none" d="M355.968 519.4618 L612.8755 492.3445" clip-path="url(#clipPath2)"/>
      <path d="M620.8314 491.5048 L608.3728 487.792 L611.8811 492.4495 L609.4225 497.7368 Z" stroke="none" clip-path="url(#clipPath2)"/>
      <path fill="none" d="M355.9901 752.8215 L607.2007 742.9503" clip-path="url(#clipPath2)"/>
      <path d="M615.1946 742.6362 L603.0075 738.1113 L606.2015 742.9896 L603.4002 748.1035 Z" stroke="none" clip-path="url(#clipPath2)"/>
      <path fill="none" d="M355.9901 761.554 L630.0195 830.5771" clip-path="url(#clipPath2)"/>
      <path d="M637.7772 832.5311 L627.3619 824.7515 L629.0497 830.3328 L624.9194 834.4486 Z" stroke="none" clip-path="url(#clipPath2)"/>
      <path fill="none" d="M356.0132 772.0075 L659.8597 954.3114" clip-path="url(#clipPath2)"/>
      <path d="M666.7197 958.4273 L659.0022 947.9659 L659.0023 953.7969 L653.8573 956.541 Z" stroke="none" clip-path="url(#clipPath2)"/>
      <path fill="none" d="M783.7711 837.3741 L886.1562 821.8966" clip-path="url(#clipPath2)"/>
      <path d="M894.0664 820.7009 L881.4539 817.5507 L885.1675 822.0461 L882.9485 827.4383 Z" stroke="none" clip-path="url(#clipPath2)"/>
      <path fill="none" d="M784.3277 861.0389 L885.5943 875.8763" clip-path="url(#clipPath2)"/>
      <path d="M893.5098 877.0361 L882.3613 870.3493 L884.6049 875.7314 L880.9117 880.2437 Z" stroke="none" clip-path="url(#clipPath2)"/>
      <path fill="none" d="M794.5806 737.3829 L875.1895 735.8232" clip-path="url(#clipPath2)"/>
      <path d="M883.188 735.6684 L871.0935 730.9015 L874.1897 735.8425 L871.287 740.8997 Z" stroke="none" clip-path="url(#clipPath2)"/>
      <path fill="none" d="M766.1952 720.8657 L898.0385 681.8137" clip-path="url(#clipPath2)"/>
      <path d="M905.709 679.5417 L892.7831 678.1556 L897.0796 682.0977 L895.6231 687.7438 Z" stroke="none" clip-path="url(#clipPath2)"/>
      <path fill="none" d="M793.5734 977.0173 L876.2726 973.2014" clip-path="url(#clipPath2)"/>
      <path d="M884.2641 972.8327 L872.0464 968.3911 L875.2737 973.2475 L872.5073 978.3804 Z" stroke="none" clip-path="url(#clipPath2)"/>
      <path fill="none" d="M775.3951 996.6128 L894.627 1022.6786" clip-path="url(#clipPath2)"/>
      <path d="M902.4424 1024.3872 L891.7871 1016.9398 L893.65 1022.4651 L889.6514 1026.709 Z" stroke="none" clip-path="url(#clipPath2)"/>
      <path fill="none" d="M356.035 513.68 L635.9664 430.3113" clip-path="url(#clipPath2)"/>
      <path d="M643.6336 428.0278 L630.7057 426.661 L635.008 430.5967 L633.5599 436.245 Z" stroke="none" clip-path="url(#clipPath2)"/>
      <path fill="none" d="M295.9703 522.625 L187.3949 522.625" clip-path="url(#clipPath2)"/>
      <path d="M179.3949 522.625 L191.3949 527.625 L188.3949 522.625 L191.3949 517.625 Z" stroke="none" clip-path="url(#clipPath2)"/>
      <path fill="none" d="M295.9882 706.6348 L183.6767 529.3826" clip-path="url(#clipPath2)"/>
      <path d="M179.3949 522.625 L181.5941 535.4376 L184.2119 530.2274 L190.0412 530.0853 Z" stroke="none" clip-path="url(#clipPath2)"/>
      <path fill="none" d="M295.9882 332.8494 L183.5827 515.8087" clip-path="url(#clipPath2)"/>
      <path d="M179.3949 522.625 L189.9368 515.0179 L184.1061 514.9566 L181.4163 509.7831 Z" stroke="none" clip-path="url(#clipPath2)"/>
      <path fill="none" d="M303.3614 334.0047 L182.6943 600.5371" clip-path="url(#clipPath2)"/>
      <path d="M179.3949 607.825 L188.899 598.9553 L183.1068 599.6261 L179.7891 594.831 Z" stroke="none" clip-path="url(#clipPath2)"/>
      <path fill="none" d="M295.9703 540.0768 L186.3117 603.8053" clip-path="url(#clipPath2)"/>
      <path d="M179.3949 607.825 L192.2824 606.1184 L187.1763 603.3029 L187.2577 597.4725 Z" stroke="none" clip-path="url(#clipPath2)"/>
      <path fill="none" d="M295.9882 724.0762 L185.06 613.4735" clip-path="url(#clipPath2)"/>
      <path d="M179.3949 607.825 L184.3623 619.8385 L185.7682 614.1796 L191.4229 612.7571 Z" stroke="none" clip-path="url(#clipPath2)"/>
      <path fill="none" d="M8.6171 593.7516 L-41.7887 584.572" clip-path="url(#clipPath2)"/>
      <path d="M-49.6592 583.1386 L-38.7492 590.2077 L-40.8048 584.7511 L-36.9575 580.3696 Z" stroke="none" clip-path="url(#clipPath2)"/>
      <path fill="none" d="M9.5858 622.2714 L-42.5795 632.147" clip-path="url(#clipPath2)"/>
      <path d="M-50.4398 633.6351 L-37.7192 636.3157 L-41.5969 631.9609 L-39.5793 626.4902 Z" stroke="none" clip-path="url(#clipPath2)"/>
    </g>
  </g>
</svg>
